<?xml version="1.0" encoding="UTF-8"?>
<svg width="16px" height="16px" viewBox="0 0 16 16" version="1.1" xmlns="http://www.w3.org/2000/svg" xmlns:xlink="http://www.w3.org/1999/xlink">
    <!-- Generator: Sketch 52.6 (67491) - http://www.bohemiancoding.com/sketch -->
    <title>Path</title>
    <desc>Created with Sketch.</desc>
    <g id="Page-1" stroke="none" stroke-width="1" fill="none" fill-rule="evenodd" opacity="0.741838728">
        <g id="Landing-page-1st-draft-Copy" transform="translate(-920.000000, -533.000000)" fill="#C3ACFF" fill-rule="nonzero">
            <path d="M930.376729,541.09518 L935.008987,546.113927 C935.663693,546.774178 935.663668,547.844631 935.008932,548.504851 C934.374657,549.14444 933.358632,549.164403 932.700525,548.56476 L932.63798,548.504795 L927.90482,543.376729 L922.886073,548.008987 C922.225822,548.663693 921.155369,548.663668 920.495149,548.008932 C919.85556,547.374657 919.835597,546.358632 920.43524,545.700525 L920.495205,545.63798 L925.623271,540.90482 L920.991013,535.886073 C920.336307,535.225822 920.336332,534.155369 920.991068,533.495149 C921.625343,532.85556 922.641368,532.835597 923.299475,533.43524 L923.36202,533.495205 L928.09518,538.623271 L933.113927,533.991013 C933.774178,533.336307 934.844631,533.336332 935.504851,533.991068 C936.14444,534.625343 936.164403,535.641368 935.56476,536.299475 L935.504795,536.36202 L930.376729,541.09518 Z" id="Path"></path>
        </g>
    </g>
</svg>