<?xml version="1.0" encoding="UTF-8"?>
<svg width="65px" height="62px" viewBox="0 0 65 62" version="1.1" xmlns="http://www.w3.org/2000/svg" xmlns:xlink="http://www.w3.org/1999/xlink">
    <!-- Generator: Sketch 52.6 (67491) - http://www.bohemiancoding.com/sketch -->
    <title>customer-success</title>
    <desc>Created with Sketch.</desc>
    <g id="Page-1" stroke="none" stroke-width="1" fill="none" fill-rule="evenodd">
        <g id="Landing-page-1st-draft-Copy" transform="translate(-1320.000000, -1044.000000)">
            <g id="Group-23" transform="translate(280.000000, 840.000000)">
                <g id="Group-10" transform="translate(972.000000, 204.000000)">
                    <g id="customer-success" transform="translate(68.000000, 0.000000)">
                        <path d="M52.5673741,43.5930468 L43.0158527,38.7264494 C41.7808176,38.0947214 41.0045456,36.8108873 41.0045456,35.4035096 L41.0045456,31.5876692 C41.267053,31.2743526 41.5795619,30.8757017 41.9070712,30.4031794 C43.2058581,28.5271003 44.1921361,26.4676164 44.8759056,24.3036936 C46.1021904,23.9203264 46.9997159,22.7664041 46.9997159,21.3985094 L46.9997159,17.3241191 C46.9997159,16.4236521 46.6097048,15.6225294 46.0046876,15.0646729 L46.0046876,9.16897023 C46.0046876,9.16897023 47.1909713,0 35.0031251,0 C22.8152788,0 24.0015625,9.16897023 24.0015625,9.16897023 L24.0015625,15.0646729 C23.3915452,15.6225294 23.0002841,16.4236521 23.0002841,17.3241191 L23.0002841,21.3985094 C23.0002841,22.4734657 23.5577999,23.4185103 24.3828234,23.9610831 C25.3828518,28.3984622 28.0004261,31.5876692 28.0004261,31.5876692 L28.0004261,35.3092599 C28.0004261,36.6669654 27.2729055,37.9202321 26.1016222,38.5672437 L17.1801188,43.5280909 C14.6012955,44.9609416 13,47.7120147 13,50.7025331 L13,54 L57,54 L57,50.9012218 C57,47.8062644 55.2862013,44.9762253 52.5673741,43.5930468 Z" id="Fill-1" fill="#DFE3EB"></path>
                        <path d="M18.1795336,43.4979346 L24.12729,40.1845853 C24.0922885,40.1500978 24.1222898,40.1398793 24.1910427,40.1500978 L27.1011682,38.5228014 C28.2724686,37.8739265 29,36.62216 29,35.2554354 L29,31.5231275 C29,31.5231275 27.9412044,30.2202685 26.9099099,28.1254756 C26.773654,27.8508534 26.6411483,27.5609034 26.5098927,27.2620122 C26.4898918,27.2173062 26.471141,27.1764322 26.4561404,27.1368355 C26.3248847,26.8277258 26.192379,26.5083977 26.0698737,26.1737417 C26.0611233,26.1494728 26.0561231,26.1290358 26.0461227,26.1047668 C25.938618,25.8097076 25.8361136,25.5057071 25.7386094,25.1914882 C25.7136083,25.1059083 25.6898573,25.0216056 25.6648562,24.9321937 C25.5623518,24.5873193 25.4648476,24.2386129 25.3873443,23.8745788 C24.5573085,23.3304435 23.9997845,22.3826775 23.9997845,21.3046255 L23.9997845,17.218502 C23.9997845,16.3154419 24.3910513,15.5120122 25.0010776,14.9525492 L25.0010776,9.18037287 C23.5897668,8.05761496 21.3971723,7 17.9982758,7 C8.4378637,7 7.99784473,15.172247 7.99784473,15.172247 L7.99784473,20.2763887 C7.47532221,20.7604903 7.00280184,21.4540711 7.00280184,22.2319546 L7.00280184,25.7650016 C7.00280184,26.693608 7.48032243,27.5110882 8.19410319,27.9849712 C9.05789043,31.8220187 11.9530152,34.5861235 11.9530152,34.5861235 L11.9530152,37.8151701 C11.9530152,38.9877432 11.3279883,40.0747364 10.3179447,40.6341994 L3.60890556,44.9298022 C1.38630975,46.1726275 0,48.5522611 0,51.1464833 L0,54 L13.9993534,54 L13.9993534,50.6930373 C13.9993534,47.6939069 15.6006724,44.9349114 18.1795336,43.4979346 Z" id="Fill-2" fill="#C0C6D6"></path>
                        <g id="Fill-3" transform="translate(36.000000, 33.000000)" fill="#1DD9B7" stroke="#FFFFFF" stroke-width="3">
                            <g id="path-1-link">
                                <path d="M27.5,12.9966144 C27.5,21.0056274 21.0074959,27.5 12.9966144,27.5 C4.99133584,27.5 -1.5,21.0044593 -1.5,12.9966144 C-1.5,4.98981947 4.99028659,-1.5 12.9966144,-1.5 C21.0085457,-1.5 27.5,4.98865199 27.5,12.9966144 Z" id="path-1"></path>
                            </g>
                        </g>
                        <path d="M55.5703485,41.1816727 C55.1166061,40.862229 54.4966165,40.9754177 54.1791218,41.4319456 L48.5829658,49.5236821 L44.6330321,46.2613314 C44.2080392,45.907931 43.5780498,45.9720713 43.2268057,46.3984155 C42.8755616,46.831048 42.9393105,47.4649049 43.3693033,47.8183053 L48.154223,51.7685919 C48.3342199,51.9157373 48.5542163,52 48.7879623,52 C48.8329616,52 48.8767108,51.9949694 48.92546,51.9899388 C49.1992054,51.9496939 49.4479512,51.7975179 49.6091985,51.5673675 L55.8190943,42.58144 C56.1365889,42.1249121 56.0253408,41.5011165 55.5703485,41.1816727 Z" id="Fill-4" fill="#FFFFFF"></path>
                    </g>
                </g>
            </g>
        </g>
    </g>
</svg>