<?xml version="1.0" encoding="UTF-8"?>
<svg width="67px" height="62px" viewBox="0 0 67 62" version="1.1" xmlns="http://www.w3.org/2000/svg" xmlns:xlink="http://www.w3.org/1999/xlink">
    <!-- Generator: Sketch 52.6 (67491) - http://www.bohemiancoding.com/sketch -->
    <title>ITSM Copy@2x</title>
    <desc>Created with Sketch.</desc>
    <g id="Page-1" stroke="none" stroke-width="1" fill="none" fill-rule="evenodd">
        <g id="Landing-page-1st-draft-Copy" transform="translate(-927.000000, -1044.000000)">
            <g id="Group-23" transform="translate(280.000000, 840.000000)">
                <g id="Group-4" transform="translate(647.000000, 204.000000)">
                    <g id="ITSM-Copy">
                        <path d="M54.4666326,41.9772631 L44.6980312,37.2921364 C43.4349271,36.6838058 42.6410125,35.4475211 42.6410125,34.0922685 L42.6410125,30.4177556 C42.9094861,30.1148167 43.2290974,29.7321572 43.5640501,29.2771357 C44.8923549,27.4705411 45.9010483,25.4873343 46.600358,23.4035568 C47.8545129,23.0343884 48.7724367,21.9232039 48.7724367,20.605972 L48.7724367,16.6812585 C48.7724367,15.8141422 48.3735617,15.0426907 47.7547942,14.506722 L47.7547942,8.82937874 C47.7547942,8.82937874 48.9680389,0 36.5031961,0 C24.0383534,0 25.2515981,8.82937874 25.2515981,8.82937874 L25.2515981,14.506722 C24.6277167,15.0426907 24.2275633,15.8141422 24.2275633,16.6812585 L24.2275633,20.605972 C24.2275633,21.6398887 24.7977499,22.5511581 25.6415239,23.0724091 C26.6642802,27.3466673 29.3413449,30.4177556 29.3413449,30.4177556 L29.3413449,34.000283 C29.3413449,35.3089297 28.5972897,36.515779 27.3993863,37.1388273 L18.2751215,41.9159394 C15.6376886,43.2957215 14,45.9449031 14,48.8234351 L14,52 L59,52 L59,49.0159913 C59,46.0356621 57.2472513,43.3092127 54.4666326,41.9772631 Z" id="Fill-1" fill="#DFE3EB"></path>
                        <path d="M18.8064141,41.9451042 L24.9592655,38.7728347 C24.923057,38.7385928 24.9540928,38.7300323 25.0252166,38.7385928 L28.0356912,37.1818083 C29.2473814,36.560562 30,35.3620947 30,34.0523412 L30,30.480175 C30,30.480175 28.9046942,29.2327907 27.8378378,27.2259695 C27.6968835,26.9642634 27.5598086,26.6866592 27.4240269,26.4004946 C27.4033364,26.3564693 27.383939,26.3185586 27.3684211,26.2806479 C27.2326393,25.9846998 27.0955645,25.6789684 26.9688349,25.3585618 C26.9597827,25.3353262 26.9546101,25.3157594 26.9442648,25.2913009 C26.8330531,25.010028 26.7270141,24.7189717 26.6261477,24.4181319 C26.6002845,24.3361959 26.5757145,24.2554828 26.5498513,24.1686551 C26.4438122,23.839688 26.3429458,23.5046064 26.2627699,23.1560725 C25.4041122,22.636329 24.8273632,21.7276952 24.8273632,20.6967688 L24.8273632,16.7834063 C24.8273632,15.9187977 25.2321221,15.1495774 25.8631838,14.6151588 L25.8631838,9.08753431 C24.403207,8.01258255 22.1350058,7 18.618906,7 C8.72882452,7 8.27363248,14.8255021 8.27363248,14.8255021 L8.27363248,19.7123135 C7.73309194,20.1758024 7.24427777,20.8398511 7.24427777,21.5846129 L7.24427777,24.9672256 C7.24427777,25.8550697 7.73826458,26.6389651 8.47665848,27.0926706 C9.37023148,30.7663396 12.3651882,33.412751 12.3651882,33.412751 L12.3651882,36.5030845 C12.3651882,37.6306221 11.7147291,38.6676631 10.6685633,39.2069734 L3.73335058,43.316004 C1.43411354,44.5046879 0,46.7842215 0,49.2679838 L0,52 L14.4820897,52 L14.4820897,48.8326222 C14.4820897,45.9624154 16.1386267,43.3208957 18.8064141,41.9451042 Z" id="Fill-2" fill="#C0C6D6"></path>
                        <g id="Fill-3" transform="translate(38.000000, 33.000000)" fill="#7F73EE" stroke="#FFFFFF" stroke-width="3">
                            <g id="path-1-link">
                                <path d="M27.5,10.5104429 L27.5,16.0350373 L26.2281659,16.2307744 L24.5835815,16.4838781 C23.337491,16.6763536 22.714022,18.1047783 23.4223925,19.1481445 L25.012217,21.4918091 L21.1034318,25.4003908 L20.0652914,24.6367411 L19.1244382,23.9446534 C18.0860015,23.1830283 16.6053686,23.7960769 16.4102323,25.0694513 L16.0354084,27.5 L10.5108765,27.5 L10.2764732,26.2838991 L9.97407286,24.7150167 C9.73721712,23.4766435 8.28922344,22.9085209 7.27341028,23.6540858 L4.89777031,25.3996574 L0.987556762,21.4921426 L1.68381092,20.4657487 L2.57526846,19.151603 C3.28400034,18.1005293 2.6623053,16.6765994 1.41107921,16.4838901 L-1.5,16.0343909 L-1.5,10.5104429 L-0.284107386,10.2759014 L1.28373893,9.97347123 C2.52274808,9.73651856 3.09141774,8.28691533 2.34672731,7.26851504 L0.597937845,4.89201713 L4.50765213,0.985001267 L5.53286585,1.67849205 L7.2391853,2.83271107 C8.26071092,3.52693667 9.65533628,2.94988037 9.89001157,1.74049901 L10.5086254,-1.5 L16.0351386,-1.5 L16.2314255,-0.228925302 L16.4847558,1.41154042 C16.6772312,2.66111836 18.1028896,3.28241698 19.1486528,2.5737077 L21.4907936,0.983448114 L25.3996371,4.88959373 L24.6401386,5.92741594 L23.6597206,7.26711227 C22.9114344,8.28646364 23.4802925,9.73654733 24.7186092,9.97392224 L27.5,10.5104429 Z" id="path-1"></path>
                            </g>
                        </g>
                        <path d="M51,51 C48.24125,51 46,48.75875 46,46 C46,43.24625 48.24125,41 51,41 C53.75375,41 56,43.24625 56,46 C56,48.75875 53.75375,51 51,51 Z M51,43.0025 C49.34375,43.0025 47.99625,44.345 47.99625,46 C47.99625,47.655 49.34375,49.0025 51,49.0025 C52.65,49.0025 53.9975,47.655 53.9975,46 C53.9975,44.345 52.65,43.0025 51,43.0025 Z" id="Fill-5" fill="#FFFFFF" fill-rule="nonzero"></path>
                    </g>
                </g>
            </g>
        </g>
    </g>
</svg>