<?xml version="1.0" encoding="UTF-8"?>
<svg width="151px" height="88px" viewBox="0 0 151 88" version="1.1" xmlns="http://www.w3.org/2000/svg" xmlns:xlink="http://www.w3.org/1999/xlink">
    <!-- Generator: Sketch 52.6 (67491) - http://www.bohemiancoding.com/sketch -->
    <title>Group 21</title>
    <desc>Created with Sketch.</desc>
    <g id="Page-1" stroke="none" stroke-width="1" fill="none" fill-rule="evenodd">
        <g id="Landing-page-1st-draft-Copy" transform="translate(-1487.000000, -1312.000000)">
            <g id="Group-23" transform="translate(280.000000, 840.000000)">
                <g id="Group-21" transform="translate(1207.000000, 472.000000)">
                    <path d="M50.7114408,13.360049 C52.1075885,12.3507441 53.4680846,11.2938938 54.9137966,10.350739 C55.7149989,9.82808477 56.5302879,9.29905672 57.4276624,8.905085 C58.1135625,8.60396451 58.4142525,7.9652032 58.82781,7.43324663 C59.4328421,6.65477781 60.0048313,5.85408671 60.6013419,5.06976086 C60.7307307,4.89973458 60.8629022,4.72092276 61.0724634,4.61842465 C61.273851,4.58793362 61.4366305,4.49611598 61.5653237,4.35020691 C61.5969753,4.31902682 61.628453,4.28784672 61.6601046,4.25666662 C62.3484395,4.30317837 62.8729513,3.88750117 63.4616359,3.6687237 C63.6346761,3.60446858 63.8532807,3.5641584 64.0091039,3.43633723 C64.6880477,3.1972324 65.3549916,3.42737941 66.0092402,3.53004979 C66.3452339,3.5827631 66.4487102,3.94297073 66.3398427,4.27113694 C66.2927131,4.41377297 66.2048887,4.54590078 66.1264554,4.67820086 C66.0581089,4.79344663 66.1019341,4.87613418 66.1880195,4.96054438 C66.2948001,5.06510968 66.3902765,5.0122241 66.491492,4.95485962 C67.0994806,4.60981136 67.8152932,4.90042365 68.0810274,5.51713495 C68.228155,5.85822109 67.7180777,5.82290661 67.8229453,6.07734309 C67.765555,6.24340725 67.6855565,6.42359721 68.0172025,6.34676669 C68.3217185,6.39706828 68.476846,6.66408016 68.33424,6.93402055 C68.2422417,7.10852574 68.1003313,7.25977504 67.9919856,7.42773413 C67.8537273,7.64220496 67.6639917,7.85116329 68.0577234,8.04151691 C68.2471112,8.13316228 68.1585911,8.31645301 68.0999835,8.48475663 C67.6158187,9.87614691 66.8855716,11.117666 65.6502904,12.0627158 C65.6036826,12.0985471 65.5713354,12.1505713 65.5240319,12.204835 C65.6516817,12.2232674 65.7635057,12.224301 65.8635038,12.2568593 C66.2219319,12.3731386 66.3017565,12.6311927 66.0415874,12.869953 C65.8680255,13.029471 65.7701143,13.2771892 65.8925468,13.3958802 C66.1789762,13.6732281 66.0492395,13.9693529 66.0589784,14.2632382 C66.0302833,14.2971745 65.9835016,14.3433417 65.9932405,14.3721101 C66.0186313,14.447218 66.0337615,14.3447199 66.0628044,14.3602238 C66.0951516,14.3583289 66.1274989,14.3567785 66.1598461,14.3557449 C66.2708005,14.2441167 66.3250604,14.060826 66.5476649,14.0906279 C66.813399,13.9976044 67.1286974,14.1388623 67.3756493,13.9007911 C67.5226031,13.7590164 67.6485137,13.8044945 67.6855565,14.0423935 C67.7139038,14.2244784 67.696165,14.3936433 67.655818,14.5633251 C67.7046866,14.5805517 67.7337295,14.6003622 67.7613812,14.5988118 C67.9304215,14.5891649 68.1090268,14.3433417 68.2366766,14.5090614 C68.3662394,14.677365 68.1252004,14.8205178 68.0118113,14.9586749 C67.7963371,15.2217247 67.4659085,15.4808123 67.9991159,15.7576434 C68.0481584,15.7829664 68.1097225,15.8863259 68.0968531,15.9009684 C67.7335556,16.3135449 68.2773715,16.9194034 67.7525118,17.2954595 C67.705904,17.3288791 67.6445138,17.4174236 67.6599918,17.4420576 C67.9662469,17.9275025 67.4419089,18.1125159 67.2153045,18.2978738 C66.5141003,18.8704851 66.0407179,19.6189796 65.3746434,20.2155359 C64.7739591,20.7538662 64.1423188,21.2480966 63.411376,21.613989 C63.0611217,21.7893555 62.7115631,21.9805705 62.4858282,22.2584351 C62.1533127,22.6673939 61.7239295,22.9063265 61.2463732,23.0977137 C60.7022095,23.3158021 60.2707394,23.6940977 59.7676184,23.9652439 C58.8667658,24.450861 58.0279989,24.9990106 57.3154906,25.7137411 C56.8309779,26.1998749 56.4847236,26.7936749 55.9155169,27.2136587 C55.2092693,27.7342458 54.513978,28.2689586 53.8176433,28.7998816 C52.8574874,29.5321832 51.8517672,30.2136664 50.9436103,31.0074669 C50.2462321,31.616943 49.5022461,32.1811133 48.6259148,32.5669885 C48.203314,32.7530355 47.9325365,33.1070415 47.5841952,33.375087 C47.5014142,33.5015301 47.5008924,33.6529516 47.3958509,33.8445111 C47.8384513,33.5139332 48.3448766,33.4498503 48.7549558,33.1985146 C49.4469428,32.9018731 50.0817135,32.5106576 50.7371794,32.1549289 C51.2830822,31.8589763 51.8298546,31.5700867 52.4256694,31.3702585 C52.7034034,31.2887768 52.9710505,31.1831779 53.2180024,31.0705161 C53.1101783,31.0873982 53.0079194,31.1600943 52.8903564,31.1985095 C52.71749,31.2550127 52.5007985,31.3463135 52.4006264,31.1862787 C52.2806287,30.9943747 52.5543627,30.9344262 52.6639258,30.8214199 C53.29574,30.4489814 53.9651188,30.1604363 54.6936268,29.9861034 C54.9904908,29.9149576 55.2449208,29.7392466 55.5148288,29.6016063 C57.2328834,28.7252905 58.9448513,27.8358826 60.7823819,27.1847181 C60.9015101,27.1192571 61.0122907,27.1102993 61.1063758,27.2233056 C60.9794217,27.4901452 60.9794217,27.4901452 60.6369934,27.6579321 C61.1185495,27.371971 61.6545395,27.186613 62.1522692,26.9301094 C62.5762613,26.7990151 62.960254,26.551297 63.4289409,26.5509525 C64.3908358,26.2865246 65.3454266,25.9928115 66.2502792,25.5934996 C67.6620787,24.9700699 68.8191004,24.0131338 69.9164711,22.9990055 C70.8232367,22.1609327 71.6879161,21.2839279 72.5891165,20.4405149 C73.2731037,19.8002032 74.0581324,19.2677298 74.8050749,18.694774 C75.8878371,17.8642809 77.0403372,17.0995934 77.9961453,16.1295651 C78.0497095,16.0751291 78.1236212,16.038092 78.1879678,15.9931306 C78.891085,15.9385224 79.1288197,15.7361101 79.2705562,15.0716812 C79.2968165,15.0129386 79.3175118,14.9514398 79.3646414,14.9028608 C79.7569818,14.5905431 80.0176726,14.1765885 80.3399274,13.8103516 C80.5726187,13.2744329 81.1750421,13.1831321 81.6125991,12.8935534 C81.6468593,12.8675413 81.6797283,12.8399787 81.7115538,12.8112104 C82.0331129,12.6465243 82.1576323,12.3238706 82.3863237,12.0844213 C82.4012799,12.0330861 82.4560615,12.021372 82.4925826,11.9917423 C82.6835355,11.7028527 82.9937905,11.7267976 83.2986544,11.7093988 C83.4875204,11.6987183 83.6720387,11.8177539 83.8593395,11.7169785 C84.203333,11.4601303 84.6328902,11.5719307 85.0161873,11.4847643 C85.4607007,11.586401 85.3306162,11.9774442 85.3713111,12.2203389 C85.4624398,12.7650432 85.4144407,12.7727951 85.9883429,12.6089704 C86.0622546,12.5877817 86.1492095,12.5957059 86.2071214,12.5333457 C86.3453797,12.3783066 86.4578993,12.0976857 86.7001557,12.4449734 C86.3130325,12.7607365 86.3905963,13.3090583 86.015299,13.6306784 L86.015125,13.6294726 C85.9579087,13.7157777 85.8542585,13.7727977 85.7911293,13.9252528 C86.3431189,13.8677161 86.4458996,14.343514 86.765024,14.5607411 C86.828675,14.6038075 86.8392835,14.7042384 86.7869366,14.7705607 C86.5057245,15.1269785 86.3900745,15.5578151 86.207991,15.9180228 C86.3445102,15.8122516 86.4518125,15.6051882 86.6850255,15.5469624 C86.8455442,15.5068245 87.0084977,15.4849467 86.8994563,15.7290473 C86.8380661,15.8144911 86.7768499,15.8997626 86.6664172,16.0534236 C87.3827515,15.8765067 87.9679579,15.5962304 88.5811638,15.3883056 C90.2931316,14.8081147 91.8118857,13.8704723 93.4391594,13.1371371 C95.2770379,12.3087112 97.063613,11.3753755 98.9840987,10.7080181 C99.3327878,10.586743 99.6597381,10.4117211 99.9967753,10.2615053 C100.10773,10.1874311 100.18112,10.2251573 100.232423,10.3295503 C100.149642,10.6179231 99.8503433,10.6430739 99.627217,10.7607314 C98.6006276,11.3044021 97.5225609,11.7474695 96.4561462,12.2134483 C97.5199523,11.7543601 98.5948886,11.3166329 99.6160868,10.7726178 C100.31503,10.4239519 101.005104,10.0599544 101.722308,9.7440191 C101.912044,9.66029795 102.092214,9.55383773 102.306993,9.5288592 C102.52038,9.53109866 102.703681,9.44238181 102.888373,9.35866066 C103.086109,9.24341489 103.302452,9.16692891 103.520361,9.09354371 C104.948682,8.50990743 106.370569,7.91317895 107.779238,7.28940475 C108.073319,7.15934413 108.329836,6.97381394 108.598005,6.80551032 C109.869285,5.9174805 111.24526,5.18276717 112.610973,4.43323899 C112.770274,4.42221399 112.936184,4.43806243 113.072008,4.33315261 C113.431305,4.05511572 113.855297,3.85356482 114.175291,3.52884393 C114.983102,2.8856037 115.922737,2.44133039 116.866719,2.00928795 C118.081827,1.45355871 119.366324,1.03116315 120.502303,0.323495542 C121.042988,-0.0132839544 121.630456,-0.0849464969 122.237227,0.195674373 C122.387833,0.265269726 122.522091,0.169489982 122.652523,0.12762941 C123.302424,-0.0818457138 123.887978,-0.0832238396 124.328666,0.507303073 C124.370578,0.563633966 124.465185,0.586200776 124.535097,0.624443767 C124.571792,0.647527375 124.58953,0.6795688 124.588487,0.71987898 C124.544662,1.11264484 124.911437,1.12108586 125.15665,1.24115507 C125.508817,1.10833819 125.413167,0.923152538 125.209171,0.751920405 C125.099608,0.659930507 124.964132,0.598776174 125.051957,0.434606936 C125.13752,0.274744341 125.286387,0.32883578 125.423602,0.347957275 C125.636293,0.572936315 125.995591,0.71143796 125.923418,1.10506515 C125.908984,1.18310152 125.991069,1.25769258 126.076111,1.24597851 C126.72636,1.15674486 126.892791,1.67009673 127.199568,2.0115274 C127.28061,2.10145011 127.381826,2.17569664 127.473824,2.25735059 C127.567735,2.51540465 127.393478,2.70661961 127.286001,2.91471661 C127.21922,3.15003159 127.161134,3.38517431 127.280958,3.62169515 L127.281654,3.62169515 C127.570866,3.83513239 127.684603,4.10369466 127.578344,4.44116322 C127.559735,4.76708997 127.298697,5.08164719 127.564953,5.42548958 C127.641299,5.52419784 127.559388,5.69956435 127.467911,5.8079195 C127.141656,6.19448379 127.018876,6.68664697 126.726186,7.07992963 C126.062198,7.97157703 125.785334,9.0458261 125.080478,9.92196959 C124.129191,11.1044015 123.386249,12.44015 122.216184,13.4599631 C120.888904,14.6167275 119.467366,15.6806406 118.154695,16.8508417 C117.336971,17.5798702 116.40551,18.2747902 115.871607,19.1936556 C115.241532,20.277896 114.243986,20.9958996 113.393219,21.8634298 C112.118982,23.1628302 110.59188,24.1697234 109.076605,25.2029732 C107.563242,26.2348449 106.082052,27.3165014 104.898422,28.7020346 C104.547646,29.1123716 104.132176,29.4763691 103.730618,29.8469127 C103.547839,30.0157331 103.49671,30.1327015 103.706793,30.3273618 C104.091829,30.6841241 104.388867,31.088604 104.204174,31.6407157 C104.207653,31.9149627 103.963309,31.8584595 103.709749,31.893774 C103.731662,31.8967025 103.816182,31.965092 103.797747,31.9070385 C104.015656,31.893774 104.192696,31.9189248 104.108872,32.1912769 L104.109568,32.1898988 C104.03183,32.2434734 104.061916,32.4126384 103.959483,32.3928278 C103.71514,32.3457993 103.867485,32.4043696 103.913571,32.4808556 C103.977918,32.5874881 103.838616,32.7063515 103.904528,32.824009 C103.912006,32.8968774 103.917571,32.9706071 104.005917,33.0038544 C104.123828,32.9557922 104.249217,32.8903313 104.372519,32.9085914 C104.845554,32.9785313 105.258416,32.8179796 105.671451,32.6460585 C106.692302,32.1592355 107.547764,31.4629374 108.412791,30.7778366 C109.130343,30.209532 109.872937,29.6717184 110.7084,29.2575916 C110.84718,29.1888576 110.982656,29.0996239 111.284215,29.1104767 C110.740747,29.5158179 110.278843,29.8603494 109.773809,30.2369223 C110.20267,30.3370086 110.432579,30.0246909 110.749617,30.0010905 C110.907353,29.8691349 111.100045,29.7761114 111.288737,29.710995 C111.518993,29.6314082 111.378127,29.5490652 111.338997,29.4565585 C111.937247,28.9836891 112.595321,28.596608 113.297395,28.2725762 C113.325394,28.2357113 113.354959,28.1885105 113.399654,28.1800695 C114.739629,27.928217 115.91752,27.3028924 117.136627,26.7742089 C117.636444,26.5574986 118.032088,26.1835097 118.515732,25.9390646 C118.746684,25.8436294 118.904942,25.688418 118.973288,25.4587878 C119.650319,25.1454364 120.208569,24.6234713 120.968903,24.4601634 C121.219855,24.4062442 121.559848,24.1240729 121.658977,24.6470717 C121.680716,24.7616284 121.827148,24.6703276 121.904016,24.6339795 C122.398615,24.400904 122.906258,24.4153743 123.421205,24.5557708 C123.625375,24.6114127 123.837371,24.6885877 124.041715,24.6219209 C124.301188,24.5373384 124.517706,24.5995263 124.637877,24.7903968 C124.745701,24.9618012 124.653877,25.1705872 124.545357,25.340269 C124.457707,25.4772202 124.291971,25.5764453 124.325188,25.7795466 C124.486228,25.8320876 124.62866,25.78437 124.767614,25.7054723 C125.171085,25.4768757 125.558904,25.6610278 125.874898,25.8365665 C126.088285,25.9549131 125.965678,26.2674031 125.870724,26.4830798 C125.83142,26.5723134 125.669858,26.6338123 125.759421,26.7490581 C125.863767,26.8829086 125.996461,26.7621503 126.114893,26.7385499 C126.241325,26.7133991 126.36428,26.6606858 126.491234,26.6522447 C126.661318,26.6410475 126.757838,26.6923827 126.717838,26.895484 C126.593667,27.5261488 126.71923,28.1662882 126.525494,28.8174527 C126.428626,29.1435517 126.606536,29.5514769 126.211587,29.8236568 C126.189326,29.850358 126.180979,29.8794709 126.198891,29.9025545 C126.275412,30.001435 126.362888,29.9414865 126.450191,29.9175416 C126.59158,29.8787818 126.75662,29.7718048 126.818358,30.0107374 C126.621492,30.297043 126.249151,30.3292567 125.970896,30.5283959 C126.350889,30.415045 126.694187,30.2631067 127.016789,30.0689632 C127.219742,29.9468268 127.434173,29.8527697 127.677298,29.825724 C129.35518,29.2484615 131.034627,28.6749889 132.602075,27.8610334 C132.549729,27.7485438 132.478252,27.744754 132.391471,27.7695603 C132.318776,27.7902321 132.243821,27.8034966 132.16104,27.7950556 C132.577032,27.4839437 133.032502,27.2653385 133.546753,27.1285595 C135.129506,26.7078866 136.565479,25.9469889 138.092233,25.4019401 C139.454816,24.9152894 140.65775,24.1998699 141.853554,23.4544761 C141.972682,23.3879815 142.052159,23.3952166 142.053202,23.5478441 C141.87564,23.7206266 141.590254,23.7576637 141.402606,24.0141674 C141.916683,23.8593005 142.388152,23.7540462 142.800666,23.4825554 C143.110574,23.278765 143.419959,23.1180411 143.862038,23.1981446 C144.152989,23.2510302 144.477678,23.0679118 144.754891,22.9002972 C145.256099,22.5976263 145.757306,22.2918547 146.328252,22.1094253 C146.44825,22.07101 146.604247,22.00486 146.699028,22.0443088 C147.276408,22.284964 147.885962,22.3369883 148.503342,22.3623113 C148.799858,22.4530954 148.822466,22.6257056 148.667339,22.8470671 C148.509255,23.0725629 148.310476,23.2718744 148.099002,23.5340628 C148.408909,23.5440542 148.641078,23.735786 148.896552,23.5462937 C149.87862,23.2198501 150.49687,23.5452601 150.646084,24.5061583 C150.678779,24.7170116 150.906949,24.7698971 150.936687,25.0167539 C150.960861,25.219683 151.037903,25.4460401 150.977208,25.6458684 C150.81269,26.189539 150.880862,26.7550874 150.758778,27.3015143 C150.727648,27.441394 150.710257,27.5786898 150.584172,27.6589657 C149.864708,28.116848 149.488715,28.8431203 148.972203,29.4558695 C147.900571,30.7263292 146.648768,31.8260736 145.30688,32.8329668 C144.091425,33.7447693 143.065357,34.8295265 141.945204,35.828151 C140.45845,37.1537357 138.965086,38.4757029 137.337639,39.6555509 C135.395588,41.0633064 133.654925,42.6674449 131.931305,44.2994904 C130.740371,45.4271418 129.443352,46.46711 128.101464,47.4466129 C127.636604,47.7859764 127.235394,48.1818431 126.856792,48.5909742 C126.544798,48.9280982 126.200109,49.2142316 125.820812,49.473836 C125.063087,49.9916668 124.456142,50.6624695 123.78085,51.2607484 C122.084882,52.7632501 120.302828,54.164804 118.47608,55.5251865 C116.877849,56.7155426 115.182577,57.7735987 113.498435,58.8502595 C113.005922,59.1651613 112.607321,59.6144303 112.099504,59.9002191 C110.755182,60.6564657 109.55103,61.6121959 108.135753,62.2685284 C107.726717,62.4581929 107.299942,62.5985895 106.889689,62.7796408 C105.394065,63.439763 103.992178,64.2590588 102.542119,64.9963561 C102.016216,65.2638848 101.499704,65.5302076 100.913106,65.6904148 C100.373464,65.8378742 99.8553866,66.0912771 99.3713957,66.3488144 C98.6011493,66.7586345 97.7907298,67.0342597 96.9530064,67.267163 C96.051806,67.5174651 95.2043436,67.9338313 94.2767089,68.0893873 C92.6703043,68.3588109 91.2242445,69.0911125 89.644622,69.425308 C89.3018459,69.4978319 88.9422005,69.5009326 88.5902071,69.5345245 C88.3959499,69.5529569 88.2070838,69.5820698 88.0495216,69.712475 C88.2251705,69.8504598 88.3818632,69.6365058 88.6529885,69.7407265 C87.9305673,69.9334919 87.3032747,70.1486518 86.6558087,70.2651034 C84.4970666,70.6527013 82.4699743,71.3755283 80.4362734,72.13901 C78.7646526,72.766574 77.0359895,73.2947408 75.2725444,73.7114515 C74.2723892,73.9479724 73.280234,74.2539163 72.2943395,74.5560704 C70.851584,74.9982765 69.3554382,75.1364336 67.8615532,75.3247201 C66.2191493,75.5319558 64.6017884,75.3522826 62.975732,75.2192935 C62.403221,75.1724372 61.9042739,74.9002573 61.3573277,74.7701967 C61.0390728,74.6945721 60.6881228,74.6547787 60.4049977,74.4568454 C60.265696,74.3591707 60.1667413,74.4825129 60.0616998,74.5462513 C58.2257343,75.6575375 56.3337699,76.6844135 54.5019782,77.8044852 C53.1792205,78.6131005 52.0176771,79.5789945 50.8272647,80.5261114 C49.9839762,81.1970865 49.0210378,81.6820145 48.056882,82.1907152 C46.8725564,82.8153507 45.6797093,83.4282722 44.4971228,84.0572143 C43.2296684,84.7314624 42.0580382,85.5529976 40.7551062,86.1764273 C39.5459115,86.7552401 38.2495881,87.0859903 36.9414388,87.3921065 C36.4431872,87.5089027 36.0583249,87.2477479 35.6819842,87.0455079 C35.2609486,86.819323 34.9070422,86.4680732 34.3613133,86.7280222 C34.3340095,86.7412866 34.2889669,86.7536897 34.2679238,86.7418034 C33.9441038,86.5624748 33.7555856,86.2458504 33.3408108,86.1290542 C32.8789064,85.9988213 33.0345557,85.5788375 33.0954241,85.2298271 C33.153336,84.8985601 33.1385537,84.5612638 32.8192554,84.3171633 C32.7841256,84.2606601 32.816125,84.1986445 32.8042991,84.1421413 C32.6502151,83.412596 32.7575174,83.5314593 32.1232684,83.8990744 C32.0272702,83.5237074 32.2107451,83.1964025 32.2284839,82.8627238 C32.507609,82.3827915 32.3865678,81.8384318 32.5136959,81.3340377 C32.6749102,80.6945873 33.1269018,80.2267136 33.5905452,79.7665919 C34.3861824,79.3545322 34.851565,78.6342892 35.4522493,78.040317 C36.6661396,77.0029328 37.5028195,75.674764 38.5765385,74.5290247 C38.7116663,74.3848383 38.8208817,74.2155011 38.8487072,73.9503841 C37.8982903,74.3465953 36.9045699,74.4676981 35.9499791,74.7240295 C35.1035603,74.9509035 34.252098,75.0596031 33.3743754,74.9621007 C33.2778554,74.951248 33.1778573,74.9433238 33.0822069,74.9546933 C31.9373589,75.0888883 30.8862482,74.6676986 29.7961817,74.4785508 C29.7492261,74.4702821 29.6958358,74.4573621 29.6608799,74.4297996 C28.8316781,73.7732949 27.8750005,73.261838 27.1384926,72.4987008 C26.8784975,72.2292772 26.8725845,71.8961153 26.796586,71.5757011 C26.5866769,70.6916334 26.6369368,69.844086 27.1713615,69.0551089 C27.3560537,68.7824123 27.4245742,68.4852539 27.453791,68.1565709 C27.5054422,67.5743128 27.8544791,67.0781875 28.1195176,66.5608735 C28.1609081,66.4799086 28.1861251,66.3920531 28.2188201,66.3072983 C28.3996863,66.2318459 28.4261205,66.0154802 28.6068128,65.9398555 C28.6215951,65.8973059 28.621943,65.8361516 28.6535945,65.8147906 C29.1257596,65.4942041 29.3742766,65.0564769 29.6193155,64.5605239 C30.0474814,63.6940273 30.7403379,62.9725784 31.5598008,62.3898034 C32.8569938,61.4671482 34.182708,60.5794629 35.5475519,59.7443187 C35.7275485,59.5782545 35.8511984,59.3665399 36.0451078,59.2118453 C36.3211026,59.0257983 36.5487505,58.7963404 36.8414406,58.4688632 C35.9447618,58.5145136 35.1432117,58.5227824 34.3500092,58.6020246 C32.5994334,58.7768743 30.8829439,59.1934129 29.1212379,59.2835078 C28.1840381,59.3313977 27.2414472,59.3055579 26.3016387,59.2902262 C25.850169,59.282991 25.4380028,59.3586157 25.0324452,59.548108 C24.680104,59.712794 24.3428929,59.8566359 23.8969883,59.6409592 C23.5651684,59.4805798 23.167089,59.7655073 22.7841396,59.7966874 C22.5505788,59.8158089 22.359452,59.8431992 22.1394561,59.72313 C20.9045228,59.0493987 19.5252444,58.9200272 18.1364009,58.8468142 C16.8861635,58.7808364 15.6714038,58.5224379 14.4486441,58.2976311 C13.394577,58.1038321 12.3674659,57.8412992 11.3864408,57.4306177 C11.2695735,57.3816942 11.1768795,57.4083954 11.068012,57.464554 C9.79342729,58.1229536 8.48579969,58.7346692 7.45277563,59.7260585 C7.28512661,59.8869547 7.14130323,60.0711067 6.96148052,60.2182217 C6.38531744,60.6890239 5.73819916,61.0165011 4.94082285,60.969817 C4.74134834,60.9582752 4.56622119,60.9744682 4.37839864,61.0478534 C4.14692473,61.1382929 3.93040706,61.0383788 3.76675796,60.8814447 C3.57250074,60.6953977 3.84066961,60.5951391 3.88553834,60.4525031 C3.91127698,60.3710214 4.03666593,60.3269213 3.98779728,60.2049572 C3.78936623,60.1131396 3.65302097,60.2531916 3.52241473,60.345526 C2.82538435,60.8380338 2.06887683,60.7036665 1.70297066,59.9723985 C1.57497307,59.7169284 1.43184533,59.629762 1.15793743,59.6669713 C0.883159986,59.7041807 0.693250512,59.5350158 0.509427881,59.3989259 C0.182303595,59.1568925 0.704206828,59.0883308 0.643512317,58.8640408 C0.188042617,58.899183 0.191172993,58.6354442 0.0772620907,58.2805768 C-0.150733624,57.570842 0.176564572,57.0137346 0.403864647,56.4194179 C0.475863294,56.2309592 0.555513971,56.0580044 0.536731715,55.8583484 C0.515340813,55.632508 0.631686452,55.484015 0.832726152,55.3791051 C0.998809987,55.136555 1.31010848,55.1468909 1.54593014,55.0257881 C1.789056,54.9008955 1.99653036,54.7305247 2.21930878,54.5797922 C2.4206963,54.4631683 2.45669563,54.2612728 2.51999879,54.07402 C2.53617239,54.0397391 2.55982412,54.0094203 2.58556277,53.9847863 C2.60417112,53.9680766 2.62643157,53.9551566 2.64903984,53.9479215 C2.6126927,53.9201867 2.57043262,53.9350015 2.52817254,53.9337957 C2.43652209,53.9322453 2.36243653,53.8995148 2.30226375,53.838705 C2.28643796,53.3513653 2.74416848,53.1840952 3.05598871,52.9630783 C3.76345367,52.4612682 4.51909164,52.0171672 5.26481676,51.5634193 C5.42637894,51.4650555 5.50063841,51.371343 5.54220285,51.1847792 C5.87263142,49.7026049 6.03993262,48.1735743 6.83191774,46.8133641 C7.1319121,46.2984619 7.35869045,45.741699 7.76929142,45.2843335 C8.2065006,45.0171494 8.46145233,44.6190433 8.6744918,44.1914798 C8.82196729,44.0286886 8.74683827,43.8345452 8.76127278,43.6533216 C9.65186473,42.2829478 10.94471,41.2293706 12.0387764,40.0198929 C13.1337123,38.8095539 14.431601,37.8200596 15.6874035,36.778541 C16.2315671,36.3272048 16.7301665,35.8310795 17.286156,35.3888734 C18.5774361,34.3618251 19.8346299,33.2972229 21.131475,32.2765485 C22.2987575,31.3576831 23.6476017,30.6889475 24.9585335,29.9705994 C25.2642669,29.8031572 25.5665221,29.6300301 25.8701686,29.459487 C26.3932892,29.4753355 26.6837185,29.0823974 27.074146,28.8655148 C27.1710137,28.7685292 27.3177936,28.7854112 27.432574,28.7290804 C27.6847432,28.6469096 27.8850872,28.4830849 28.0673447,28.3183989 C28.8255913,27.6345039 29.782269,27.2355365 30.6499048,26.7082311 C31.1052006,26.4315723 31.4884978,26.0513819 31.8999683,25.7132243 C32.2394402,25.4344983 32.5973465,25.1817845 33.0034258,24.9917754 C33.2804641,25.0630934 33.1463796,25.2048681 33.045512,25.3016814 C32.7990818,25.53803 32.5439562,25.7692106 32.1672676,25.9623205 C32.6825623,25.729245 32.9585571,25.3108115 33.3994184,25.094618 C33.8484534,24.841732 34.2515763,24.5147716 34.7621754,24.360766 C35.0710391,24.0417299 35.5931163,23.9249338 35.7484177,23.4605054 C35.9729352,23.3356127 36.1976266,23.2105478 36.4221442,23.0856551 C36.709617,22.9197632 37.002655,22.7638628 37.310997,22.6336299 C38.8457508,21.9244119 39.9299043,20.6777248 41.2811833,19.759893 C42.515247,18.9218202 43.4301864,17.7516192 44.7541615,17.0294812 C45.3772802,16.6896009 46.1348312,16.5666032 46.6562127,16.0670326 C47.3320261,15.4198303 48.1697494,14.9862374 48.9676475,14.5018262 C49.3582488,14.2647886 49.7978928,14.0978631 50.2152762,13.8990684 C50.4029249,13.7369664 50.5672696,13.5566042 50.7114408,13.360049" id="Fill-366" fill="#FFC6C4" opacity="0.689941406"></path>
                    <path d="M93.5776874,74.8941594 C93.4026039,75.7389232 91.5772988,77.1068837 89.7576239,76.7102105 C87.9379489,76.3135373 88.2370908,75.2568183 87.8117647,73.6372387 C87.5658137,72.700693 88.4047764,71.6817597 89.1607186,71.2825073 C89.8516514,70.9175898 90.114251,70.6074385 90.9832086,70.7968636 C94.2780215,71.515104 93.752771,74.0493955 93.5776874,74.8941594 Z M85.4271699,67.8198348 C85.2520864,68.6645987 84.075401,71.0568831 82.2557261,70.6602099 C80.4360511,70.2635367 80.7834031,69.4563259 80.1347834,68.4320019 C79.6117456,67.6060016 80.7277951,66.4765229 81.4837372,66.0772705 C82.17467,65.712353 82.4372696,65.4022017 83.3062273,65.5916269 C85.637054,66.0997267 85.6022535,66.975071 85.4271699,67.8198348 Z M90.7962828,62.6836079 C90.4211038,64.4938161 88.4857639,64.071929 88.0246057,63.9714005 C87.5634476,63.8708721 86.78765,63.5310416 86.51261,62.3804694 C86.353564,61.7151341 87.1488139,60.3993842 87.6633271,60.108657 C88.1335932,59.8429318 88.3136683,59.6197611 88.9000234,59.7475813 C90.4728182,60.0904368 91.1714618,60.8733997 90.7962828,62.6836079 Z" id="Combined-Shape" fill="#08242A" fill-rule="nonzero"></path>
                </g>
            </g>
        </g>
    </g>
</svg>