<?xml version="1.0" encoding="UTF-8"?>
<svg width="163px" height="159px" viewBox="0 0 163 159" version="1.1" xmlns="http://www.w3.org/2000/svg" xmlns:xlink="http://www.w3.org/1999/xlink">
    <!-- Generator: Sketch 52.6 (67491) - http://www.bohemiancoding.com/sketch -->
    <title>Group 37</title>
    <desc>Created with Sketch.</desc>
    <g id="Page-1" stroke="none" stroke-width="1" fill="none" fill-rule="evenodd">
        <g id="Landing-page-1st-draft-Copy" transform="translate(-280.000000, -915.000000)">
            <g id="Group-23" transform="translate(280.000000, 840.000000)">
                <g id="Group-37" transform="translate(0.000000, 75.000000)">
                    <circle id="Oval" fill="#FFEB4F" fill-rule="nonzero" opacity="0.494884673" cx="37" cy="37" r="37"></circle>
                    <path d="M40.5,38 C39.6715729,38 39,37.3284271 39,36.5 C39,35.6715729 39.6715729,35 40.5,35 C41.3284271,35 42,35.6715729 42,36.5 C42,37.3284271 41.3284271,38 40.5,38 Z M50.5,38 C49.6715729,38 49,37.3284271 49,36.5 C49,35.6715729 49.6715729,35 50.5,35 C51.3284271,35 52,35.6715729 52,36.5 C52,37.3284271 51.3284271,38 50.5,38 Z M62.5,38 C61.6715729,38 61,37.3284271 61,36.5 C61,35.6715729 61.6715729,35 62.5,35 C63.3284271,35 64,35.6715729 64,36.5 C64,37.3284271 63.3284271,38 62.5,38 Z M73.5,38 C72.6715729,38 72,37.3284271 72,36.5 C72,35.6715729 72.6715729,35 73.5,35 C74.3284271,35 75,35.6715729 75,36.5 C75,37.3284271 74.3284271,38 73.5,38 Z M83.5,38 C82.6715729,38 82,37.3284271 82,36.5 C82,35.6715729 82.6715729,35 83.5,35 C84.3284271,35 85,35.6715729 85,36.5 C85,37.3284271 84.3284271,38 83.5,38 Z M95.5,38 C94.6715729,38 94,37.3284271 94,36.5 C94,35.6715729 94.6715729,35 95.5,35 C96.3284271,35 97,35.6715729 97,36.5 C97,37.3284271 96.3284271,38 95.5,38 Z M106.5,38 C105.671573,38 105,37.3284271 105,36.5 C105,35.6715729 105.671573,35 106.5,35 C107.328427,35 108,35.6715729 108,36.5 C108,37.3284271 107.328427,38 106.5,38 Z M118.5,38 C117.671573,38 117,37.3284271 117,36.5 C117,35.6715729 117.671573,35 118.5,35 C119.328427,35 120,35.6715729 120,36.5 C120,37.3284271 119.328427,38 118.5,38 Z M128.5,38 C127.671573,38 127,37.3284271 127,36.5 C127,35.6715729 127.671573,35 128.5,35 C129.328427,35 130,35.6715729 130,36.5 C130,37.3284271 129.328427,38 128.5,38 Z M139.5,38 C138.671573,38 138,37.3284271 138,36.5 C138,35.6715729 138.671573,35 139.5,35 C140.328427,35 141,35.6715729 141,36.5 C141,37.3284271 140.328427,38 139.5,38 Z M151.5,38 C150.671573,38 150,37.3284271 150,36.5 C150,35.6715729 150.671573,35 151.5,35 C152.328427,35 153,35.6715729 153,36.5 C153,37.3284271 152.328427,38 151.5,38 Z M161.5,38 C160.671573,38 160,37.3284271 160,36.5 C160,35.6715729 160.671573,35 161.5,35 C162.328427,35 163,35.6715729 163,36.5 C163,37.3284271 162.328427,38 161.5,38 Z M40.5,48 C39.6715729,48 39,47.3284271 39,46.5 C39,45.6715729 39.6715729,45 40.5,45 C41.3284271,45 42,45.6715729 42,46.5 C42,47.3284271 41.3284271,48 40.5,48 Z M50.5,48 C49.6715729,48 49,47.3284271 49,46.5 C49,45.6715729 49.6715729,45 50.5,45 C51.3284271,45 52,45.6715729 52,46.5 C52,47.3284271 51.3284271,48 50.5,48 Z M62.5,48 C61.6715729,48 61,47.3284271 61,46.5 C61,45.6715729 61.6715729,45 62.5,45 C63.3284271,45 64,45.6715729 64,46.5 C64,47.3284271 63.3284271,48 62.5,48 Z M73.5,48 C72.6715729,48 72,47.3284271 72,46.5 C72,45.6715729 72.6715729,45 73.5,45 C74.3284271,45 75,45.6715729 75,46.5 C75,47.3284271 74.3284271,48 73.5,48 Z M83.5,48 C82.6715729,48 82,47.3284271 82,46.5 C82,45.6715729 82.6715729,45 83.5,45 C84.3284271,45 85,45.6715729 85,46.5 C85,47.3284271 84.3284271,48 83.5,48 Z M95.5,48 C94.6715729,48 94,47.3284271 94,46.5 C94,45.6715729 94.6715729,45 95.5,45 C96.3284271,45 97,45.6715729 97,46.5 C97,47.3284271 96.3284271,48 95.5,48 Z M106.5,48 C105.671573,48 105,47.3284271 105,46.5 C105,45.6715729 105.671573,45 106.5,45 C107.328427,45 108,45.6715729 108,46.5 C108,47.3284271 107.328427,48 106.5,48 Z M118.5,48 C117.671573,48 117,47.3284271 117,46.5 C117,45.6715729 117.671573,45 118.5,45 C119.328427,45 120,45.6715729 120,46.5 C120,47.3284271 119.328427,48 118.5,48 Z M128.5,48 C127.671573,48 127,47.3284271 127,46.5 C127,45.6715729 127.671573,45 128.5,45 C129.328427,45 130,45.6715729 130,46.5 C130,47.3284271 129.328427,48 128.5,48 Z M139.5,48 C138.671573,48 138,47.3284271 138,46.5 C138,45.6715729 138.671573,45 139.5,45 C140.328427,45 141,45.6715729 141,46.5 C141,47.3284271 140.328427,48 139.5,48 Z M151.5,48 C150.671573,48 150,47.3284271 150,46.5 C150,45.6715729 150.671573,45 151.5,45 C152.328427,45 153,45.6715729 153,46.5 C153,47.3284271 152.328427,48 151.5,48 Z M161.5,48 C160.671573,48 160,47.3284271 160,46.5 C160,45.6715729 160.671573,45 161.5,45 C162.328427,45 163,45.6715729 163,46.5 C163,47.3284271 162.328427,48 161.5,48 Z M40.5,60 C39.6715729,60 39,59.3284271 39,58.5 C39,57.6715729 39.6715729,57 40.5,57 C41.3284271,57 42,57.6715729 42,58.5 C42,59.3284271 41.3284271,60 40.5,60 Z M50.5,60 C49.6715729,60 49,59.3284271 49,58.5 C49,57.6715729 49.6715729,57 50.5,57 C51.3284271,57 52,57.6715729 52,58.5 C52,59.3284271 51.3284271,60 50.5,60 Z M62.5,60 C61.6715729,60 61,59.3284271 61,58.5 C61,57.6715729 61.6715729,57 62.5,57 C63.3284271,57 64,57.6715729 64,58.5 C64,59.3284271 63.3284271,60 62.5,60 Z M73.5,60 C72.6715729,60 72,59.3284271 72,58.5 C72,57.6715729 72.6715729,57 73.5,57 C74.3284271,57 75,57.6715729 75,58.5 C75,59.3284271 74.3284271,60 73.5,60 Z M83.5,60 C82.6715729,60 82,59.3284271 82,58.5 C82,57.6715729 82.6715729,57 83.5,57 C84.3284271,57 85,57.6715729 85,58.5 C85,59.3284271 84.3284271,60 83.5,60 Z M95.5,60 C94.6715729,60 94,59.3284271 94,58.5 C94,57.6715729 94.6715729,57 95.5,57 C96.3284271,57 97,57.6715729 97,58.5 C97,59.3284271 96.3284271,60 95.5,60 Z M106.5,60 C105.671573,60 105,59.3284271 105,58.5 C105,57.6715729 105.671573,57 106.5,57 C107.328427,57 108,57.6715729 108,58.5 C108,59.3284271 107.328427,60 106.5,60 Z M118.5,60 C117.671573,60 117,59.3284271 117,58.5 C117,57.6715729 117.671573,57 118.5,57 C119.328427,57 120,57.6715729 120,58.5 C120,59.3284271 119.328427,60 118.5,60 Z M128.5,60 C127.671573,60 127,59.3284271 127,58.5 C127,57.6715729 127.671573,57 128.5,57 C129.328427,57 130,57.6715729 130,58.5 C130,59.3284271 129.328427,60 128.5,60 Z M139.5,60 C138.671573,60 138,59.3284271 138,58.5 C138,57.6715729 138.671573,57 139.5,57 C140.328427,57 141,57.6715729 141,58.5 C141,59.3284271 140.328427,60 139.5,60 Z M151.5,60 C150.671573,60 150,59.3284271 150,58.5 C150,57.6715729 150.671573,57 151.5,57 C152.328427,57 153,57.6715729 153,58.5 C153,59.3284271 152.328427,60 151.5,60 Z M161.5,60 C160.671573,60 160,59.3284271 160,58.5 C160,57.6715729 160.671573,57 161.5,57 C162.328427,57 163,57.6715729 163,58.5 C163,59.3284271 162.328427,60 161.5,60 Z M40.5,71 C39.6715729,71 39,70.3284271 39,69.5 C39,68.6715729 39.6715729,68 40.5,68 C41.3284271,68 42,68.6715729 42,69.5 C42,70.3284271 41.3284271,71 40.5,71 Z M50.5,71 C49.6715729,71 49,70.3284271 49,69.5 C49,68.6715729 49.6715729,68 50.5,68 C51.3284271,68 52,68.6715729 52,69.5 C52,70.3284271 51.3284271,71 50.5,71 Z M62.5,71 C61.6715729,71 61,70.3284271 61,69.5 C61,68.6715729 61.6715729,68 62.5,68 C63.3284271,68 64,68.6715729 64,69.5 C64,70.3284271 63.3284271,71 62.5,71 Z M73.5,71 C72.6715729,71 72,70.3284271 72,69.5 C72,68.6715729 72.6715729,68 73.5,68 C74.3284271,68 75,68.6715729 75,69.5 C75,70.3284271 74.3284271,71 73.5,71 Z M83.5,71 C82.6715729,71 82,70.3284271 82,69.5 C82,68.6715729 82.6715729,68 83.5,68 C84.3284271,68 85,68.6715729 85,69.5 C85,70.3284271 84.3284271,71 83.5,71 Z M95.5,71 C94.6715729,71 94,70.3284271 94,69.5 C94,68.6715729 94.6715729,68 95.5,68 C96.3284271,68 97,68.6715729 97,69.5 C97,70.3284271 96.3284271,71 95.5,71 Z M106.5,71 C105.671573,71 105,70.3284271 105,69.5 C105,68.6715729 105.671573,68 106.5,68 C107.328427,68 108,68.6715729 108,69.5 C108,70.3284271 107.328427,71 106.5,71 Z M118.5,71 C117.671573,71 117,70.3284271 117,69.5 C117,68.6715729 117.671573,68 118.5,68 C119.328427,68 120,68.6715729 120,69.5 C120,70.3284271 119.328427,71 118.5,71 Z M128.5,71 C127.671573,71 127,70.3284271 127,69.5 C127,68.6715729 127.671573,68 128.5,68 C129.328427,68 130,68.6715729 130,69.5 C130,70.3284271 129.328427,71 128.5,71 Z M139.5,71 C138.671573,71 138,70.3284271 138,69.5 C138,68.6715729 138.671573,68 139.5,68 C140.328427,68 141,68.6715729 141,69.5 C141,70.3284271 140.328427,71 139.5,71 Z M151.5,71 C150.671573,71 150,70.3284271 150,69.5 C150,68.6715729 150.671573,68 151.5,68 C152.328427,68 153,68.6715729 153,69.5 C153,70.3284271 152.328427,71 151.5,71 Z M161.5,71 C160.671573,71 160,70.3284271 160,69.5 C160,68.6715729 160.671573,68 161.5,68 C162.328427,68 163,68.6715729 163,69.5 C163,70.3284271 162.328427,71 161.5,71 Z M40.5,81 C39.6715729,81 39,80.3284271 39,79.5 C39,78.6715729 39.6715729,78 40.5,78 C41.3284271,78 42,78.6715729 42,79.5 C42,80.3284271 41.3284271,81 40.5,81 Z M50.5,81 C49.6715729,81 49,80.3284271 49,79.5 C49,78.6715729 49.6715729,78 50.5,78 C51.3284271,78 52,78.6715729 52,79.5 C52,80.3284271 51.3284271,81 50.5,81 Z M62.5,81 C61.6715729,81 61,80.3284271 61,79.5 C61,78.6715729 61.6715729,78 62.5,78 C63.3284271,78 64,78.6715729 64,79.5 C64,80.3284271 63.3284271,81 62.5,81 Z M73.5,81 C72.6715729,81 72,80.3284271 72,79.5 C72,78.6715729 72.6715729,78 73.5,78 C74.3284271,78 75,78.6715729 75,79.5 C75,80.3284271 74.3284271,81 73.5,81 Z M83.5,81 C82.6715729,81 82,80.3284271 82,79.5 C82,78.6715729 82.6715729,78 83.5,78 C84.3284271,78 85,78.6715729 85,79.5 C85,80.3284271 84.3284271,81 83.5,81 Z M95.5,81 C94.6715729,81 94,80.3284271 94,79.5 C94,78.6715729 94.6715729,78 95.5,78 C96.3284271,78 97,78.6715729 97,79.5 C97,80.3284271 96.3284271,81 95.5,81 Z M106.5,81 C105.671573,81 105,80.3284271 105,79.5 C105,78.6715729 105.671573,78 106.5,78 C107.328427,78 108,78.6715729 108,79.5 C108,80.3284271 107.328427,81 106.5,81 Z M118.5,81 C117.671573,81 117,80.3284271 117,79.5 C117,78.6715729 117.671573,78 118.5,78 C119.328427,78 120,78.6715729 120,79.5 C120,80.3284271 119.328427,81 118.5,81 Z M128.5,81 C127.671573,81 127,80.3284271 127,79.5 C127,78.6715729 127.671573,78 128.5,78 C129.328427,78 130,78.6715729 130,79.5 C130,80.3284271 129.328427,81 128.5,81 Z M139.5,81 C138.671573,81 138,80.3284271 138,79.5 C138,78.6715729 138.671573,78 139.5,78 C140.328427,78 141,78.6715729 141,79.5 C141,80.3284271 140.328427,81 139.5,81 Z M151.5,81 C150.671573,81 150,80.3284271 150,79.5 C150,78.6715729 150.671573,78 151.5,78 C152.328427,78 153,78.6715729 153,79.5 C153,80.3284271 152.328427,81 151.5,81 Z M161.5,81 C160.671573,81 160,80.3284271 160,79.5 C160,78.6715729 160.671573,78 161.5,78 C162.328427,78 163,78.6715729 163,79.5 C163,80.3284271 162.328427,81 161.5,81 Z M40.5,93 C39.6715729,93 39,92.3284271 39,91.5 C39,90.6715729 39.6715729,90 40.5,90 C41.3284271,90 42,90.6715729 42,91.5 C42,92.3284271 41.3284271,93 40.5,93 Z M50.5,93 C49.6715729,93 49,92.3284271 49,91.5 C49,90.6715729 49.6715729,90 50.5,90 C51.3284271,90 52,90.6715729 52,91.5 C52,92.3284271 51.3284271,93 50.5,93 Z M62.5,93 C61.6715729,93 61,92.3284271 61,91.5 C61,90.6715729 61.6715729,90 62.5,90 C63.3284271,90 64,90.6715729 64,91.5 C64,92.3284271 63.3284271,93 62.5,93 Z M73.5,93 C72.6715729,93 72,92.3284271 72,91.5 C72,90.6715729 72.6715729,90 73.5,90 C74.3284271,90 75,90.6715729 75,91.5 C75,92.3284271 74.3284271,93 73.5,93 Z M83.5,93 C82.6715729,93 82,92.3284271 82,91.5 C82,90.6715729 82.6715729,90 83.5,90 C84.3284271,90 85,90.6715729 85,91.5 C85,92.3284271 84.3284271,93 83.5,93 Z M40.5,104 C39.6715729,104 39,103.328427 39,102.5 C39,101.671573 39.6715729,101 40.5,101 C41.3284271,101 42,101.671573 42,102.5 C42,103.328427 41.3284271,104 40.5,104 Z M50.5,104 C49.6715729,104 49,103.328427 49,102.5 C49,101.671573 49.6715729,101 50.5,101 C51.3284271,101 52,101.671573 52,102.5 C52,103.328427 51.3284271,104 50.5,104 Z M62.5,104 C61.6715729,104 61,103.328427 61,102.5 C61,101.671573 61.6715729,101 62.5,101 C63.3284271,101 64,101.671573 64,102.5 C64,103.328427 63.3284271,104 62.5,104 Z M73.5,104 C72.6715729,104 72,103.328427 72,102.5 C72,101.671573 72.6715729,101 73.5,101 C74.3284271,101 75,101.671573 75,102.5 C75,103.328427 74.3284271,104 73.5,104 Z M83.5,104 C82.6715729,104 82,103.328427 82,102.5 C82,101.671573 82.6715729,101 83.5,101 C84.3284271,101 85,101.671573 85,102.5 C85,103.328427 84.3284271,104 83.5,104 Z M40.5,116 C39.6715729,116 39,115.328427 39,114.5 C39,113.671573 39.6715729,113 40.5,113 C41.3284271,113 42,113.671573 42,114.5 C42,115.328427 41.3284271,116 40.5,116 Z M50.5,116 C49.6715729,116 49,115.328427 49,114.5 C49,113.671573 49.6715729,113 50.5,113 C51.3284271,113 52,113.671573 52,114.5 C52,115.328427 51.3284271,116 50.5,116 Z M62.5,116 C61.6715729,116 61,115.328427 61,114.5 C61,113.671573 61.6715729,113 62.5,113 C63.3284271,113 64,113.671573 64,114.5 C64,115.328427 63.3284271,116 62.5,116 Z M73.5,116 C72.6715729,116 72,115.328427 72,114.5 C72,113.671573 72.6715729,113 73.5,113 C74.3284271,113 75,113.671573 75,114.5 C75,115.328427 74.3284271,116 73.5,116 Z M83.5,116 C82.6715729,116 82,115.328427 82,114.5 C82,113.671573 82.6715729,113 83.5,113 C84.3284271,113 85,113.671573 85,114.5 C85,115.328427 84.3284271,116 83.5,116 Z M40.5,126 C39.6715729,126 39,125.328427 39,124.5 C39,123.671573 39.6715729,123 40.5,123 C41.3284271,123 42,123.671573 42,124.5 C42,125.328427 41.3284271,126 40.5,126 Z M50.5,126 C49.6715729,126 49,125.328427 49,124.5 C49,123.671573 49.6715729,123 50.5,123 C51.3284271,123 52,123.671573 52,124.5 C52,125.328427 51.3284271,126 50.5,126 Z M62.5,126 C61.6715729,126 61,125.328427 61,124.5 C61,123.671573 61.6715729,123 62.5,123 C63.3284271,123 64,123.671573 64,124.5 C64,125.328427 63.3284271,126 62.5,126 Z M73.5,126 C72.6715729,126 72,125.328427 72,124.5 C72,123.671573 72.6715729,123 73.5,123 C74.3284271,123 75,123.671573 75,124.5 C75,125.328427 74.3284271,126 73.5,126 Z M83.5,126 C82.6715729,126 82,125.328427 82,124.5 C82,123.671573 82.6715729,123 83.5,123 C84.3284271,123 85,123.671573 85,124.5 C85,125.328427 84.3284271,126 83.5,126 Z M40.5,137 C39.6715729,137 39,136.328427 39,135.5 C39,134.671573 39.6715729,134 40.5,134 C41.3284271,134 42,134.671573 42,135.5 C42,136.328427 41.3284271,137 40.5,137 Z M50.5,137 C49.6715729,137 49,136.328427 49,135.5 C49,134.671573 49.6715729,134 50.5,134 C51.3284271,134 52,134.671573 52,135.5 C52,136.328427 51.3284271,137 50.5,137 Z M62.5,137 C61.6715729,137 61,136.328427 61,135.5 C61,134.671573 61.6715729,134 62.5,134 C63.3284271,134 64,134.671573 64,135.5 C64,136.328427 63.3284271,137 62.5,137 Z M73.5,137 C72.6715729,137 72,136.328427 72,135.5 C72,134.671573 72.6715729,134 73.5,134 C74.3284271,134 75,134.671573 75,135.5 C75,136.328427 74.3284271,137 73.5,137 Z M83.5,137 C82.6715729,137 82,136.328427 82,135.5 C82,134.671573 82.6715729,134 83.5,134 C84.3284271,134 85,134.671573 85,135.5 C85,136.328427 84.3284271,137 83.5,137 Z M40.5,149 C39.6715729,149 39,148.328427 39,147.5 C39,146.671573 39.6715729,146 40.5,146 C41.3284271,146 42,146.671573 42,147.5 C42,148.328427 41.3284271,149 40.5,149 Z M50.5,149 C49.6715729,149 49,148.328427 49,147.5 C49,146.671573 49.6715729,146 50.5,146 C51.3284271,146 52,146.671573 52,147.5 C52,148.328427 51.3284271,149 50.5,149 Z M62.5,149 C61.6715729,149 61,148.328427 61,147.5 C61,146.671573 61.6715729,146 62.5,146 C63.3284271,146 64,146.671573 64,147.5 C64,148.328427 63.3284271,149 62.5,149 Z M73.5,149 C72.6715729,149 72,148.328427 72,147.5 C72,146.671573 72.6715729,146 73.5,146 C74.3284271,146 75,146.671573 75,147.5 C75,148.328427 74.3284271,149 73.5,149 Z M83.5,149 C82.6715729,149 82,148.328427 82,147.5 C82,146.671573 82.6715729,146 83.5,146 C84.3284271,146 85,146.671573 85,147.5 C85,148.328427 84.3284271,149 83.5,149 Z M40.5,159 C39.6715729,159 39,158.328427 39,157.5 C39,156.671573 39.6715729,156 40.5,156 C41.3284271,156 42,156.671573 42,157.5 C42,158.328427 41.3284271,159 40.5,159 Z M50.5,159 C49.6715729,159 49,158.328427 49,157.5 C49,156.671573 49.6715729,156 50.5,156 C51.3284271,156 52,156.671573 52,157.5 C52,158.328427 51.3284271,159 50.5,159 Z M62.5,159 C61.6715729,159 61,158.328427 61,157.5 C61,156.671573 61.6715729,156 62.5,156 C63.3284271,156 64,156.671573 64,157.5 C64,158.328427 63.3284271,159 62.5,159 Z M73.5,159 C72.6715729,159 72,158.328427 72,157.5 C72,156.671573 72.6715729,156 73.5,156 C74.3284271,156 75,156.671573 75,157.5 C75,158.328427 74.3284271,159 73.5,159 Z M83.5,159 C82.6715729,159 82,158.328427 82,157.5 C82,156.671573 82.6715729,156 83.5,156 C84.3284271,156 85,156.671573 85,157.5 C85,158.328427 84.3284271,159 83.5,159 Z" id="Combined-Shape" fill="#000000"></path>
                </g>
            </g>
        </g>
    </g>
</svg>