<?xml version="1.0" encoding="UTF-8"?>
<svg width="64px" height="62px" viewBox="0 0 64 62" version="1.1" xmlns="http://www.w3.org/2000/svg" xmlns:xlink="http://www.w3.org/1999/xlink">
    <!-- Generator: Sketch 52.6 (67491) - http://www.bohemiancoding.com/sketch -->
    <title>people-ops@2x</title>
    <desc>Created with Sketch.</desc>
    <g id="Page-1" stroke="none" stroke-width="1" fill="none" fill-rule="evenodd">
        <g id="Landing-page-1st-draft-Copy" transform="translate(-544.000000, -1044.000000)">
            <g id="Group-23" transform="translate(280.000000, 840.000000)">
                <g id="Group-22" transform="translate(236.000000, 204.000000)">
                    <g id="people-ops" transform="translate(28.000000, 0.000000)">
                        <g id="Group-4" fill="#C0C6D6">
                            <path d="M27.0778605,0.499493709 C12.3760465,0.253455966 0.254930233,11.7813751 0.00502325581,26.2555654 C-0.136883721,34.4613568 3.57655814,41.8400164 9.49269767,46.7422257 C9.87948837,46.4145875 10.2913953,46.1104403 10.7522791,45.8582207 L18.7003256,41.5939787 C19.7401395,41.0339028 20.3868837,39.9619695 20.3868837,38.7886538 L20.3868837,35.5864541 C20.3868837,35.5864541 18.0573488,32.8380023 17.1694884,29.0225627 C16.4285581,28.5539783 15.9375349,27.7429192 15.9375349,26.8205867 L15.9375349,23.3092943 C15.9375349,22.5415082 16.2866512,21.850377 16.8253953,21.3681925 L16.8253953,16.2966005 C16.8253953,16.2966005 15.7717674,8.40484712 26.622,8.40484712 C37.4734884,8.40484712 36.4186047,16.2966005 36.4186047,16.2966005 L36.4186047,21.3681925 C36.9586047,21.850377 37.3064651,22.5415082 37.3064651,23.3092943 L37.3064651,26.8205867 C37.3064651,27.9988479 36.5014884,28.9891807 35.4126977,29.3217644 C34.8048837,31.1812657 33.9270698,32.9542211 32.7692093,34.5676847 C32.474093,34.9732143 32.2053488,35.3156889 31.9642326,35.5864541 L31.9642326,38.8702543 C31.9642326,40.0831338 32.656186,41.1884491 33.7550233,41.7299794 L42.2656744,45.9163302 C42.7755349,46.1673134 43.2376744,46.4813515 43.6596279,46.8349535 C49.3986977,42.125618 53.102093,35.0844876 53.2402326,27.1544068 C53.4951628,12.6802165 41.7809302,0.745531453 27.0778605,0.499493709 Z" id="Fill-3"></path>
                        </g>
                        <g id="Fill-5" transform="translate(35.000000, 33.000000)" fill="#FFA059" stroke="#FFFFFF" stroke-width="3">
                            <g id="path-1-link">
                                <path d="M27.5,13 C27.5,21.006063 21.0085767,27.5 13.0033856,27.5 C4.99259156,27.5 -1.5,21.0072309 -1.5,13 C-1.5,4.99276914 4.99259156,-1.5 13.0033856,-1.5 C21.0085767,-1.5 27.5,4.99393703 27.5,13 Z" id="path-1"></path>
                            </g>
                        </g>
                        <path d="M53.5452702,40.1817766 C53.0672817,39.8621502 52.4141625,39.9754036 52.0797022,40.4321927 L46.1858277,48.5285576 L42.7202945,46.2857143 C42.2739086,45.9321118 41.6102551,45.9950304 41.2389253,46.4228768 C40.8689121,46.8557568 40.9360675,47.4899762 41.3890373,47.8385452 L45.7328579,50.7747514 C45.9224732,50.9219809 46.1594923,51 46.4017784,51 C46.4478655,51 46.4939525,51 46.5453067,50.9962249 C46.8336799,50.955957 47.0957176,50.803694 47.2655813,50.5734119 L53.8138918,41.5823446 C54.143085,41.1255556 54.0245755,40.5014031 53.5452702,40.1817766 Z" id="Fill-6" fill="#FFFFFF"></path>
                    </g>
                </g>
            </g>
        </g>
    </g>
</svg>