<?xml version="1.0" encoding="UTF-8"?>
<svg width="141px" height="147px" viewBox="0 0 141 147" version="1.1" xmlns="http://www.w3.org/2000/svg" xmlns:xlink="http://www.w3.org/1999/xlink">
    <!-- Generator: Sketch 52.6 (67491) - http://www.bohemiancoding.com/sketch -->
    <title>Group 17</title>
    <desc>Created with Sketch.</desc>
    <g id="Page-1" stroke="none" stroke-width="1" fill="none" fill-rule="evenodd">
        <g id="Landing-page-1st-draft-Copy" transform="translate(-1409.000000, -2203.000000)" fill-rule="nonzero">
            <g id="Group-33" transform="translate(371.000000, 2181.000000)">
                <g id="Group-17" transform="translate(1038.000000, 22.000000)">
                    <path d="M9.18941592,144.002492 C-5.18699274,132.013122 -5.1869927,76.5715338 27.3398383,61.976532 C33.9315576,59.0187849 41.8641999,58.735415 47.7053051,54.3448008 C50.2713231,52.4159884 50.0007035,46.9438183 51.6206602,43.7252391 C59.3890371,28.2907918 73.8959213,17.3908184 91.762689,23.9386222 C106.461699,29.3255073 121.970908,45.8253446 134.222835,61.2476974 C151.587745,83.1061177 133.731782,122.806766 101.689437,125.329584 C63.3836659,128.345546 23.5658245,155.991863 9.18941592,144.002492 Z" id="blob" fill="#FFEB4F" opacity="0.494884673" transform="translate(70.500000, 84.500000) scale(1, -1) translate(-70.500000, -84.500000) "></path>
                    <path d="M71.898225,11.5632278 C71.7705879,12.2065651 70.4399283,13.2483473 69.1133731,12.9462574 C67.7868179,12.6441674 68.0048943,11.8394139 67.6948288,10.606009 C67.5155288,9.89277443 68.1271382,9.11679688 68.6782251,8.81274276 C69.1819198,8.53483667 69.3733567,8.29863825 70.0068326,8.44289662 C72.4087733,8.98987883 72.0258621,10.9198906 71.898225,11.5632278 Z M65.9564432,6.17571443 C65.8288061,6.81905168 64.9709946,8.6409167 63.6444394,8.33882676 C62.3178842,8.03673683 62.5711061,7.42199841 62.098258,6.64191561 C61.71696,6.01286787 62.5305675,5.15270353 63.0816544,4.84864942 C63.585349,4.57074329 63.7767859,4.3345449 64.4102618,4.47880327 C66.1094501,4.86575111 66.0840803,5.53237718 65.9564432,6.17571443 Z M69.8705624,2.26417617 C69.5970544,3.64275596 68.1861787,3.32146413 67.8499913,3.24490582 C67.5138039,3.16834751 66.9482423,2.90954667 66.7477362,2.03331838 C66.6317907,1.52662652 67.2115332,0.524605726 67.5866167,0.303199894 C67.9294439,0.100834522 68.0607198,-0.0691230647 68.4881766,0.0282195761 C69.6347546,0.289324164 70.1440704,0.885596314 69.8705624,2.26417617 Z" id="Combined-Shape" fill="#08242A"></path>
                </g>
            </g>
        </g>
    </g>
</svg>