<?xml version="1.0" encoding="UTF-8"?>
<svg width="110px" height="120px" viewBox="0 0 110 120" version="1.1" xmlns="http://www.w3.org/2000/svg" xmlns:xlink="http://www.w3.org/1999/xlink">
    <!-- Generator: Sketch 52.6 (67491) - http://www.bohemiancoding.com/sketch -->
    <title>Group 16</title>
    <desc>Created with Sketch.</desc>
    <defs>
        <circle id="path-1" cx="28" cy="28" r="28"></circle>
    </defs>
    <g id="Page-1" stroke="none" stroke-width="1" fill="none" fill-rule="evenodd">
        <g id="Landing-page-1st-draft-Copy" transform="translate(-317.000000, -1511.000000)">
            <g id="Group-16" transform="translate(316.500000, 1508.000000)">
                <ellipse id="Oval-Copy-8" fill="#FFC6C4" fill-rule="nonzero" opacity="0.689941406" cx="55.5" cy="68.5" rx="55" ry="54.5"></ellipse>
                <g id="Oval-Copy-63" transform="translate(51.500000, 0.000000)">
                    <mask id="mask-2" fill="white">
                        <use xlink:href="#path-1"></use>
                    </mask>
                    <g id="Oval-Copy-9" fill-rule="nonzero"></g>
                    <path d="M-9.95743728,-8.24820789 C-10.4718638,-8.24820789 -10.8888889,-8.66523298 -10.8888889,-9.1796595 C-10.8888889,-9.69408602 -10.4718638,-10.1111111 -9.95743728,-10.1111111 C-9.44301076,-10.1111111 -9.02598566,-9.69408602 -9.02598566,-9.1796595 C-9.02598566,-8.66523298 -9.44301076,-8.24820789 -9.95743728,-8.24820789 Z M-3.12679211,-8.24820789 C-3.64121864,-8.24820789 -4.05824373,-8.66523298 -4.05824373,-9.1796595 C-4.05824373,-9.69408602 -3.64121864,-10.1111111 -3.12679211,-10.1111111 C-2.61236559,-10.1111111 -2.1953405,-9.69408602 -2.1953405,-9.1796595 C-2.1953405,-8.66523298 -2.61236559,-8.24820789 -3.12679211,-8.24820789 Z M3.70385305,-8.24820789 C3.18942653,-8.24820789 2.77240143,-8.66523298 2.77240143,-9.1796595 C2.77240143,-9.69408602 3.18942653,-10.1111111 3.70385305,-10.1111111 C4.21827957,-10.1111111 4.63530466,-9.69408602 4.63530466,-9.1796595 C4.63530466,-8.66523298 4.21827957,-8.24820789 3.70385305,-8.24820789 Z M10.5344982,-8.24820789 C10.0200717,-8.24820789 9.60304659,-8.66523298 9.60304659,-9.1796595 C9.60304659,-9.69408602 10.0200717,-10.1111111 10.5344982,-10.1111111 C11.0489247,-10.1111111 11.4659498,-9.69408602 11.4659498,-9.1796595 C11.4659498,-8.66523298 11.0489247,-8.24820789 10.5344982,-8.24820789 Z M17.3651434,-8.24820789 C16.8507168,-8.24820789 16.4336918,-8.66523298 16.4336918,-9.1796595 C16.4336918,-9.69408602 16.8507168,-10.1111111 17.3651434,-10.1111111 C17.8795699,-10.1111111 18.296595,-9.69408602 18.296595,-9.1796595 C18.296595,-8.66523298 17.8795699,-8.24820789 17.3651434,-8.24820789 Z M24.1957885,-8.24820789 C23.681362,-8.24820789 23.2643369,-8.66523298 23.2643369,-9.1796595 C23.2643369,-9.69408602 23.681362,-10.1111111 24.1957885,-10.1111111 C24.7102151,-10.1111111 25.1272401,-9.69408602 25.1272401,-9.1796595 C25.1272401,-8.66523298 24.7102151,-8.24820789 24.1957885,-8.24820789 Z M31.0264337,-8.24820789 C30.5120072,-8.24820789 30.0949821,-8.66523298 30.0949821,-9.1796595 C30.0949821,-9.69408602 30.5120072,-10.1111111 31.0264337,-10.1111111 C31.5408602,-10.1111111 31.9578853,-9.69408602 31.9578853,-9.1796595 C31.9578853,-8.66523298 31.5408602,-8.24820789 31.0264337,-8.24820789 Z M37.8570789,-8.24820789 C37.3426523,-8.24820789 36.9256272,-8.66523298 36.9256272,-9.1796595 C36.9256272,-9.69408602 37.3426523,-10.1111111 37.8570789,-10.1111111 C38.3715054,-10.1111111 38.7885305,-9.69408602 38.7885305,-9.1796595 C38.7885305,-8.66523298 38.3715054,-8.24820789 37.8570789,-8.24820789 Z M44.687724,-8.24820789 C44.1732975,-8.24820789 43.7562724,-8.66523298 43.7562724,-9.1796595 C43.7562724,-9.69408602 44.1732975,-10.1111111 44.687724,-10.1111111 C45.2021505,-10.1111111 45.6191756,-9.69408602 45.6191756,-9.1796595 C45.6191756,-8.66523298 45.2021505,-8.24820789 44.687724,-8.24820789 Z M51.5183692,-8.24820789 C51.0039427,-8.24820789 50.5869176,-8.66523298 50.5869176,-9.1796595 C50.5869176,-9.69408602 51.0039427,-10.1111111 51.5183692,-10.1111111 C52.0327957,-10.1111111 52.4498208,-9.69408602 52.4498208,-9.1796595 C52.4498208,-8.66523298 52.0327957,-8.24820789 51.5183692,-8.24820789 Z M58.3490143,-8.24820789 C57.8345878,-8.24820789 57.4175627,-8.66523298 57.4175627,-9.1796595 C57.4175627,-9.69408602 57.8345878,-10.1111111 58.3490143,-10.1111111 C58.8634409,-10.1111111 59.2804659,-9.69408602 59.2804659,-9.1796595 C59.2804659,-8.66523298 58.8634409,-8.24820789 58.3490143,-8.24820789 Z M65.1796595,-8.24820789 C64.665233,-8.24820789 64.2482079,-8.66523298 64.2482079,-9.1796595 C64.2482079,-9.69408602 64.665233,-10.1111111 65.1796595,-10.1111111 C65.694086,-10.1111111 66.1111111,-9.69408602 66.1111111,-9.1796595 C66.1111111,-8.66523298 65.694086,-8.24820789 65.1796595,-8.24820789 Z M-9.95743728,-1.41756272 C-10.4718638,-1.41756272 -10.8888889,-1.83458782 -10.8888889,-2.34901434 C-10.8888889,-2.86344086 -10.4718638,-3.28046595 -9.95743728,-3.28046595 C-9.44301076,-3.28046595 -9.02598566,-2.86344086 -9.02598566,-2.34901434 C-9.02598566,-1.83458782 -9.44301076,-1.41756272 -9.95743728,-1.41756272 Z M-3.12679211,-1.41756272 C-3.64121864,-1.41756272 -4.05824373,-1.83458782 -4.05824373,-2.34901434 C-4.05824373,-2.86344086 -3.64121864,-3.28046595 -3.12679211,-3.28046595 C-2.61236559,-3.28046595 -2.1953405,-2.86344086 -2.1953405,-2.34901434 C-2.1953405,-1.83458782 -2.61236559,-1.41756272 -3.12679211,-1.41756272 Z M3.70385305,-1.41756272 C3.18942653,-1.41756272 2.77240143,-1.83458782 2.77240143,-2.34901434 C2.77240143,-2.86344086 3.18942653,-3.28046595 3.70385305,-3.28046595 C4.21827957,-3.28046595 4.63530466,-2.86344086 4.63530466,-2.34901434 C4.63530466,-1.83458782 4.21827957,-1.41756272 3.70385305,-1.41756272 Z M10.5344982,-1.41756272 C10.0200717,-1.41756272 9.60304659,-1.83458782 9.60304659,-2.34901434 C9.60304659,-2.86344086 10.0200717,-3.28046595 10.5344982,-3.28046595 C11.0489247,-3.28046595 11.4659498,-2.86344086 11.4659498,-2.34901434 C11.4659498,-1.83458782 11.0489247,-1.41756272 10.5344982,-1.41756272 Z M17.3651434,-1.41756272 C16.8507168,-1.41756272 16.4336918,-1.83458782 16.4336918,-2.34901434 C16.4336918,-2.86344086 16.8507168,-3.28046595 17.3651434,-3.28046595 C17.8795699,-3.28046595 18.296595,-2.86344086 18.296595,-2.34901434 C18.296595,-1.83458782 17.8795699,-1.41756272 17.3651434,-1.41756272 Z M24.1957885,-1.41756272 C23.681362,-1.41756272 23.2643369,-1.83458782 23.2643369,-2.34901434 C23.2643369,-2.86344086 23.681362,-3.28046595 24.1957885,-3.28046595 C24.7102151,-3.28046595 25.1272401,-2.86344086 25.1272401,-2.34901434 C25.1272401,-1.83458782 24.7102151,-1.41756272 24.1957885,-1.41756272 Z M31.0264337,-1.41756272 C30.5120072,-1.41756272 30.0949821,-1.83458782 30.0949821,-2.34901434 C30.0949821,-2.86344086 30.5120072,-3.28046595 31.0264337,-3.28046595 C31.5408602,-3.28046595 31.9578853,-2.86344086 31.9578853,-2.34901434 C31.9578853,-1.83458782 31.5408602,-1.41756272 31.0264337,-1.41756272 Z M37.8570789,-1.41756272 C37.3426523,-1.41756272 36.9256272,-1.83458782 36.9256272,-2.34901434 C36.9256272,-2.86344086 37.3426523,-3.28046595 37.8570789,-3.28046595 C38.3715054,-3.28046595 38.7885305,-2.86344086 38.7885305,-2.34901434 C38.7885305,-1.83458782 38.3715054,-1.41756272 37.8570789,-1.41756272 Z M44.687724,-1.41756272 C44.1732975,-1.41756272 43.7562724,-1.83458782 43.7562724,-2.34901434 C43.7562724,-2.86344086 44.1732975,-3.28046595 44.687724,-3.28046595 C45.2021505,-3.28046595 45.6191756,-2.86344086 45.6191756,-2.34901434 C45.6191756,-1.83458782 45.2021505,-1.41756272 44.687724,-1.41756272 Z M51.5183692,-1.41756272 C51.0039427,-1.41756272 50.5869176,-1.83458782 50.5869176,-2.34901434 C50.5869176,-2.86344086 51.0039427,-3.28046595 51.5183692,-3.28046595 C52.0327957,-3.28046595 52.4498208,-2.86344086 52.4498208,-2.34901434 C52.4498208,-1.83458782 52.0327957,-1.41756272 51.5183692,-1.41756272 Z M58.3490143,-1.41756272 C57.8345878,-1.41756272 57.4175627,-1.83458782 57.4175627,-2.34901434 C57.4175627,-2.86344086 57.8345878,-3.28046595 58.3490143,-3.28046595 C58.8634409,-3.28046595 59.2804659,-2.86344086 59.2804659,-2.34901434 C59.2804659,-1.83458782 58.8634409,-1.41756272 58.3490143,-1.41756272 Z M65.1796595,-1.41756272 C64.665233,-1.41756272 64.2482079,-1.83458782 64.2482079,-2.34901434 C64.2482079,-2.86344086 64.665233,-3.28046595 65.1796595,-3.28046595 C65.694086,-3.28046595 66.1111111,-2.86344086 66.1111111,-2.34901434 C66.1111111,-1.83458782 65.694086,-1.41756272 65.1796595,-1.41756272 Z M-9.95743728,5.41308244 C-10.4718638,5.41308244 -10.8888889,4.99605735 -10.8888889,4.48163082 C-10.8888889,3.9672043 -10.4718638,3.55017921 -9.95743728,3.55017921 C-9.44301076,3.55017921 -9.02598566,3.9672043 -9.02598566,4.48163082 C-9.02598566,4.99605735 -9.44301076,5.41308244 -9.95743728,5.41308244 Z M-3.12679211,5.41308244 C-3.64121864,5.41308244 -4.05824373,4.99605735 -4.05824373,4.48163082 C-4.05824373,3.9672043 -3.64121864,3.55017921 -3.12679211,3.55017921 C-2.61236559,3.55017921 -2.1953405,3.9672043 -2.1953405,4.48163082 C-2.1953405,4.99605735 -2.61236559,5.41308244 -3.12679211,5.41308244 Z M3.70385305,5.41308244 C3.18942653,5.41308244 2.77240143,4.99605735 2.77240143,4.48163082 C2.77240143,3.9672043 3.18942653,3.55017921 3.70385305,3.55017921 C4.21827957,3.55017921 4.63530466,3.9672043 4.63530466,4.48163082 C4.63530466,4.99605735 4.21827957,5.41308244 3.70385305,5.41308244 Z M10.5344982,5.41308244 C10.0200717,5.41308244 9.60304659,4.99605735 9.60304659,4.48163082 C9.60304659,3.9672043 10.0200717,3.55017921 10.5344982,3.55017921 C11.0489247,3.55017921 11.4659498,3.9672043 11.4659498,4.48163082 C11.4659498,4.99605735 11.0489247,5.41308244 10.5344982,5.41308244 Z M17.3651434,5.41308244 C16.8507168,5.41308244 16.4336918,4.99605735 16.4336918,4.48163082 C16.4336918,3.9672043 16.8507168,3.55017921 17.3651434,3.55017921 C17.8795699,3.55017921 18.296595,3.9672043 18.296595,4.48163082 C18.296595,4.99605735 17.8795699,5.41308244 17.3651434,5.41308244 Z M24.1957885,5.41308244 C23.681362,5.41308244 23.2643369,4.99605735 23.2643369,4.48163082 C23.2643369,3.9672043 23.681362,3.55017921 24.1957885,3.55017921 C24.7102151,3.55017921 25.1272401,3.9672043 25.1272401,4.48163082 C25.1272401,4.99605735 24.7102151,5.41308244 24.1957885,5.41308244 Z M31.0264337,5.41308244 C30.5120072,5.41308244 30.0949821,4.99605735 30.0949821,4.48163082 C30.0949821,3.9672043 30.5120072,3.55017921 31.0264337,3.55017921 C31.5408602,3.55017921 31.9578853,3.9672043 31.9578853,4.48163082 C31.9578853,4.99605735 31.5408602,5.41308244 31.0264337,5.41308244 Z M37.8570789,5.41308244 C37.3426523,5.41308244 36.9256272,4.99605735 36.9256272,4.48163082 C36.9256272,3.9672043 37.3426523,3.55017921 37.8570789,3.55017921 C38.3715054,3.55017921 38.7885305,3.9672043 38.7885305,4.48163082 C38.7885305,4.99605735 38.3715054,5.41308244 37.8570789,5.41308244 Z M44.687724,5.41308244 C44.1732975,5.41308244 43.7562724,4.99605735 43.7562724,4.48163082 C43.7562724,3.9672043 44.1732975,3.55017921 44.687724,3.55017921 C45.2021505,3.55017921 45.6191756,3.9672043 45.6191756,4.48163082 C45.6191756,4.99605735 45.2021505,5.41308244 44.687724,5.41308244 Z M51.5183692,5.41308244 C51.0039427,5.41308244 50.5869176,4.99605735 50.5869176,4.48163082 C50.5869176,3.9672043 51.0039427,3.55017921 51.5183692,3.55017921 C52.0327957,3.55017921 52.4498208,3.9672043 52.4498208,4.48163082 C52.4498208,4.99605735 52.0327957,5.41308244 51.5183692,5.41308244 Z M58.3490143,5.41308244 C57.8345878,5.41308244 57.4175627,4.99605735 57.4175627,4.48163082 C57.4175627,3.9672043 57.8345878,3.55017921 58.3490143,3.55017921 C58.8634409,3.55017921 59.2804659,3.9672043 59.2804659,4.48163082 C59.2804659,4.99605735 58.8634409,5.41308244 58.3490143,5.41308244 Z M65.1796595,5.41308244 C64.665233,5.41308244 64.2482079,4.99605735 64.2482079,4.48163082 C64.2482079,3.9672043 64.665233,3.55017921 65.1796595,3.55017921 C65.694086,3.55017921 66.1111111,3.9672043 66.1111111,4.48163082 C66.1111111,4.99605735 65.694086,5.41308244 65.1796595,5.41308244 Z M-9.95743728,12.2437276 C-10.4718638,12.2437276 -10.8888889,11.8267025 -10.8888889,11.312276 C-10.8888889,10.7978495 -10.4718638,10.3808244 -9.95743728,10.3808244 C-9.44301076,10.3808244 -9.02598566,10.7978495 -9.02598566,11.312276 C-9.02598566,11.8267025 -9.44301076,12.2437276 -9.95743728,12.2437276 Z M-3.12679211,12.2437276 C-3.64121864,12.2437276 -4.05824373,11.8267025 -4.05824373,11.312276 C-4.05824373,10.7978495 -3.64121864,10.3808244 -3.12679211,10.3808244 C-2.61236559,10.3808244 -2.1953405,10.7978495 -2.1953405,11.312276 C-2.1953405,11.8267025 -2.61236559,12.2437276 -3.12679211,12.2437276 Z M3.70385305,12.2437276 C3.18942653,12.2437276 2.77240143,11.8267025 2.77240143,11.312276 C2.77240143,10.7978495 3.18942653,10.3808244 3.70385305,10.3808244 C4.21827957,10.3808244 4.63530466,10.7978495 4.63530466,11.312276 C4.63530466,11.8267025 4.21827957,12.2437276 3.70385305,12.2437276 Z M10.5344982,12.2437276 C10.0200717,12.2437276 9.60304659,11.8267025 9.60304659,11.312276 C9.60304659,10.7978495 10.0200717,10.3808244 10.5344982,10.3808244 C11.0489247,10.3808244 11.4659498,10.7978495 11.4659498,11.312276 C11.4659498,11.8267025 11.0489247,12.2437276 10.5344982,12.2437276 Z M17.3651434,12.2437276 C16.8507168,12.2437276 16.4336918,11.8267025 16.4336918,11.312276 C16.4336918,10.7978495 16.8507168,10.3808244 17.3651434,10.3808244 C17.8795699,10.3808244 18.296595,10.7978495 18.296595,11.312276 C18.296595,11.8267025 17.8795699,12.2437276 17.3651434,12.2437276 Z M24.1957885,12.2437276 C23.681362,12.2437276 23.2643369,11.8267025 23.2643369,11.312276 C23.2643369,10.7978495 23.681362,10.3808244 24.1957885,10.3808244 C24.7102151,10.3808244 25.1272401,10.7978495 25.1272401,11.312276 C25.1272401,11.8267025 24.7102151,12.2437276 24.1957885,12.2437276 Z M31.0264337,12.2437276 C30.5120072,12.2437276 30.0949821,11.8267025 30.0949821,11.312276 C30.0949821,10.7978495 30.5120072,10.3808244 31.0264337,10.3808244 C31.5408602,10.3808244 31.9578853,10.7978495 31.9578853,11.312276 C31.9578853,11.8267025 31.5408602,12.2437276 31.0264337,12.2437276 Z M37.8570789,12.2437276 C37.3426523,12.2437276 36.9256272,11.8267025 36.9256272,11.312276 C36.9256272,10.7978495 37.3426523,10.3808244 37.8570789,10.3808244 C38.3715054,10.3808244 38.7885305,10.7978495 38.7885305,11.312276 C38.7885305,11.8267025 38.3715054,12.2437276 37.8570789,12.2437276 Z M44.687724,12.2437276 C44.1732975,12.2437276 43.7562724,11.8267025 43.7562724,11.312276 C43.7562724,10.7978495 44.1732975,10.3808244 44.687724,10.3808244 C45.2021505,10.3808244 45.6191756,10.7978495 45.6191756,11.312276 C45.6191756,11.8267025 45.2021505,12.2437276 44.687724,12.2437276 Z M51.5183692,12.2437276 C51.0039427,12.2437276 50.5869176,11.8267025 50.5869176,11.312276 C50.5869176,10.7978495 51.0039427,10.3808244 51.5183692,10.3808244 C52.0327957,10.3808244 52.4498208,10.7978495 52.4498208,11.312276 C52.4498208,11.8267025 52.0327957,12.2437276 51.5183692,12.2437276 Z M58.3490143,12.2437276 C57.8345878,12.2437276 57.4175627,11.8267025 57.4175627,11.312276 C57.4175627,10.7978495 57.8345878,10.3808244 58.3490143,10.3808244 C58.8634409,10.3808244 59.2804659,10.7978495 59.2804659,11.312276 C59.2804659,11.8267025 58.8634409,12.2437276 58.3490143,12.2437276 Z M65.1796595,12.2437276 C64.665233,12.2437276 64.2482079,11.8267025 64.2482079,11.312276 C64.2482079,10.7978495 64.665233,10.3808244 65.1796595,10.3808244 C65.694086,10.3808244 66.1111111,10.7978495 66.1111111,11.312276 C66.1111111,11.8267025 65.694086,12.2437276 65.1796595,12.2437276 Z M-9.95743728,19.0743728 C-10.4718638,19.0743728 -10.8888889,18.6573477 -10.8888889,18.1429211 C-10.8888889,17.6284946 -10.4718638,17.2114695 -9.95743728,17.2114695 C-9.44301076,17.2114695 -9.02598566,17.6284946 -9.02598566,18.1429211 C-9.02598566,18.6573477 -9.44301076,19.0743728 -9.95743728,19.0743728 Z M-3.12679211,19.0743728 C-3.64121864,19.0743728 -4.05824373,18.6573477 -4.05824373,18.1429211 C-4.05824373,17.6284946 -3.64121864,17.2114695 -3.12679211,17.2114695 C-2.61236559,17.2114695 -2.1953405,17.6284946 -2.1953405,18.1429211 C-2.1953405,18.6573477 -2.61236559,19.0743728 -3.12679211,19.0743728 Z M3.70385305,19.0743728 C3.18942653,19.0743728 2.77240143,18.6573477 2.77240143,18.1429211 C2.77240143,17.6284946 3.18942653,17.2114695 3.70385305,17.2114695 C4.21827957,17.2114695 4.63530466,17.6284946 4.63530466,18.1429211 C4.63530466,18.6573477 4.21827957,19.0743728 3.70385305,19.0743728 Z M10.5344982,19.0743728 C10.0200717,19.0743728 9.60304659,18.6573477 9.60304659,18.1429211 C9.60304659,17.6284946 10.0200717,17.2114695 10.5344982,17.2114695 C11.0489247,17.2114695 11.4659498,17.6284946 11.4659498,18.1429211 C11.4659498,18.6573477 11.0489247,19.0743728 10.5344982,19.0743728 Z M17.3651434,19.0743728 C16.8507168,19.0743728 16.4336918,18.6573477 16.4336918,18.1429211 C16.4336918,17.6284946 16.8507168,17.2114695 17.3651434,17.2114695 C17.8795699,17.2114695 18.296595,17.6284946 18.296595,18.1429211 C18.296595,18.6573477 17.8795699,19.0743728 17.3651434,19.0743728 Z M24.1957885,19.0743728 C23.681362,19.0743728 23.2643369,18.6573477 23.2643369,18.1429211 C23.2643369,17.6284946 23.681362,17.2114695 24.1957885,17.2114695 C24.7102151,17.2114695 25.1272401,17.6284946 25.1272401,18.1429211 C25.1272401,18.6573477 24.7102151,19.0743728 24.1957885,19.0743728 Z M31.0264337,19.0743728 C30.5120072,19.0743728 30.0949821,18.6573477 30.0949821,18.1429211 C30.0949821,17.6284946 30.5120072,17.2114695 31.0264337,17.2114695 C31.5408602,17.2114695 31.9578853,17.6284946 31.9578853,18.1429211 C31.9578853,18.6573477 31.5408602,19.0743728 31.0264337,19.0743728 Z M37.8570789,19.0743728 C37.3426523,19.0743728 36.9256272,18.6573477 36.9256272,18.1429211 C36.9256272,17.6284946 37.3426523,17.2114695 37.8570789,17.2114695 C38.3715054,17.2114695 38.7885305,17.6284946 38.7885305,18.1429211 C38.7885305,18.6573477 38.3715054,19.0743728 37.8570789,19.0743728 Z M44.687724,19.0743728 C44.1732975,19.0743728 43.7562724,18.6573477 43.7562724,18.1429211 C43.7562724,17.6284946 44.1732975,17.2114695 44.687724,17.2114695 C45.2021505,17.2114695 45.6191756,17.6284946 45.6191756,18.1429211 C45.6191756,18.6573477 45.2021505,19.0743728 44.687724,19.0743728 Z M51.5183692,19.0743728 C51.0039427,19.0743728 50.5869176,18.6573477 50.5869176,18.1429211 C50.5869176,17.6284946 51.0039427,17.2114695 51.5183692,17.2114695 C52.0327957,17.2114695 52.4498208,17.6284946 52.4498208,18.1429211 C52.4498208,18.6573477 52.0327957,19.0743728 51.5183692,19.0743728 Z M58.3490143,19.0743728 C57.8345878,19.0743728 57.4175627,18.6573477 57.4175627,18.1429211 C57.4175627,17.6284946 57.8345878,17.2114695 58.3490143,17.2114695 C58.8634409,17.2114695 59.2804659,17.6284946 59.2804659,18.1429211 C59.2804659,18.6573477 58.8634409,19.0743728 58.3490143,19.0743728 Z M65.1796595,19.0743728 C64.665233,19.0743728 64.2482079,18.6573477 64.2482079,18.1429211 C64.2482079,17.6284946 64.665233,17.2114695 65.1796595,17.2114695 C65.694086,17.2114695 66.1111111,17.6284946 66.1111111,18.1429211 C66.1111111,18.6573477 65.694086,19.0743728 65.1796595,19.0743728 Z M-9.95743728,25.9050179 C-10.4718638,25.9050179 -10.8888889,25.4879928 -10.8888889,24.9735663 C-10.8888889,24.4591398 -10.4718638,24.0421147 -9.95743728,24.0421147 C-9.44301076,24.0421147 -9.02598566,24.4591398 -9.02598566,24.9735663 C-9.02598566,25.4879928 -9.44301076,25.9050179 -9.95743728,25.9050179 Z M-3.12679211,25.9050179 C-3.64121864,25.9050179 -4.05824373,25.4879928 -4.05824373,24.9735663 C-4.05824373,24.4591398 -3.64121864,24.0421147 -3.12679211,24.0421147 C-2.61236559,24.0421147 -2.1953405,24.4591398 -2.1953405,24.9735663 C-2.1953405,25.4879928 -2.61236559,25.9050179 -3.12679211,25.9050179 Z M3.70385305,25.9050179 C3.18942653,25.9050179 2.77240143,25.4879928 2.77240143,24.9735663 C2.77240143,24.4591398 3.18942653,24.0421147 3.70385305,24.0421147 C4.21827957,24.0421147 4.63530466,24.4591398 4.63530466,24.9735663 C4.63530466,25.4879928 4.21827957,25.9050179 3.70385305,25.9050179 Z M10.5344982,25.9050179 C10.0200717,25.9050179 9.60304659,25.4879928 9.60304659,24.9735663 C9.60304659,24.4591398 10.0200717,24.0421147 10.5344982,24.0421147 C11.0489247,24.0421147 11.4659498,24.4591398 11.4659498,24.9735663 C11.4659498,25.4879928 11.0489247,25.9050179 10.5344982,25.9050179 Z M17.3651434,25.9050179 C16.8507168,25.9050179 16.4336918,25.4879928 16.4336918,24.9735663 C16.4336918,24.4591398 16.8507168,24.0421147 17.3651434,24.0421147 C17.8795699,24.0421147 18.296595,24.4591398 18.296595,24.9735663 C18.296595,25.4879928 17.8795699,25.9050179 17.3651434,25.9050179 Z M-9.95743728,32.7356631 C-10.4718638,32.7356631 -10.8888889,32.318638 -10.8888889,31.8042115 C-10.8888889,31.2897849 -10.4718638,30.8727599 -9.95743728,30.8727599 C-9.44301076,30.8727599 -9.02598566,31.2897849 -9.02598566,31.8042115 C-9.02598566,32.318638 -9.44301076,32.7356631 -9.95743728,32.7356631 Z M-3.12679211,32.7356631 C-3.64121864,32.7356631 -4.05824373,32.318638 -4.05824373,31.8042115 C-4.05824373,31.2897849 -3.64121864,30.8727599 -3.12679211,30.8727599 C-2.61236559,30.8727599 -2.1953405,31.2897849 -2.1953405,31.8042115 C-2.1953405,32.318638 -2.61236559,32.7356631 -3.12679211,32.7356631 Z M3.70385305,32.7356631 C3.18942653,32.7356631 2.77240143,32.318638 2.77240143,31.8042115 C2.77240143,31.2897849 3.18942653,30.8727599 3.70385305,30.8727599 C4.21827957,30.8727599 4.63530466,31.2897849 4.63530466,31.8042115 C4.63530466,32.318638 4.21827957,32.7356631 3.70385305,32.7356631 Z M10.5344982,32.7356631 C10.0200717,32.7356631 9.60304659,32.318638 9.60304659,31.8042115 C9.60304659,31.2897849 10.0200717,30.8727599 10.5344982,30.8727599 C11.0489247,30.8727599 11.4659498,31.2897849 11.4659498,31.8042115 C11.4659498,32.318638 11.0489247,32.7356631 10.5344982,32.7356631 Z M17.3651434,32.7356631 C16.8507168,32.7356631 16.4336918,32.318638 16.4336918,31.8042115 C16.4336918,31.2897849 16.8507168,30.8727599 17.3651434,30.8727599 C17.8795699,30.8727599 18.296595,31.2897849 18.296595,31.8042115 C18.296595,32.318638 17.8795699,32.7356631 17.3651434,32.7356631 Z M-9.95743728,39.5663082 C-10.4718638,39.5663082 -10.8888889,39.1492832 -10.8888889,38.6348566 C-10.8888889,38.1204301 -10.4718638,37.703405 -9.95743728,37.703405 C-9.44301076,37.703405 -9.02598566,38.1204301 -9.02598566,38.6348566 C-9.02598566,39.1492832 -9.44301076,39.5663082 -9.95743728,39.5663082 Z M-3.12679211,39.5663082 C-3.64121864,39.5663082 -4.05824373,39.1492832 -4.05824373,38.6348566 C-4.05824373,38.1204301 -3.64121864,37.703405 -3.12679211,37.703405 C-2.61236559,37.703405 -2.1953405,38.1204301 -2.1953405,38.6348566 C-2.1953405,39.1492832 -2.61236559,39.5663082 -3.12679211,39.5663082 Z M3.70385305,39.5663082 C3.18942653,39.5663082 2.77240143,39.1492832 2.77240143,38.6348566 C2.77240143,38.1204301 3.18942653,37.703405 3.70385305,37.703405 C4.21827957,37.703405 4.63530466,38.1204301 4.63530466,38.6348566 C4.63530466,39.1492832 4.21827957,39.5663082 3.70385305,39.5663082 Z M10.5344982,39.5663082 C10.0200717,39.5663082 9.60304659,39.1492832 9.60304659,38.6348566 C9.60304659,38.1204301 10.0200717,37.703405 10.5344982,37.703405 C11.0489247,37.703405 11.4659498,38.1204301 11.4659498,38.6348566 C11.4659498,39.1492832 11.0489247,39.5663082 10.5344982,39.5663082 Z M17.3651434,39.5663082 C16.8507168,39.5663082 16.4336918,39.1492832 16.4336918,38.6348566 C16.4336918,38.1204301 16.8507168,37.703405 17.3651434,37.703405 C17.8795699,37.703405 18.296595,38.1204301 18.296595,38.6348566 C18.296595,39.1492832 17.8795699,39.5663082 17.3651434,39.5663082 Z M-9.95743728,46.3969534 C-10.4718638,46.3969534 -10.8888889,45.9799283 -10.8888889,45.4655018 C-10.8888889,44.9510753 -10.4718638,44.5340502 -9.95743728,44.5340502 C-9.44301076,44.5340502 -9.02598566,44.9510753 -9.02598566,45.4655018 C-9.02598566,45.9799283 -9.44301076,46.3969534 -9.95743728,46.3969534 Z M-3.12679211,46.3969534 C-3.64121864,46.3969534 -4.05824373,45.9799283 -4.05824373,45.4655018 C-4.05824373,44.9510753 -3.64121864,44.5340502 -3.12679211,44.5340502 C-2.61236559,44.5340502 -2.1953405,44.9510753 -2.1953405,45.4655018 C-2.1953405,45.9799283 -2.61236559,46.3969534 -3.12679211,46.3969534 Z M3.70385305,46.3969534 C3.18942653,46.3969534 2.77240143,45.9799283 2.77240143,45.4655018 C2.77240143,44.9510753 3.18942653,44.5340502 3.70385305,44.5340502 C4.21827957,44.5340502 4.63530466,44.9510753 4.63530466,45.4655018 C4.63530466,45.9799283 4.21827957,46.3969534 3.70385305,46.3969534 Z M10.5344982,46.3969534 C10.0200717,46.3969534 9.60304659,45.9799283 9.60304659,45.4655018 C9.60304659,44.9510753 10.0200717,44.5340502 10.5344982,44.5340502 C11.0489247,44.5340502 11.4659498,44.9510753 11.4659498,45.4655018 C11.4659498,45.9799283 11.0489247,46.3969534 10.5344982,46.3969534 Z M17.3651434,46.3969534 C16.8507168,46.3969534 16.4336918,45.9799283 16.4336918,45.4655018 C16.4336918,44.9510753 16.8507168,44.5340502 17.3651434,44.5340502 C17.8795699,44.5340502 18.296595,44.9510753 18.296595,45.4655018 C18.296595,45.9799283 17.8795699,46.3969534 17.3651434,46.3969534 Z M-9.95743728,53.2275986 C-10.4718638,53.2275986 -10.8888889,52.8105735 -10.8888889,52.296147 C-10.8888889,51.7817204 -10.4718638,51.3646953 -9.95743728,51.3646953 C-9.44301076,51.3646953 -9.02598566,51.7817204 -9.02598566,52.296147 C-9.02598566,52.8105735 -9.44301076,53.2275986 -9.95743728,53.2275986 Z M-3.12679211,53.2275986 C-3.64121864,53.2275986 -4.05824373,52.8105735 -4.05824373,52.296147 C-4.05824373,51.7817204 -3.64121864,51.3646953 -3.12679211,51.3646953 C-2.61236559,51.3646953 -2.1953405,51.7817204 -2.1953405,52.296147 C-2.1953405,52.8105735 -2.61236559,53.2275986 -3.12679211,53.2275986 Z M3.70385305,53.2275986 C3.18942653,53.2275986 2.77240143,52.8105735 2.77240143,52.296147 C2.77240143,51.7817204 3.18942653,51.3646953 3.70385305,51.3646953 C4.21827957,51.3646953 4.63530466,51.7817204 4.63530466,52.296147 C4.63530466,52.8105735 4.21827957,53.2275986 3.70385305,53.2275986 Z M10.5344982,53.2275986 C10.0200717,53.2275986 9.60304659,52.8105735 9.60304659,52.296147 C9.60304659,51.7817204 10.0200717,51.3646953 10.5344982,51.3646953 C11.0489247,51.3646953 11.4659498,51.7817204 11.4659498,52.296147 C11.4659498,52.8105735 11.0489247,53.2275986 10.5344982,53.2275986 Z M17.3651434,53.2275986 C16.8507168,53.2275986 16.4336918,52.8105735 16.4336918,52.296147 C16.4336918,51.7817204 16.8507168,51.3646953 17.3651434,51.3646953 C17.8795699,51.3646953 18.296595,51.7817204 18.296595,52.296147 C18.296595,52.8105735 17.8795699,53.2275986 17.3651434,53.2275986 Z M-9.95743728,60.0582437 C-10.4718638,60.0582437 -10.8888889,59.6412186 -10.8888889,59.1267921 C-10.8888889,58.6123656 -10.4718638,58.1953405 -9.95743728,58.1953405 C-9.44301076,58.1953405 -9.02598566,58.6123656 -9.02598566,59.1267921 C-9.02598566,59.6412186 -9.44301076,60.0582437 -9.95743728,60.0582437 Z M-3.12679211,60.0582437 C-3.64121864,60.0582437 -4.05824373,59.6412186 -4.05824373,59.1267921 C-4.05824373,58.6123656 -3.64121864,58.1953405 -3.12679211,58.1953405 C-2.61236559,58.1953405 -2.1953405,58.6123656 -2.1953405,59.1267921 C-2.1953405,59.6412186 -2.61236559,60.0582437 -3.12679211,60.0582437 Z M3.70385305,60.0582437 C3.18942653,60.0582437 2.77240143,59.6412186 2.77240143,59.1267921 C2.77240143,58.6123656 3.18942653,58.1953405 3.70385305,58.1953405 C4.21827957,58.1953405 4.63530466,58.6123656 4.63530466,59.1267921 C4.63530466,59.6412186 4.21827957,60.0582437 3.70385305,60.0582437 Z M10.5344982,60.0582437 C10.0200717,60.0582437 9.60304659,59.6412186 9.60304659,59.1267921 C9.60304659,58.6123656 10.0200717,58.1953405 10.5344982,58.1953405 C11.0489247,58.1953405 11.4659498,58.6123656 11.4659498,59.1267921 C11.4659498,59.6412186 11.0489247,60.0582437 10.5344982,60.0582437 Z M17.3651434,60.0582437 C16.8507168,60.0582437 16.4336918,59.6412186 16.4336918,59.1267921 C16.4336918,58.6123656 16.8507168,58.1953405 17.3651434,58.1953405 C17.8795699,58.1953405 18.296595,58.6123656 18.296595,59.1267921 C18.296595,59.6412186 17.8795699,60.0582437 17.3651434,60.0582437 Z M-9.95743728,66.8888889 C-10.4718638,66.8888889 -10.8888889,66.4718638 -10.8888889,65.9574373 C-10.8888889,65.4430108 -10.4718638,65.0259857 -9.95743728,65.0259857 C-9.44301076,65.0259857 -9.02598566,65.4430108 -9.02598566,65.9574373 C-9.02598566,66.4718638 -9.44301076,66.8888889 -9.95743728,66.8888889 Z M-3.12679211,66.8888889 C-3.64121864,66.8888889 -4.05824373,66.4718638 -4.05824373,65.9574373 C-4.05824373,65.4430108 -3.64121864,65.0259857 -3.12679211,65.0259857 C-2.61236559,65.0259857 -2.1953405,65.4430108 -2.1953405,65.9574373 C-2.1953405,66.4718638 -2.61236559,66.8888889 -3.12679211,66.8888889 Z M3.70385305,66.8888889 C3.18942653,66.8888889 2.77240143,66.4718638 2.77240143,65.9574373 C2.77240143,65.4430108 3.18942653,65.0259857 3.70385305,65.0259857 C4.21827957,65.0259857 4.63530466,65.4430108 4.63530466,65.9574373 C4.63530466,66.4718638 4.21827957,66.8888889 3.70385305,66.8888889 Z M10.5344982,66.8888889 C10.0200717,66.8888889 9.60304659,66.4718638 9.60304659,65.9574373 C9.60304659,65.4430108 10.0200717,65.0259857 10.5344982,65.0259857 C11.0489247,65.0259857 11.4659498,65.4430108 11.4659498,65.9574373 C11.4659498,66.4718638 11.0489247,66.8888889 10.5344982,66.8888889 Z M17.3651434,66.8888889 C16.8507168,66.8888889 16.4336918,66.4718638 16.4336918,65.9574373 C16.4336918,65.4430108 16.8507168,65.0259857 17.3651434,65.0259857 C17.8795699,65.0259857 18.296595,65.4430108 18.296595,65.9574373 C18.296595,66.4718638 17.8795699,66.8888889 17.3651434,66.8888889 Z M24.1957885,25.9050179 C23.681362,25.9050179 23.2643369,25.4879928 23.2643369,24.9735663 C23.2643369,24.4591398 23.681362,24.0421147 24.1957885,24.0421147 C24.7102151,24.0421147 25.1272401,24.4591398 25.1272401,24.9735663 C25.1272401,25.4879928 24.7102151,25.9050179 24.1957885,25.9050179 Z M31.0264337,25.9050179 C30.5120072,25.9050179 30.0949821,25.4879928 30.0949821,24.9735663 C30.0949821,24.4591398 30.5120072,24.0421147 31.0264337,24.0421147 C31.5408602,24.0421147 31.9578853,24.4591398 31.9578853,24.9735663 C31.9578853,25.4879928 31.5408602,25.9050179 31.0264337,25.9050179 Z M37.8570789,25.9050179 C37.3426523,25.9050179 36.9256272,25.4879928 36.9256272,24.9735663 C36.9256272,24.4591398 37.3426523,24.0421147 37.8570789,24.0421147 C38.3715054,24.0421147 38.7885305,24.4591398 38.7885305,24.9735663 C38.7885305,25.4879928 38.3715054,25.9050179 37.8570789,25.9050179 Z M44.687724,25.9050179 C44.1732975,25.9050179 43.7562724,25.4879928 43.7562724,24.9735663 C43.7562724,24.4591398 44.1732975,24.0421147 44.687724,24.0421147 C45.2021505,24.0421147 45.6191756,24.4591398 45.6191756,24.9735663 C45.6191756,25.4879928 45.2021505,25.9050179 44.687724,25.9050179 Z M51.5183692,25.9050179 C51.0039427,25.9050179 50.5869176,25.4879928 50.5869176,24.9735663 C50.5869176,24.4591398 51.0039427,24.0421147 51.5183692,24.0421147 C52.0327957,24.0421147 52.4498208,24.4591398 52.4498208,24.9735663 C52.4498208,25.4879928 52.0327957,25.9050179 51.5183692,25.9050179 Z M24.1957885,32.7356631 C23.681362,32.7356631 23.2643369,32.318638 23.2643369,31.8042115 C23.2643369,31.2897849 23.681362,30.8727599 24.1957885,30.8727599 C24.7102151,30.8727599 25.1272401,31.2897849 25.1272401,31.8042115 C25.1272401,32.318638 24.7102151,32.7356631 24.1957885,32.7356631 Z M31.0264337,32.7356631 C30.5120072,32.7356631 30.0949821,32.318638 30.0949821,31.8042115 C30.0949821,31.2897849 30.5120072,30.8727599 31.0264337,30.8727599 C31.5408602,30.8727599 31.9578853,31.2897849 31.9578853,31.8042115 C31.9578853,32.318638 31.5408602,32.7356631 31.0264337,32.7356631 Z M37.8570789,32.7356631 C37.3426523,32.7356631 36.9256272,32.318638 36.9256272,31.8042115 C36.9256272,31.2897849 37.3426523,30.8727599 37.8570789,30.8727599 C38.3715054,30.8727599 38.7885305,31.2897849 38.7885305,31.8042115 C38.7885305,32.318638 38.3715054,32.7356631 37.8570789,32.7356631 Z M44.687724,32.7356631 C44.1732975,32.7356631 43.7562724,32.318638 43.7562724,31.8042115 C43.7562724,31.2897849 44.1732975,30.8727599 44.687724,30.8727599 C45.2021505,30.8727599 45.6191756,31.2897849 45.6191756,31.8042115 C45.6191756,32.318638 45.2021505,32.7356631 44.687724,32.7356631 Z M51.5183692,32.7356631 C51.0039427,32.7356631 50.5869176,32.318638 50.5869176,31.8042115 C50.5869176,31.2897849 51.0039427,30.8727599 51.5183692,30.8727599 C52.0327957,30.8727599 52.4498208,31.2897849 52.4498208,31.8042115 C52.4498208,32.318638 52.0327957,32.7356631 51.5183692,32.7356631 Z M24.1957885,39.5663082 C23.681362,39.5663082 23.2643369,39.1492832 23.2643369,38.6348566 C23.2643369,38.1204301 23.681362,37.703405 24.1957885,37.703405 C24.7102151,37.703405 25.1272401,38.1204301 25.1272401,38.6348566 C25.1272401,39.1492832 24.7102151,39.5663082 24.1957885,39.5663082 Z M31.0264337,39.5663082 C30.5120072,39.5663082 30.0949821,39.1492832 30.0949821,38.6348566 C30.0949821,38.1204301 30.5120072,37.703405 31.0264337,37.703405 C31.5408602,37.703405 31.9578853,38.1204301 31.9578853,38.6348566 C31.9578853,39.1492832 31.5408602,39.5663082 31.0264337,39.5663082 Z M37.8570789,39.5663082 C37.3426523,39.5663082 36.9256272,39.1492832 36.9256272,38.6348566 C36.9256272,38.1204301 37.3426523,37.703405 37.8570789,37.703405 C38.3715054,37.703405 38.7885305,38.1204301 38.7885305,38.6348566 C38.7885305,39.1492832 38.3715054,39.5663082 37.8570789,39.5663082 Z M44.687724,39.5663082 C44.1732975,39.5663082 43.7562724,39.1492832 43.7562724,38.6348566 C43.7562724,38.1204301 44.1732975,37.703405 44.687724,37.703405 C45.2021505,37.703405 45.6191756,38.1204301 45.6191756,38.6348566 C45.6191756,39.1492832 45.2021505,39.5663082 44.687724,39.5663082 Z M51.5183692,39.5663082 C51.0039427,39.5663082 50.5869176,39.1492832 50.5869176,38.6348566 C50.5869176,38.1204301 51.0039427,37.703405 51.5183692,37.703405 C52.0327957,37.703405 52.4498208,38.1204301 52.4498208,38.6348566 C52.4498208,39.1492832 52.0327957,39.5663082 51.5183692,39.5663082 Z M24.1957885,46.3969534 C23.681362,46.3969534 23.2643369,45.9799283 23.2643369,45.4655018 C23.2643369,44.9510753 23.681362,44.5340502 24.1957885,44.5340502 C24.7102151,44.5340502 25.1272401,44.9510753 25.1272401,45.4655018 C25.1272401,45.9799283 24.7102151,46.3969534 24.1957885,46.3969534 Z M31.0264337,46.3969534 C30.5120072,46.3969534 30.0949821,45.9799283 30.0949821,45.4655018 C30.0949821,44.9510753 30.5120072,44.5340502 31.0264337,44.5340502 C31.5408602,44.5340502 31.9578853,44.9510753 31.9578853,45.4655018 C31.9578853,45.9799283 31.5408602,46.3969534 31.0264337,46.3969534 Z M37.8570789,46.3969534 C37.3426523,46.3969534 36.9256272,45.9799283 36.9256272,45.4655018 C36.9256272,44.9510753 37.3426523,44.5340502 37.8570789,44.5340502 C38.3715054,44.5340502 38.7885305,44.9510753 38.7885305,45.4655018 C38.7885305,45.9799283 38.3715054,46.3969534 37.8570789,46.3969534 Z M44.687724,46.3969534 C44.1732975,46.3969534 43.7562724,45.9799283 43.7562724,45.4655018 C43.7562724,44.9510753 44.1732975,44.5340502 44.687724,44.5340502 C45.2021505,44.5340502 45.6191756,44.9510753 45.6191756,45.4655018 C45.6191756,45.9799283 45.2021505,46.3969534 44.687724,46.3969534 Z M51.5183692,46.3969534 C51.0039427,46.3969534 50.5869176,45.9799283 50.5869176,45.4655018 C50.5869176,44.9510753 51.0039427,44.5340502 51.5183692,44.5340502 C52.0327957,44.5340502 52.4498208,44.9510753 52.4498208,45.4655018 C52.4498208,45.9799283 52.0327957,46.3969534 51.5183692,46.3969534 Z M24.1957885,53.2275986 C23.681362,53.2275986 23.2643369,52.8105735 23.2643369,52.296147 C23.2643369,51.7817204 23.681362,51.3646953 24.1957885,51.3646953 C24.7102151,51.3646953 25.1272401,51.7817204 25.1272401,52.296147 C25.1272401,52.8105735 24.7102151,53.2275986 24.1957885,53.2275986 Z M31.0264337,53.2275986 C30.5120072,53.2275986 30.0949821,52.8105735 30.0949821,52.296147 C30.0949821,51.7817204 30.5120072,51.3646953 31.0264337,51.3646953 C31.5408602,51.3646953 31.9578853,51.7817204 31.9578853,52.296147 C31.9578853,52.8105735 31.5408602,53.2275986 31.0264337,53.2275986 Z M37.8570789,53.2275986 C37.3426523,53.2275986 36.9256272,52.8105735 36.9256272,52.296147 C36.9256272,51.7817204 37.3426523,51.3646953 37.8570789,51.3646953 C38.3715054,51.3646953 38.7885305,51.7817204 38.7885305,52.296147 C38.7885305,52.8105735 38.3715054,53.2275986 37.8570789,53.2275986 Z M44.687724,53.2275986 C44.1732975,53.2275986 43.7562724,52.8105735 43.7562724,52.296147 C43.7562724,51.7817204 44.1732975,51.3646953 44.687724,51.3646953 C45.2021505,51.3646953 45.6191756,51.7817204 45.6191756,52.296147 C45.6191756,52.8105735 45.2021505,53.2275986 44.687724,53.2275986 Z M51.5183692,53.2275986 C51.0039427,53.2275986 50.5869176,52.8105735 50.5869176,52.296147 C50.5869176,51.7817204 51.0039427,51.3646953 51.5183692,51.3646953 C52.0327957,51.3646953 52.4498208,51.7817204 52.4498208,52.296147 C52.4498208,52.8105735 52.0327957,53.2275986 51.5183692,53.2275986 Z M24.1957885,60.0582437 C23.681362,60.0582437 23.2643369,59.6412186 23.2643369,59.1267921 C23.2643369,58.6123656 23.681362,58.1953405 24.1957885,58.1953405 C24.7102151,58.1953405 25.1272401,58.6123656 25.1272401,59.1267921 C25.1272401,59.6412186 24.7102151,60.0582437 24.1957885,60.0582437 Z M31.0264337,60.0582437 C30.5120072,60.0582437 30.0949821,59.6412186 30.0949821,59.1267921 C30.0949821,58.6123656 30.5120072,58.1953405 31.0264337,58.1953405 C31.5408602,58.1953405 31.9578853,58.6123656 31.9578853,59.1267921 C31.9578853,59.6412186 31.5408602,60.0582437 31.0264337,60.0582437 Z M37.8570789,60.0582437 C37.3426523,60.0582437 36.9256272,59.6412186 36.9256272,59.1267921 C36.9256272,58.6123656 37.3426523,58.1953405 37.8570789,58.1953405 C38.3715054,58.1953405 38.7885305,58.6123656 38.7885305,59.1267921 C38.7885305,59.6412186 38.3715054,60.0582437 37.8570789,60.0582437 Z M44.687724,60.0582437 C44.1732975,60.0582437 43.7562724,59.6412186 43.7562724,59.1267921 C43.7562724,58.6123656 44.1732975,58.1953405 44.687724,58.1953405 C45.2021505,58.1953405 45.6191756,58.6123656 45.6191756,59.1267921 C45.6191756,59.6412186 45.2021505,60.0582437 44.687724,60.0582437 Z M51.5183692,60.0582437 C51.0039427,60.0582437 50.5869176,59.6412186 50.5869176,59.1267921 C50.5869176,58.6123656 51.0039427,58.1953405 51.5183692,58.1953405 C52.0327957,58.1953405 52.4498208,58.6123656 52.4498208,59.1267921 C52.4498208,59.6412186 52.0327957,60.0582437 51.5183692,60.0582437 Z M24.1957885,66.8888889 C23.681362,66.8888889 23.2643369,66.4718638 23.2643369,65.9574373 C23.2643369,65.4430108 23.681362,65.0259857 24.1957885,65.0259857 C24.7102151,65.0259857 25.1272401,65.4430108 25.1272401,65.9574373 C25.1272401,66.4718638 24.7102151,66.8888889 24.1957885,66.8888889 Z M31.0264337,66.8888889 C30.5120072,66.8888889 30.0949821,66.4718638 30.0949821,65.9574373 C30.0949821,65.4430108 30.5120072,65.0259857 31.0264337,65.0259857 C31.5408602,65.0259857 31.9578853,65.4430108 31.9578853,65.9574373 C31.9578853,66.4718638 31.5408602,66.8888889 31.0264337,66.8888889 Z M37.8570789,66.8888889 C37.3426523,66.8888889 36.9256272,66.4718638 36.9256272,65.9574373 C36.9256272,65.4430108 37.3426523,65.0259857 37.8570789,65.0259857 C38.3715054,65.0259857 38.7885305,65.4430108 38.7885305,65.9574373 C38.7885305,66.4718638 38.3715054,66.8888889 37.8570789,66.8888889 Z M44.687724,66.8888889 C44.1732975,66.8888889 43.7562724,66.4718638 43.7562724,65.9574373 C43.7562724,65.4430108 44.1732975,65.0259857 44.687724,65.0259857 C45.2021505,65.0259857 45.6191756,65.4430108 45.6191756,65.9574373 C45.6191756,66.4718638 45.2021505,66.8888889 44.687724,66.8888889 Z M51.5183692,66.8888889 C51.0039427,66.8888889 50.5869176,66.4718638 50.5869176,65.9574373 C50.5869176,65.4430108 51.0039427,65.0259857 51.5183692,65.0259857 C52.0327957,65.0259857 52.4498208,65.4430108 52.4498208,65.9574373 C52.4498208,66.4718638 52.0327957,66.8888889 51.5183692,66.8888889 Z M58.3490143,25.9050179 C57.8345878,25.9050179 57.4175627,25.4879928 57.4175627,24.9735663 C57.4175627,24.4591398 57.8345878,24.0421147 58.3490143,24.0421147 C58.8634409,24.0421147 59.2804659,24.4591398 59.2804659,24.9735663 C59.2804659,25.4879928 58.8634409,25.9050179 58.3490143,25.9050179 Z M65.1796595,25.9050179 C64.665233,25.9050179 64.2482079,25.4879928 64.2482079,24.9735663 C64.2482079,24.4591398 64.665233,24.0421147 65.1796595,24.0421147 C65.694086,24.0421147 66.1111111,24.4591398 66.1111111,24.9735663 C66.1111111,25.4879928 65.694086,25.9050179 65.1796595,25.9050179 Z M58.3490143,32.7356631 C57.8345878,32.7356631 57.4175627,32.318638 57.4175627,31.8042115 C57.4175627,31.2897849 57.8345878,30.8727599 58.3490143,30.8727599 C58.8634409,30.8727599 59.2804659,31.2897849 59.2804659,31.8042115 C59.2804659,32.318638 58.8634409,32.7356631 58.3490143,32.7356631 Z M65.1796595,32.7356631 C64.665233,32.7356631 64.2482079,32.318638 64.2482079,31.8042115 C64.2482079,31.2897849 64.665233,30.8727599 65.1796595,30.8727599 C65.694086,30.8727599 66.1111111,31.2897849 66.1111111,31.8042115 C66.1111111,32.318638 65.694086,32.7356631 65.1796595,32.7356631 Z M58.3490143,39.5663082 C57.8345878,39.5663082 57.4175627,39.1492832 57.4175627,38.6348566 C57.4175627,38.1204301 57.8345878,37.703405 58.3490143,37.703405 C58.8634409,37.703405 59.2804659,38.1204301 59.2804659,38.6348566 C59.2804659,39.1492832 58.8634409,39.5663082 58.3490143,39.5663082 Z M65.1796595,39.5663082 C64.665233,39.5663082 64.2482079,39.1492832 64.2482079,38.6348566 C64.2482079,38.1204301 64.665233,37.703405 65.1796595,37.703405 C65.694086,37.703405 66.1111111,38.1204301 66.1111111,38.6348566 C66.1111111,39.1492832 65.694086,39.5663082 65.1796595,39.5663082 Z M58.3490143,46.3969534 C57.8345878,46.3969534 57.4175627,45.9799283 57.4175627,45.4655018 C57.4175627,44.9510753 57.8345878,44.5340502 58.3490143,44.5340502 C58.8634409,44.5340502 59.2804659,44.9510753 59.2804659,45.4655018 C59.2804659,45.9799283 58.8634409,46.3969534 58.3490143,46.3969534 Z M65.1796595,46.3969534 C64.665233,46.3969534 64.2482079,45.9799283 64.2482079,45.4655018 C64.2482079,44.9510753 64.665233,44.5340502 65.1796595,44.5340502 C65.694086,44.5340502 66.1111111,44.9510753 66.1111111,45.4655018 C66.1111111,45.9799283 65.694086,46.3969534 65.1796595,46.3969534 Z M58.3490143,53.2275986 C57.8345878,53.2275986 57.4175627,52.8105735 57.4175627,52.296147 C57.4175627,51.7817204 57.8345878,51.3646953 58.3490143,51.3646953 C58.8634409,51.3646953 59.2804659,51.7817204 59.2804659,52.296147 C59.2804659,52.8105735 58.8634409,53.2275986 58.3490143,53.2275986 Z M65.1796595,53.2275986 C64.665233,53.2275986 64.2482079,52.8105735 64.2482079,52.296147 C64.2482079,51.7817204 64.665233,51.3646953 65.1796595,51.3646953 C65.694086,51.3646953 66.1111111,51.7817204 66.1111111,52.296147 C66.1111111,52.8105735 65.694086,53.2275986 65.1796595,53.2275986 Z M58.3490143,60.0582437 C57.8345878,60.0582437 57.4175627,59.6412186 57.4175627,59.1267921 C57.4175627,58.6123656 57.8345878,58.1953405 58.3490143,58.1953405 C58.8634409,58.1953405 59.2804659,58.6123656 59.2804659,59.1267921 C59.2804659,59.6412186 58.8634409,60.0582437 58.3490143,60.0582437 Z M65.1796595,60.0582437 C64.665233,60.0582437 64.2482079,59.6412186 64.2482079,59.1267921 C64.2482079,58.6123656 64.665233,58.1953405 65.1796595,58.1953405 C65.694086,58.1953405 66.1111111,58.6123656 66.1111111,59.1267921 C66.1111111,59.6412186 65.694086,60.0582437 65.1796595,60.0582437 Z M58.3490143,66.8888889 C57.8345878,66.8888889 57.4175627,66.4718638 57.4175627,65.9574373 C57.4175627,65.4430108 57.8345878,65.0259857 58.3490143,65.0259857 C58.8634409,65.0259857 59.2804659,65.4430108 59.2804659,65.9574373 C59.2804659,66.4718638 58.8634409,66.8888889 58.3490143,66.8888889 Z M65.1796595,66.8888889 C64.665233,66.8888889 64.2482079,66.4718638 64.2482079,65.9574373 C64.2482079,65.4430108 64.665233,65.0259857 65.1796595,65.0259857 C65.694086,65.0259857 66.1111111,65.4430108 66.1111111,65.9574373 C66.1111111,66.4718638 65.694086,66.8888889 65.1796595,66.8888889 Z" id="Combined-Shape" fill="#000000" mask="url(#mask-2)"></path>
                </g>
            </g>
        </g>
    </g>
</svg>