<?xml version="1.0" encoding="UTF-8"?>
<svg width="95px" height="62px" viewBox="0 0 95 62" version="1.1" xmlns="http://www.w3.org/2000/svg" xmlns:xlink="http://www.w3.org/1999/xlink">
    <!-- Generator: Sketch 52.6 (67491) - http://www.bohemiancoding.com/sketch -->
    <title>Combined Shape</title>
    <desc>Created with Sketch.</desc>
    <g id="Page-1" stroke="none" stroke-width="1" fill="none" fill-rule="evenodd">
        <g id="Landing-page-1st-draft-Copy" transform="translate(-904.000000, -2718.000000)" fill="#000000" fill-rule="nonzero">
            <g id="Group-33" transform="translate(371.000000, 2181.000000)">
                <path d="M588.002432,589.253415 C587.184037,588.679037 586.573494,586.06124 587.839432,584.249089 C589.105371,582.436938 590.09196,583.243142 592.013756,583.511332 C593.125063,583.666417 593.821174,585.046405 593.895895,586.054765 C593.96419,586.976409 594.172727,587.404374 593.568197,588.269739 C591.276012,591.550929 588.820827,589.827794 588.002432,589.253415 Z M627.834373,591.841501 C627.626653,592.821016 625.461107,594.407186 623.30224,593.947237 C621.143373,593.487289 621.498276,592.262009 620.993668,590.384084 C620.701871,589.298146 621.697219,588.116678 622.59407,587.65374 C623.413795,587.230613 623.725343,586.870988 624.756277,587.090629 C628.665251,587.923439 628.042093,590.861985 627.834373,591.841501 Z M610.171973,595.655504 C609.964254,596.63502 608.568231,599.408907 606.409364,598.948959 C604.250497,598.489011 604.662597,597.553038 603.893073,596.36532 C603.272539,595.407561 604.596623,594.097915 605.493475,593.634976 C606.313199,593.211849 606.624748,592.852225 607.655681,593.071866 C610.42098,593.661015 610.379693,594.675989 610.171973,595.655504 Z M614.54375,585.694383 C614.098637,587.793345 611.802545,587.304161 611.255426,587.187597 C610.708307,587.071033 609.787899,586.676995 609.46159,585.34289 C609.272898,584.571424 610.216384,583.045794 610.826804,582.708692 C611.384729,582.400579 611.59837,582.14181 612.294024,582.290019 C614.159991,582.687565 614.988864,583.595421 614.54375,585.694383 Z M561.975171,569.358319 C561.030526,569.684343 558.558729,568.640729 557.840168,566.549026 C557.121607,564.457323 558.35223,564.131175 559.6983,562.730433 C560.476685,561.920433 561.999693,562.167096 562.857502,562.699204 C563.64154,563.185551 564.109543,563.268001 564.452681,564.266862 C565.75375,568.054225 562.919816,569.032296 561.975171,569.358319 Z M587.476747,538.579922 C588.145259,539.324106 588.152645,542.01247 586.512452,543.49274 C584.872259,544.97301 584.091892,543.965018 582.279541,543.270387 C581.231523,542.868706 580.862963,541.367132 581.016463,540.367768 C581.156762,539.454348 581.049618,538.990331 581.832867,538.283451 C584.802698,535.603186 586.808235,537.835738 587.476747,538.579922 Z M580.173486,555.144139 C580.841998,555.888323 582.260354,558.650805 580.620161,560.131074 C578.979968,561.611344 578.466733,560.727023 577.055763,560.652905 C575.917976,560.593138 575.639185,558.74965 575.792684,557.750287 C575.932983,556.836866 575.825839,556.37285 576.609088,555.66597 C578.710016,553.769888 579.504974,554.399955 580.173486,555.144139 Z M574.703127,545.744075 C576.135653,547.338755 574.391204,548.913116 573.975532,549.288259 C573.559859,549.663402 572.700813,550.178149 571.432204,549.658585 C570.698612,549.358139 570.021781,547.696325 570.108488,547.003193 C570.187738,546.369669 570.10445,546.044327 570.632971,545.567338 C572.050634,544.287901 573.270601,544.149395 574.703127,545.744075 Z M614.386419,552.400648 C615.385342,552.418124 617.351964,554.24617 617.313444,556.458062 C617.274925,558.669953 616.007228,558.554556 614.264365,559.409369 C613.256529,559.903678 611.909537,559.149781 611.28503,558.355693 C610.71423,557.629895 610.302585,557.391979 610.320979,556.335724 C610.390724,552.33074 613.387495,552.383171 614.386419,552.400648 Z M579.92036,572.580549 C579.546099,571.652068 580.456501,569.123301 582.502886,568.294585 C584.549271,567.46587 584.938622,568.680594 586.404648,569.954636 C587.252399,570.691369 587.086354,572.228735 586.601102,573.115207 C586.157581,573.925445 586.099928,574.398209 585.122709,574.793949 C581.417401,576.294471 580.29462,573.509029 579.92036,572.580549 Z M592.435337,559.518946 C592.061076,558.590466 591.670891,555.508348 593.717276,554.679633 C595.763661,553.850917 595.94419,554.857852 597.244777,555.411202 C598.293553,555.857416 597.926484,557.685302 597.441232,558.571774 C596.99771,559.382012 596.940058,559.854775 595.962838,560.250516 C593.341618,561.312019 592.809597,560.447427 592.435337,559.518946 Z M594.700338,570.158067 C593.898352,568.168466 596.074812,567.287074 596.593425,567.077054 C597.112038,566.867034 598.094923,566.677824 599.109736,567.600953 C599.696567,568.134766 599.765524,569.928389 599.447531,570.549995 C599.156885,571.118145 599.124135,571.452419 598.464727,571.719457 C596.69598,572.435738 595.502325,572.147668 594.700338,570.158067 Z M551.147652,549.695163 C553.249195,550.104611 552.801292,552.414228 552.694565,552.96457 C552.587837,553.514912 552.210836,554.444197 550.885723,554.794497 C550.119458,554.997063 548.581131,554.078153 548.234209,553.472291 C547.917121,552.918531 547.655263,552.708942 547.790965,552.009191 C548.154962,550.132232 549.046109,549.285715 551.147652,549.695163 Z M533.751128,545.091142 C535.009504,543.35511 536.908581,544.738077 537.361098,545.067615 C537.813615,545.397152 538.494552,546.132358 538.251279,547.484153 C538.110603,548.265849 536.629594,549.274939 535.935154,549.33404 C535.300435,549.388058 535.000257,549.537358 534.424888,549.118357 C532.881563,547.994459 532.492753,546.827174 533.751128,545.091142 Z" id="Combined-Shape"></path>
            </g>
        </g>
    </g>
</svg>