<?xml version="1.0" encoding="UTF-8"?>
<svg width="141px" height="155px" viewBox="0 0 141 155" version="1.1" xmlns="http://www.w3.org/2000/svg" xmlns:xlink="http://www.w3.org/1999/xlink">
    <!-- Generator: Sketch 52.6 (67491) - http://www.bohemiancoding.com/sketch -->
    <title>Group 16 Copy</title>
    <desc>Created with Sketch.</desc>
    <defs>
        <circle id="path-1" cx="36" cy="36" r="36"></circle>
    </defs>
    <g id="Page-1" stroke="none" stroke-width="1" fill="none" fill-rule="evenodd">
        <g id="Landing-page-1st-draft-Copy" transform="translate(-857.000000, -2933.000000)">
            <g id="Group-34" transform="translate(123.000000, 2929.000000)">
                <g id="Group-16-Copy" transform="translate(734.000000, 0.000000)">
                    <circle id="Oval-Copy-8" fill="#BBFFE5" cx="70.5" cy="88.5" r="70.5"></circle>
                    <g id="Oval-Copy-63" transform="translate(64.000000, 0.000000)">
                        <mask id="mask-2" fill="white">
                            <use xlink:href="#path-1"></use>
                        </mask>
                        <g id="Oval-Copy-9" fill-rule="nonzero"></g>
                        <path d="M-12.8024194,-10.6048387 C-13.4638249,-10.6048387 -14,-11.1410138 -14,-11.8024194 C-14,-12.4638249 -13.4638249,-13 -12.8024194,-13 C-12.1410138,-13 -11.6048387,-12.4638249 -11.6048387,-11.8024194 C-11.6048387,-11.1410138 -12.1410138,-10.6048387 -12.8024194,-10.6048387 Z M-4.02016129,-10.6048387 C-4.68156682,-10.6048387 -5.21774194,-11.1410138 -5.21774194,-11.8024194 C-5.21774194,-12.4638249 -4.68156682,-13 -4.02016129,-13 C-3.35875576,-13 -2.82258065,-12.4638249 -2.82258065,-11.8024194 C-2.82258065,-11.1410138 -3.35875576,-10.6048387 -4.02016129,-10.6048387 Z M4.76209677,-10.6048387 C4.10069125,-10.6048387 3.56451613,-11.1410138 3.56451613,-11.8024194 C3.56451613,-12.4638249 4.10069125,-13 4.76209677,-13 C5.4235023,-13 5.95967742,-12.4638249 5.95967742,-11.8024194 C5.95967742,-11.1410138 5.4235023,-10.6048387 4.76209677,-10.6048387 Z M13.5443548,-10.6048387 C12.8829493,-10.6048387 12.3467742,-11.1410138 12.3467742,-11.8024194 C12.3467742,-12.4638249 12.8829493,-13 13.5443548,-13 C14.2057604,-13 14.7419355,-12.4638249 14.7419355,-11.8024194 C14.7419355,-11.1410138 14.2057604,-10.6048387 13.5443548,-10.6048387 Z M22.3266129,-10.6048387 C21.6652074,-10.6048387 21.1290323,-11.1410138 21.1290323,-11.8024194 C21.1290323,-12.4638249 21.6652074,-13 22.3266129,-13 C22.9880184,-13 23.5241935,-12.4638249 23.5241935,-11.8024194 C23.5241935,-11.1410138 22.9880184,-10.6048387 22.3266129,-10.6048387 Z M31.108871,-10.6048387 C30.4474654,-10.6048387 29.9112903,-11.1410138 29.9112903,-11.8024194 C29.9112903,-12.4638249 30.4474654,-13 31.108871,-13 C31.7702765,-13 32.3064516,-12.4638249 32.3064516,-11.8024194 C32.3064516,-11.1410138 31.7702765,-10.6048387 31.108871,-10.6048387 Z M39.891129,-10.6048387 C39.2297235,-10.6048387 38.6935484,-11.1410138 38.6935484,-11.8024194 C38.6935484,-12.4638249 39.2297235,-13 39.891129,-13 C40.5525346,-13 41.0887097,-12.4638249 41.0887097,-11.8024194 C41.0887097,-11.1410138 40.5525346,-10.6048387 39.891129,-10.6048387 Z M48.6733871,-10.6048387 C48.0119816,-10.6048387 47.4758065,-11.1410138 47.4758065,-11.8024194 C47.4758065,-12.4638249 48.0119816,-13 48.6733871,-13 C49.3347926,-13 49.8709677,-12.4638249 49.8709677,-11.8024194 C49.8709677,-11.1410138 49.3347926,-10.6048387 48.6733871,-10.6048387 Z M57.4556452,-10.6048387 C56.7942396,-10.6048387 56.2580645,-11.1410138 56.2580645,-11.8024194 C56.2580645,-12.4638249 56.7942396,-13 57.4556452,-13 C58.1170507,-13 58.6532258,-12.4638249 58.6532258,-11.8024194 C58.6532258,-11.1410138 58.1170507,-10.6048387 57.4556452,-10.6048387 Z M66.2379032,-10.6048387 C65.5764977,-10.6048387 65.0403226,-11.1410138 65.0403226,-11.8024194 C65.0403226,-12.4638249 65.5764977,-13 66.2379032,-13 C66.8993088,-13 67.4354839,-12.4638249 67.4354839,-11.8024194 C67.4354839,-11.1410138 66.8993088,-10.6048387 66.2379032,-10.6048387 Z M75.0201613,-10.6048387 C74.3587558,-10.6048387 73.8225806,-11.1410138 73.8225806,-11.8024194 C73.8225806,-12.4638249 74.3587558,-13 75.0201613,-13 C75.6815668,-13 76.2177419,-12.4638249 76.2177419,-11.8024194 C76.2177419,-11.1410138 75.6815668,-10.6048387 75.0201613,-10.6048387 Z M83.8024194,-10.6048387 C83.1410138,-10.6048387 82.6048387,-11.1410138 82.6048387,-11.8024194 C82.6048387,-12.4638249 83.1410138,-13 83.8024194,-13 C84.4638249,-13 85,-12.4638249 85,-11.8024194 C85,-11.1410138 84.4638249,-10.6048387 83.8024194,-10.6048387 Z M-12.8024194,-1.82258065 C-13.4638249,-1.82258065 -14,-2.35875576 -14,-3.02016129 C-14,-3.68156682 -13.4638249,-4.21774194 -12.8024194,-4.21774194 C-12.1410138,-4.21774194 -11.6048387,-3.68156682 -11.6048387,-3.02016129 C-11.6048387,-2.35875576 -12.1410138,-1.82258065 -12.8024194,-1.82258065 Z M-4.02016129,-1.82258065 C-4.68156682,-1.82258065 -5.21774194,-2.35875576 -5.21774194,-3.02016129 C-5.21774194,-3.68156682 -4.68156682,-4.21774194 -4.02016129,-4.21774194 C-3.35875576,-4.21774194 -2.82258065,-3.68156682 -2.82258065,-3.02016129 C-2.82258065,-2.35875576 -3.35875576,-1.82258065 -4.02016129,-1.82258065 Z M4.76209677,-1.82258065 C4.10069125,-1.82258065 3.56451613,-2.35875576 3.56451613,-3.02016129 C3.56451613,-3.68156682 4.10069125,-4.21774194 4.76209677,-4.21774194 C5.4235023,-4.21774194 5.95967742,-3.68156682 5.95967742,-3.02016129 C5.95967742,-2.35875576 5.4235023,-1.82258065 4.76209677,-1.82258065 Z M13.5443548,-1.82258065 C12.8829493,-1.82258065 12.3467742,-2.35875576 12.3467742,-3.02016129 C12.3467742,-3.68156682 12.8829493,-4.21774194 13.5443548,-4.21774194 C14.2057604,-4.21774194 14.7419355,-3.68156682 14.7419355,-3.02016129 C14.7419355,-2.35875576 14.2057604,-1.82258065 13.5443548,-1.82258065 Z M22.3266129,-1.82258065 C21.6652074,-1.82258065 21.1290323,-2.35875576 21.1290323,-3.02016129 C21.1290323,-3.68156682 21.6652074,-4.21774194 22.3266129,-4.21774194 C22.9880184,-4.21774194 23.5241935,-3.68156682 23.5241935,-3.02016129 C23.5241935,-2.35875576 22.9880184,-1.82258065 22.3266129,-1.82258065 Z M31.108871,-1.82258065 C30.4474654,-1.82258065 29.9112903,-2.35875576 29.9112903,-3.02016129 C29.9112903,-3.68156682 30.4474654,-4.21774194 31.108871,-4.21774194 C31.7702765,-4.21774194 32.3064516,-3.68156682 32.3064516,-3.02016129 C32.3064516,-2.35875576 31.7702765,-1.82258065 31.108871,-1.82258065 Z M39.891129,-1.82258065 C39.2297235,-1.82258065 38.6935484,-2.35875576 38.6935484,-3.02016129 C38.6935484,-3.68156682 39.2297235,-4.21774194 39.891129,-4.21774194 C40.5525346,-4.21774194 41.0887097,-3.68156682 41.0887097,-3.02016129 C41.0887097,-2.35875576 40.5525346,-1.82258065 39.891129,-1.82258065 Z M48.6733871,-1.82258065 C48.0119816,-1.82258065 47.4758065,-2.35875576 47.4758065,-3.02016129 C47.4758065,-3.68156682 48.0119816,-4.21774194 48.6733871,-4.21774194 C49.3347926,-4.21774194 49.8709677,-3.68156682 49.8709677,-3.02016129 C49.8709677,-2.35875576 49.3347926,-1.82258065 48.6733871,-1.82258065 Z M57.4556452,-1.82258065 C56.7942396,-1.82258065 56.2580645,-2.35875576 56.2580645,-3.02016129 C56.2580645,-3.68156682 56.7942396,-4.21774194 57.4556452,-4.21774194 C58.1170507,-4.21774194 58.6532258,-3.68156682 58.6532258,-3.02016129 C58.6532258,-2.35875576 58.1170507,-1.82258065 57.4556452,-1.82258065 Z M66.2379032,-1.82258065 C65.5764977,-1.82258065 65.0403226,-2.35875576 65.0403226,-3.02016129 C65.0403226,-3.68156682 65.5764977,-4.21774194 66.2379032,-4.21774194 C66.8993088,-4.21774194 67.4354839,-3.68156682 67.4354839,-3.02016129 C67.4354839,-2.35875576 66.8993088,-1.82258065 66.2379032,-1.82258065 Z M75.0201613,-1.82258065 C74.3587558,-1.82258065 73.8225806,-2.35875576 73.8225806,-3.02016129 C73.8225806,-3.68156682 74.3587558,-4.21774194 75.0201613,-4.21774194 C75.6815668,-4.21774194 76.2177419,-3.68156682 76.2177419,-3.02016129 C76.2177419,-2.35875576 75.6815668,-1.82258065 75.0201613,-1.82258065 Z M83.8024194,-1.82258065 C83.1410138,-1.82258065 82.6048387,-2.35875576 82.6048387,-3.02016129 C82.6048387,-3.68156682 83.1410138,-4.21774194 83.8024194,-4.21774194 C84.4638249,-4.21774194 85,-3.68156682 85,-3.02016129 C85,-2.35875576 84.4638249,-1.82258065 83.8024194,-1.82258065 Z M-12.8024194,6.95967742 C-13.4638249,6.95967742 -14,6.4235023 -14,5.76209677 C-14,5.10069125 -13.4638249,4.56451613 -12.8024194,4.56451613 C-12.1410138,4.56451613 -11.6048387,5.10069125 -11.6048387,5.76209677 C-11.6048387,6.4235023 -12.1410138,6.95967742 -12.8024194,6.95967742 Z M-4.02016129,6.95967742 C-4.68156682,6.95967742 -5.21774194,6.4235023 -5.21774194,5.76209677 C-5.21774194,5.10069125 -4.68156682,4.56451613 -4.02016129,4.56451613 C-3.35875576,4.56451613 -2.82258065,5.10069125 -2.82258065,5.76209677 C-2.82258065,6.4235023 -3.35875576,6.95967742 -4.02016129,6.95967742 Z M4.76209677,6.95967742 C4.10069125,6.95967742 3.56451613,6.4235023 3.56451613,5.76209677 C3.56451613,5.10069125 4.10069125,4.56451613 4.76209677,4.56451613 C5.4235023,4.56451613 5.95967742,5.10069125 5.95967742,5.76209677 C5.95967742,6.4235023 5.4235023,6.95967742 4.76209677,6.95967742 Z M13.5443548,6.95967742 C12.8829493,6.95967742 12.3467742,6.4235023 12.3467742,5.76209677 C12.3467742,5.10069125 12.8829493,4.56451613 13.5443548,4.56451613 C14.2057604,4.56451613 14.7419355,5.10069125 14.7419355,5.76209677 C14.7419355,6.4235023 14.2057604,6.95967742 13.5443548,6.95967742 Z M22.3266129,6.95967742 C21.6652074,6.95967742 21.1290323,6.4235023 21.1290323,5.76209677 C21.1290323,5.10069125 21.6652074,4.56451613 22.3266129,4.56451613 C22.9880184,4.56451613 23.5241935,5.10069125 23.5241935,5.76209677 C23.5241935,6.4235023 22.9880184,6.95967742 22.3266129,6.95967742 Z M31.108871,6.95967742 C30.4474654,6.95967742 29.9112903,6.4235023 29.9112903,5.76209677 C29.9112903,5.10069125 30.4474654,4.56451613 31.108871,4.56451613 C31.7702765,4.56451613 32.3064516,5.10069125 32.3064516,5.76209677 C32.3064516,6.4235023 31.7702765,6.95967742 31.108871,6.95967742 Z M39.891129,6.95967742 C39.2297235,6.95967742 38.6935484,6.4235023 38.6935484,5.76209677 C38.6935484,5.10069125 39.2297235,4.56451613 39.891129,4.56451613 C40.5525346,4.56451613 41.0887097,5.10069125 41.0887097,5.76209677 C41.0887097,6.4235023 40.5525346,6.95967742 39.891129,6.95967742 Z M48.6733871,6.95967742 C48.0119816,6.95967742 47.4758065,6.4235023 47.4758065,5.76209677 C47.4758065,5.10069125 48.0119816,4.56451613 48.6733871,4.56451613 C49.3347926,4.56451613 49.8709677,5.10069125 49.8709677,5.76209677 C49.8709677,6.4235023 49.3347926,6.95967742 48.6733871,6.95967742 Z M57.4556452,6.95967742 C56.7942396,6.95967742 56.2580645,6.4235023 56.2580645,5.76209677 C56.2580645,5.10069125 56.7942396,4.56451613 57.4556452,4.56451613 C58.1170507,4.56451613 58.6532258,5.10069125 58.6532258,5.76209677 C58.6532258,6.4235023 58.1170507,6.95967742 57.4556452,6.95967742 Z M66.2379032,6.95967742 C65.5764977,6.95967742 65.0403226,6.4235023 65.0403226,5.76209677 C65.0403226,5.10069125 65.5764977,4.56451613 66.2379032,4.56451613 C66.8993088,4.56451613 67.4354839,5.10069125 67.4354839,5.76209677 C67.4354839,6.4235023 66.8993088,6.95967742 66.2379032,6.95967742 Z M75.0201613,6.95967742 C74.3587558,6.95967742 73.8225806,6.4235023 73.8225806,5.76209677 C73.8225806,5.10069125 74.3587558,4.56451613 75.0201613,4.56451613 C75.6815668,4.56451613 76.2177419,5.10069125 76.2177419,5.76209677 C76.2177419,6.4235023 75.6815668,6.95967742 75.0201613,6.95967742 Z M83.8024194,6.95967742 C83.1410138,6.95967742 82.6048387,6.4235023 82.6048387,5.76209677 C82.6048387,5.10069125 83.1410138,4.56451613 83.8024194,4.56451613 C84.4638249,4.56451613 85,5.10069125 85,5.76209677 C85,6.4235023 84.4638249,6.95967742 83.8024194,6.95967742 Z M-12.8024194,15.7419355 C-13.4638249,15.7419355 -14,15.2057604 -14,14.5443548 C-14,13.8829493 -13.4638249,13.3467742 -12.8024194,13.3467742 C-12.1410138,13.3467742 -11.6048387,13.8829493 -11.6048387,14.5443548 C-11.6048387,15.2057604 -12.1410138,15.7419355 -12.8024194,15.7419355 Z M-4.02016129,15.7419355 C-4.68156682,15.7419355 -5.21774194,15.2057604 -5.21774194,14.5443548 C-5.21774194,13.8829493 -4.68156682,13.3467742 -4.02016129,13.3467742 C-3.35875576,13.3467742 -2.82258065,13.8829493 -2.82258065,14.5443548 C-2.82258065,15.2057604 -3.35875576,15.7419355 -4.02016129,15.7419355 Z M4.76209677,15.7419355 C4.10069125,15.7419355 3.56451613,15.2057604 3.56451613,14.5443548 C3.56451613,13.8829493 4.10069125,13.3467742 4.76209677,13.3467742 C5.4235023,13.3467742 5.95967742,13.8829493 5.95967742,14.5443548 C5.95967742,15.2057604 5.4235023,15.7419355 4.76209677,15.7419355 Z M13.5443548,15.7419355 C12.8829493,15.7419355 12.3467742,15.2057604 12.3467742,14.5443548 C12.3467742,13.8829493 12.8829493,13.3467742 13.5443548,13.3467742 C14.2057604,13.3467742 14.7419355,13.8829493 14.7419355,14.5443548 C14.7419355,15.2057604 14.2057604,15.7419355 13.5443548,15.7419355 Z M22.3266129,15.7419355 C21.6652074,15.7419355 21.1290323,15.2057604 21.1290323,14.5443548 C21.1290323,13.8829493 21.6652074,13.3467742 22.3266129,13.3467742 C22.9880184,13.3467742 23.5241935,13.8829493 23.5241935,14.5443548 C23.5241935,15.2057604 22.9880184,15.7419355 22.3266129,15.7419355 Z M31.108871,15.7419355 C30.4474654,15.7419355 29.9112903,15.2057604 29.9112903,14.5443548 C29.9112903,13.8829493 30.4474654,13.3467742 31.108871,13.3467742 C31.7702765,13.3467742 32.3064516,13.8829493 32.3064516,14.5443548 C32.3064516,15.2057604 31.7702765,15.7419355 31.108871,15.7419355 Z M39.891129,15.7419355 C39.2297235,15.7419355 38.6935484,15.2057604 38.6935484,14.5443548 C38.6935484,13.8829493 39.2297235,13.3467742 39.891129,13.3467742 C40.5525346,13.3467742 41.0887097,13.8829493 41.0887097,14.5443548 C41.0887097,15.2057604 40.5525346,15.7419355 39.891129,15.7419355 Z M48.6733871,15.7419355 C48.0119816,15.7419355 47.4758065,15.2057604 47.4758065,14.5443548 C47.4758065,13.8829493 48.0119816,13.3467742 48.6733871,13.3467742 C49.3347926,13.3467742 49.8709677,13.8829493 49.8709677,14.5443548 C49.8709677,15.2057604 49.3347926,15.7419355 48.6733871,15.7419355 Z M57.4556452,15.7419355 C56.7942396,15.7419355 56.2580645,15.2057604 56.2580645,14.5443548 C56.2580645,13.8829493 56.7942396,13.3467742 57.4556452,13.3467742 C58.1170507,13.3467742 58.6532258,13.8829493 58.6532258,14.5443548 C58.6532258,15.2057604 58.1170507,15.7419355 57.4556452,15.7419355 Z M66.2379032,15.7419355 C65.5764977,15.7419355 65.0403226,15.2057604 65.0403226,14.5443548 C65.0403226,13.8829493 65.5764977,13.3467742 66.2379032,13.3467742 C66.8993088,13.3467742 67.4354839,13.8829493 67.4354839,14.5443548 C67.4354839,15.2057604 66.8993088,15.7419355 66.2379032,15.7419355 Z M75.0201613,15.7419355 C74.3587558,15.7419355 73.8225806,15.2057604 73.8225806,14.5443548 C73.8225806,13.8829493 74.3587558,13.3467742 75.0201613,13.3467742 C75.6815668,13.3467742 76.2177419,13.8829493 76.2177419,14.5443548 C76.2177419,15.2057604 75.6815668,15.7419355 75.0201613,15.7419355 Z M83.8024194,15.7419355 C83.1410138,15.7419355 82.6048387,15.2057604 82.6048387,14.5443548 C82.6048387,13.8829493 83.1410138,13.3467742 83.8024194,13.3467742 C84.4638249,13.3467742 85,13.8829493 85,14.5443548 C85,15.2057604 84.4638249,15.7419355 83.8024194,15.7419355 Z M-12.8024194,24.5241935 C-13.4638249,24.5241935 -14,23.9880184 -14,23.3266129 C-14,22.6652074 -13.4638249,22.1290323 -12.8024194,22.1290323 C-12.1410138,22.1290323 -11.6048387,22.6652074 -11.6048387,23.3266129 C-11.6048387,23.9880184 -12.1410138,24.5241935 -12.8024194,24.5241935 Z M-4.02016129,24.5241935 C-4.68156682,24.5241935 -5.21774194,23.9880184 -5.21774194,23.3266129 C-5.21774194,22.6652074 -4.68156682,22.1290323 -4.02016129,22.1290323 C-3.35875576,22.1290323 -2.82258065,22.6652074 -2.82258065,23.3266129 C-2.82258065,23.9880184 -3.35875576,24.5241935 -4.02016129,24.5241935 Z M4.76209677,24.5241935 C4.10069125,24.5241935 3.56451613,23.9880184 3.56451613,23.3266129 C3.56451613,22.6652074 4.10069125,22.1290323 4.76209677,22.1290323 C5.4235023,22.1290323 5.95967742,22.6652074 5.95967742,23.3266129 C5.95967742,23.9880184 5.4235023,24.5241935 4.76209677,24.5241935 Z M13.5443548,24.5241935 C12.8829493,24.5241935 12.3467742,23.9880184 12.3467742,23.3266129 C12.3467742,22.6652074 12.8829493,22.1290323 13.5443548,22.1290323 C14.2057604,22.1290323 14.7419355,22.6652074 14.7419355,23.3266129 C14.7419355,23.9880184 14.2057604,24.5241935 13.5443548,24.5241935 Z M22.3266129,24.5241935 C21.6652074,24.5241935 21.1290323,23.9880184 21.1290323,23.3266129 C21.1290323,22.6652074 21.6652074,22.1290323 22.3266129,22.1290323 C22.9880184,22.1290323 23.5241935,22.6652074 23.5241935,23.3266129 C23.5241935,23.9880184 22.9880184,24.5241935 22.3266129,24.5241935 Z M31.108871,24.5241935 C30.4474654,24.5241935 29.9112903,23.9880184 29.9112903,23.3266129 C29.9112903,22.6652074 30.4474654,22.1290323 31.108871,22.1290323 C31.7702765,22.1290323 32.3064516,22.6652074 32.3064516,23.3266129 C32.3064516,23.9880184 31.7702765,24.5241935 31.108871,24.5241935 Z M39.891129,24.5241935 C39.2297235,24.5241935 38.6935484,23.9880184 38.6935484,23.3266129 C38.6935484,22.6652074 39.2297235,22.1290323 39.891129,22.1290323 C40.5525346,22.1290323 41.0887097,22.6652074 41.0887097,23.3266129 C41.0887097,23.9880184 40.5525346,24.5241935 39.891129,24.5241935 Z M48.6733871,24.5241935 C48.0119816,24.5241935 47.4758065,23.9880184 47.4758065,23.3266129 C47.4758065,22.6652074 48.0119816,22.1290323 48.6733871,22.1290323 C49.3347926,22.1290323 49.8709677,22.6652074 49.8709677,23.3266129 C49.8709677,23.9880184 49.3347926,24.5241935 48.6733871,24.5241935 Z M57.4556452,24.5241935 C56.7942396,24.5241935 56.2580645,23.9880184 56.2580645,23.3266129 C56.2580645,22.6652074 56.7942396,22.1290323 57.4556452,22.1290323 C58.1170507,22.1290323 58.6532258,22.6652074 58.6532258,23.3266129 C58.6532258,23.9880184 58.1170507,24.5241935 57.4556452,24.5241935 Z M66.2379032,24.5241935 C65.5764977,24.5241935 65.0403226,23.9880184 65.0403226,23.3266129 C65.0403226,22.6652074 65.5764977,22.1290323 66.2379032,22.1290323 C66.8993088,22.1290323 67.4354839,22.6652074 67.4354839,23.3266129 C67.4354839,23.9880184 66.8993088,24.5241935 66.2379032,24.5241935 Z M75.0201613,24.5241935 C74.3587558,24.5241935 73.8225806,23.9880184 73.8225806,23.3266129 C73.8225806,22.6652074 74.3587558,22.1290323 75.0201613,22.1290323 C75.6815668,22.1290323 76.2177419,22.6652074 76.2177419,23.3266129 C76.2177419,23.9880184 75.6815668,24.5241935 75.0201613,24.5241935 Z M83.8024194,24.5241935 C83.1410138,24.5241935 82.6048387,23.9880184 82.6048387,23.3266129 C82.6048387,22.6652074 83.1410138,22.1290323 83.8024194,22.1290323 C84.4638249,22.1290323 85,22.6652074 85,23.3266129 C85,23.9880184 84.4638249,24.5241935 83.8024194,24.5241935 Z M-12.8024194,33.3064516 C-13.4638249,33.3064516 -14,32.7702765 -14,32.108871 C-14,31.4474654 -13.4638249,30.9112903 -12.8024194,30.9112903 C-12.1410138,30.9112903 -11.6048387,31.4474654 -11.6048387,32.108871 C-11.6048387,32.7702765 -12.1410138,33.3064516 -12.8024194,33.3064516 Z M-4.02016129,33.3064516 C-4.68156682,33.3064516 -5.21774194,32.7702765 -5.21774194,32.108871 C-5.21774194,31.4474654 -4.68156682,30.9112903 -4.02016129,30.9112903 C-3.35875576,30.9112903 -2.82258065,31.4474654 -2.82258065,32.108871 C-2.82258065,32.7702765 -3.35875576,33.3064516 -4.02016129,33.3064516 Z M4.76209677,33.3064516 C4.10069125,33.3064516 3.56451613,32.7702765 3.56451613,32.108871 C3.56451613,31.4474654 4.10069125,30.9112903 4.76209677,30.9112903 C5.4235023,30.9112903 5.95967742,31.4474654 5.95967742,32.108871 C5.95967742,32.7702765 5.4235023,33.3064516 4.76209677,33.3064516 Z M13.5443548,33.3064516 C12.8829493,33.3064516 12.3467742,32.7702765 12.3467742,32.108871 C12.3467742,31.4474654 12.8829493,30.9112903 13.5443548,30.9112903 C14.2057604,30.9112903 14.7419355,31.4474654 14.7419355,32.108871 C14.7419355,32.7702765 14.2057604,33.3064516 13.5443548,33.3064516 Z M22.3266129,33.3064516 C21.6652074,33.3064516 21.1290323,32.7702765 21.1290323,32.108871 C21.1290323,31.4474654 21.6652074,30.9112903 22.3266129,30.9112903 C22.9880184,30.9112903 23.5241935,31.4474654 23.5241935,32.108871 C23.5241935,32.7702765 22.9880184,33.3064516 22.3266129,33.3064516 Z M-12.8024194,42.0887097 C-13.4638249,42.0887097 -14,41.5525346 -14,40.891129 C-14,40.2297235 -13.4638249,39.6935484 -12.8024194,39.6935484 C-12.1410138,39.6935484 -11.6048387,40.2297235 -11.6048387,40.891129 C-11.6048387,41.5525346 -12.1410138,42.0887097 -12.8024194,42.0887097 Z M-4.02016129,42.0887097 C-4.68156682,42.0887097 -5.21774194,41.5525346 -5.21774194,40.891129 C-5.21774194,40.2297235 -4.68156682,39.6935484 -4.02016129,39.6935484 C-3.35875576,39.6935484 -2.82258065,40.2297235 -2.82258065,40.891129 C-2.82258065,41.5525346 -3.35875576,42.0887097 -4.02016129,42.0887097 Z M4.76209677,42.0887097 C4.10069125,42.0887097 3.56451613,41.5525346 3.56451613,40.891129 C3.56451613,40.2297235 4.10069125,39.6935484 4.76209677,39.6935484 C5.4235023,39.6935484 5.95967742,40.2297235 5.95967742,40.891129 C5.95967742,41.5525346 5.4235023,42.0887097 4.76209677,42.0887097 Z M13.5443548,42.0887097 C12.8829493,42.0887097 12.3467742,41.5525346 12.3467742,40.891129 C12.3467742,40.2297235 12.8829493,39.6935484 13.5443548,39.6935484 C14.2057604,39.6935484 14.7419355,40.2297235 14.7419355,40.891129 C14.7419355,41.5525346 14.2057604,42.0887097 13.5443548,42.0887097 Z M22.3266129,42.0887097 C21.6652074,42.0887097 21.1290323,41.5525346 21.1290323,40.891129 C21.1290323,40.2297235 21.6652074,39.6935484 22.3266129,39.6935484 C22.9880184,39.6935484 23.5241935,40.2297235 23.5241935,40.891129 C23.5241935,41.5525346 22.9880184,42.0887097 22.3266129,42.0887097 Z M-12.8024194,50.8709677 C-13.4638249,50.8709677 -14,50.3347926 -14,49.6733871 C-14,49.0119816 -13.4638249,48.4758065 -12.8024194,48.4758065 C-12.1410138,48.4758065 -11.6048387,49.0119816 -11.6048387,49.6733871 C-11.6048387,50.3347926 -12.1410138,50.8709677 -12.8024194,50.8709677 Z M-4.02016129,50.8709677 C-4.68156682,50.8709677 -5.21774194,50.3347926 -5.21774194,49.6733871 C-5.21774194,49.0119816 -4.68156682,48.4758065 -4.02016129,48.4758065 C-3.35875576,48.4758065 -2.82258065,49.0119816 -2.82258065,49.6733871 C-2.82258065,50.3347926 -3.35875576,50.8709677 -4.02016129,50.8709677 Z M4.76209677,50.8709677 C4.10069125,50.8709677 3.56451613,50.3347926 3.56451613,49.6733871 C3.56451613,49.0119816 4.10069125,48.4758065 4.76209677,48.4758065 C5.4235023,48.4758065 5.95967742,49.0119816 5.95967742,49.6733871 C5.95967742,50.3347926 5.4235023,50.8709677 4.76209677,50.8709677 Z M13.5443548,50.8709677 C12.8829493,50.8709677 12.3467742,50.3347926 12.3467742,49.6733871 C12.3467742,49.0119816 12.8829493,48.4758065 13.5443548,48.4758065 C14.2057604,48.4758065 14.7419355,49.0119816 14.7419355,49.6733871 C14.7419355,50.3347926 14.2057604,50.8709677 13.5443548,50.8709677 Z M22.3266129,50.8709677 C21.6652074,50.8709677 21.1290323,50.3347926 21.1290323,49.6733871 C21.1290323,49.0119816 21.6652074,48.4758065 22.3266129,48.4758065 C22.9880184,48.4758065 23.5241935,49.0119816 23.5241935,49.6733871 C23.5241935,50.3347926 22.9880184,50.8709677 22.3266129,50.8709677 Z M-12.8024194,59.6532258 C-13.4638249,59.6532258 -14,59.1170507 -14,58.4556452 C-14,57.7942396 -13.4638249,57.2580645 -12.8024194,57.2580645 C-12.1410138,57.2580645 -11.6048387,57.7942396 -11.6048387,58.4556452 C-11.6048387,59.1170507 -12.1410138,59.6532258 -12.8024194,59.6532258 Z M-4.02016129,59.6532258 C-4.68156682,59.6532258 -5.21774194,59.1170507 -5.21774194,58.4556452 C-5.21774194,57.7942396 -4.68156682,57.2580645 -4.02016129,57.2580645 C-3.35875576,57.2580645 -2.82258065,57.7942396 -2.82258065,58.4556452 C-2.82258065,59.1170507 -3.35875576,59.6532258 -4.02016129,59.6532258 Z M4.76209677,59.6532258 C4.10069125,59.6532258 3.56451613,59.1170507 3.56451613,58.4556452 C3.56451613,57.7942396 4.10069125,57.2580645 4.76209677,57.2580645 C5.4235023,57.2580645 5.95967742,57.7942396 5.95967742,58.4556452 C5.95967742,59.1170507 5.4235023,59.6532258 4.76209677,59.6532258 Z M13.5443548,59.6532258 C12.8829493,59.6532258 12.3467742,59.1170507 12.3467742,58.4556452 C12.3467742,57.7942396 12.8829493,57.2580645 13.5443548,57.2580645 C14.2057604,57.2580645 14.7419355,57.7942396 14.7419355,58.4556452 C14.7419355,59.1170507 14.2057604,59.6532258 13.5443548,59.6532258 Z M22.3266129,59.6532258 C21.6652074,59.6532258 21.1290323,59.1170507 21.1290323,58.4556452 C21.1290323,57.7942396 21.6652074,57.2580645 22.3266129,57.2580645 C22.9880184,57.2580645 23.5241935,57.7942396 23.5241935,58.4556452 C23.5241935,59.1170507 22.9880184,59.6532258 22.3266129,59.6532258 Z M-12.8024194,68.4354839 C-13.4638249,68.4354839 -14,67.8993088 -14,67.2379032 C-14,66.5764977 -13.4638249,66.0403226 -12.8024194,66.0403226 C-12.1410138,66.0403226 -11.6048387,66.5764977 -11.6048387,67.2379032 C-11.6048387,67.8993088 -12.1410138,68.4354839 -12.8024194,68.4354839 Z M-4.02016129,68.4354839 C-4.68156682,68.4354839 -5.21774194,67.8993088 -5.21774194,67.2379032 C-5.21774194,66.5764977 -4.68156682,66.0403226 -4.02016129,66.0403226 C-3.35875576,66.0403226 -2.82258065,66.5764977 -2.82258065,67.2379032 C-2.82258065,67.8993088 -3.35875576,68.4354839 -4.02016129,68.4354839 Z M4.76209677,68.4354839 C4.10069125,68.4354839 3.56451613,67.8993088 3.56451613,67.2379032 C3.56451613,66.5764977 4.10069125,66.0403226 4.76209677,66.0403226 C5.4235023,66.0403226 5.95967742,66.5764977 5.95967742,67.2379032 C5.95967742,67.8993088 5.4235023,68.4354839 4.76209677,68.4354839 Z M13.5443548,68.4354839 C12.8829493,68.4354839 12.3467742,67.8993088 12.3467742,67.2379032 C12.3467742,66.5764977 12.8829493,66.0403226 13.5443548,66.0403226 C14.2057604,66.0403226 14.7419355,66.5764977 14.7419355,67.2379032 C14.7419355,67.8993088 14.2057604,68.4354839 13.5443548,68.4354839 Z M22.3266129,68.4354839 C21.6652074,68.4354839 21.1290323,67.8993088 21.1290323,67.2379032 C21.1290323,66.5764977 21.6652074,66.0403226 22.3266129,66.0403226 C22.9880184,66.0403226 23.5241935,66.5764977 23.5241935,67.2379032 C23.5241935,67.8993088 22.9880184,68.4354839 22.3266129,68.4354839 Z M-12.8024194,77.2177419 C-13.4638249,77.2177419 -14,76.6815668 -14,76.0201613 C-14,75.3587558 -13.4638249,74.8225806 -12.8024194,74.8225806 C-12.1410138,74.8225806 -11.6048387,75.3587558 -11.6048387,76.0201613 C-11.6048387,76.6815668 -12.1410138,77.2177419 -12.8024194,77.2177419 Z M-4.02016129,77.2177419 C-4.68156682,77.2177419 -5.21774194,76.6815668 -5.21774194,76.0201613 C-5.21774194,75.3587558 -4.68156682,74.8225806 -4.02016129,74.8225806 C-3.35875576,74.8225806 -2.82258065,75.3587558 -2.82258065,76.0201613 C-2.82258065,76.6815668 -3.35875576,77.2177419 -4.02016129,77.2177419 Z M4.76209677,77.2177419 C4.10069125,77.2177419 3.56451613,76.6815668 3.56451613,76.0201613 C3.56451613,75.3587558 4.10069125,74.8225806 4.76209677,74.8225806 C5.4235023,74.8225806 5.95967742,75.3587558 5.95967742,76.0201613 C5.95967742,76.6815668 5.4235023,77.2177419 4.76209677,77.2177419 Z M13.5443548,77.2177419 C12.8829493,77.2177419 12.3467742,76.6815668 12.3467742,76.0201613 C12.3467742,75.3587558 12.8829493,74.8225806 13.5443548,74.8225806 C14.2057604,74.8225806 14.7419355,75.3587558 14.7419355,76.0201613 C14.7419355,76.6815668 14.2057604,77.2177419 13.5443548,77.2177419 Z M22.3266129,77.2177419 C21.6652074,77.2177419 21.1290323,76.6815668 21.1290323,76.0201613 C21.1290323,75.3587558 21.6652074,74.8225806 22.3266129,74.8225806 C22.9880184,74.8225806 23.5241935,75.3587558 23.5241935,76.0201613 C23.5241935,76.6815668 22.9880184,77.2177419 22.3266129,77.2177419 Z M-12.8024194,86 C-13.4638249,86 -14,85.4638249 -14,84.8024194 C-14,84.1410138 -13.4638249,83.6048387 -12.8024194,83.6048387 C-12.1410138,83.6048387 -11.6048387,84.1410138 -11.6048387,84.8024194 C-11.6048387,85.4638249 -12.1410138,86 -12.8024194,86 Z M-4.02016129,86 C-4.68156682,86 -5.21774194,85.4638249 -5.21774194,84.8024194 C-5.21774194,84.1410138 -4.68156682,83.6048387 -4.02016129,83.6048387 C-3.35875576,83.6048387 -2.82258065,84.1410138 -2.82258065,84.8024194 C-2.82258065,85.4638249 -3.35875576,86 -4.02016129,86 Z M4.76209677,86 C4.10069125,86 3.56451613,85.4638249 3.56451613,84.8024194 C3.56451613,84.1410138 4.10069125,83.6048387 4.76209677,83.6048387 C5.4235023,83.6048387 5.95967742,84.1410138 5.95967742,84.8024194 C5.95967742,85.4638249 5.4235023,86 4.76209677,86 Z M13.5443548,86 C12.8829493,86 12.3467742,85.4638249 12.3467742,84.8024194 C12.3467742,84.1410138 12.8829493,83.6048387 13.5443548,83.6048387 C14.2057604,83.6048387 14.7419355,84.1410138 14.7419355,84.8024194 C14.7419355,85.4638249 14.2057604,86 13.5443548,86 Z M22.3266129,86 C21.6652074,86 21.1290323,85.4638249 21.1290323,84.8024194 C21.1290323,84.1410138 21.6652074,83.6048387 22.3266129,83.6048387 C22.9880184,83.6048387 23.5241935,84.1410138 23.5241935,84.8024194 C23.5241935,85.4638249 22.9880184,86 22.3266129,86 Z M31.108871,33.3064516 C30.4474654,33.3064516 29.9112903,32.7702765 29.9112903,32.108871 C29.9112903,31.4474654 30.4474654,30.9112903 31.108871,30.9112903 C31.7702765,30.9112903 32.3064516,31.4474654 32.3064516,32.108871 C32.3064516,32.7702765 31.7702765,33.3064516 31.108871,33.3064516 Z M39.891129,33.3064516 C39.2297235,33.3064516 38.6935484,32.7702765 38.6935484,32.108871 C38.6935484,31.4474654 39.2297235,30.9112903 39.891129,30.9112903 C40.5525346,30.9112903 41.0887097,31.4474654 41.0887097,32.108871 C41.0887097,32.7702765 40.5525346,33.3064516 39.891129,33.3064516 Z M48.6733871,33.3064516 C48.0119816,33.3064516 47.4758065,32.7702765 47.4758065,32.108871 C47.4758065,31.4474654 48.0119816,30.9112903 48.6733871,30.9112903 C49.3347926,30.9112903 49.8709677,31.4474654 49.8709677,32.108871 C49.8709677,32.7702765 49.3347926,33.3064516 48.6733871,33.3064516 Z M57.4556452,33.3064516 C56.7942396,33.3064516 56.2580645,32.7702765 56.2580645,32.108871 C56.2580645,31.4474654 56.7942396,30.9112903 57.4556452,30.9112903 C58.1170507,30.9112903 58.6532258,31.4474654 58.6532258,32.108871 C58.6532258,32.7702765 58.1170507,33.3064516 57.4556452,33.3064516 Z M66.2379032,33.3064516 C65.5764977,33.3064516 65.0403226,32.7702765 65.0403226,32.108871 C65.0403226,31.4474654 65.5764977,30.9112903 66.2379032,30.9112903 C66.8993088,30.9112903 67.4354839,31.4474654 67.4354839,32.108871 C67.4354839,32.7702765 66.8993088,33.3064516 66.2379032,33.3064516 Z M31.108871,42.0887097 C30.4474654,42.0887097 29.9112903,41.5525346 29.9112903,40.891129 C29.9112903,40.2297235 30.4474654,39.6935484 31.108871,39.6935484 C31.7702765,39.6935484 32.3064516,40.2297235 32.3064516,40.891129 C32.3064516,41.5525346 31.7702765,42.0887097 31.108871,42.0887097 Z M39.891129,42.0887097 C39.2297235,42.0887097 38.6935484,41.5525346 38.6935484,40.891129 C38.6935484,40.2297235 39.2297235,39.6935484 39.891129,39.6935484 C40.5525346,39.6935484 41.0887097,40.2297235 41.0887097,40.891129 C41.0887097,41.5525346 40.5525346,42.0887097 39.891129,42.0887097 Z M48.6733871,42.0887097 C48.0119816,42.0887097 47.4758065,41.5525346 47.4758065,40.891129 C47.4758065,40.2297235 48.0119816,39.6935484 48.6733871,39.6935484 C49.3347926,39.6935484 49.8709677,40.2297235 49.8709677,40.891129 C49.8709677,41.5525346 49.3347926,42.0887097 48.6733871,42.0887097 Z M57.4556452,42.0887097 C56.7942396,42.0887097 56.2580645,41.5525346 56.2580645,40.891129 C56.2580645,40.2297235 56.7942396,39.6935484 57.4556452,39.6935484 C58.1170507,39.6935484 58.6532258,40.2297235 58.6532258,40.891129 C58.6532258,41.5525346 58.1170507,42.0887097 57.4556452,42.0887097 Z M66.2379032,42.0887097 C65.5764977,42.0887097 65.0403226,41.5525346 65.0403226,40.891129 C65.0403226,40.2297235 65.5764977,39.6935484 66.2379032,39.6935484 C66.8993088,39.6935484 67.4354839,40.2297235 67.4354839,40.891129 C67.4354839,41.5525346 66.8993088,42.0887097 66.2379032,42.0887097 Z M31.108871,50.8709677 C30.4474654,50.8709677 29.9112903,50.3347926 29.9112903,49.6733871 C29.9112903,49.0119816 30.4474654,48.4758065 31.108871,48.4758065 C31.7702765,48.4758065 32.3064516,49.0119816 32.3064516,49.6733871 C32.3064516,50.3347926 31.7702765,50.8709677 31.108871,50.8709677 Z M39.891129,50.8709677 C39.2297235,50.8709677 38.6935484,50.3347926 38.6935484,49.6733871 C38.6935484,49.0119816 39.2297235,48.4758065 39.891129,48.4758065 C40.5525346,48.4758065 41.0887097,49.0119816 41.0887097,49.6733871 C41.0887097,50.3347926 40.5525346,50.8709677 39.891129,50.8709677 Z M48.6733871,50.8709677 C48.0119816,50.8709677 47.4758065,50.3347926 47.4758065,49.6733871 C47.4758065,49.0119816 48.0119816,48.4758065 48.6733871,48.4758065 C49.3347926,48.4758065 49.8709677,49.0119816 49.8709677,49.6733871 C49.8709677,50.3347926 49.3347926,50.8709677 48.6733871,50.8709677 Z M57.4556452,50.8709677 C56.7942396,50.8709677 56.2580645,50.3347926 56.2580645,49.6733871 C56.2580645,49.0119816 56.7942396,48.4758065 57.4556452,48.4758065 C58.1170507,48.4758065 58.6532258,49.0119816 58.6532258,49.6733871 C58.6532258,50.3347926 58.1170507,50.8709677 57.4556452,50.8709677 Z M66.2379032,50.8709677 C65.5764977,50.8709677 65.0403226,50.3347926 65.0403226,49.6733871 C65.0403226,49.0119816 65.5764977,48.4758065 66.2379032,48.4758065 C66.8993088,48.4758065 67.4354839,49.0119816 67.4354839,49.6733871 C67.4354839,50.3347926 66.8993088,50.8709677 66.2379032,50.8709677 Z M31.108871,59.6532258 C30.4474654,59.6532258 29.9112903,59.1170507 29.9112903,58.4556452 C29.9112903,57.7942396 30.4474654,57.2580645 31.108871,57.2580645 C31.7702765,57.2580645 32.3064516,57.7942396 32.3064516,58.4556452 C32.3064516,59.1170507 31.7702765,59.6532258 31.108871,59.6532258 Z M39.891129,59.6532258 C39.2297235,59.6532258 38.6935484,59.1170507 38.6935484,58.4556452 C38.6935484,57.7942396 39.2297235,57.2580645 39.891129,57.2580645 C40.5525346,57.2580645 41.0887097,57.7942396 41.0887097,58.4556452 C41.0887097,59.1170507 40.5525346,59.6532258 39.891129,59.6532258 Z M48.6733871,59.6532258 C48.0119816,59.6532258 47.4758065,59.1170507 47.4758065,58.4556452 C47.4758065,57.7942396 48.0119816,57.2580645 48.6733871,57.2580645 C49.3347926,57.2580645 49.8709677,57.7942396 49.8709677,58.4556452 C49.8709677,59.1170507 49.3347926,59.6532258 48.6733871,59.6532258 Z M57.4556452,59.6532258 C56.7942396,59.6532258 56.2580645,59.1170507 56.2580645,58.4556452 C56.2580645,57.7942396 56.7942396,57.2580645 57.4556452,57.2580645 C58.1170507,57.2580645 58.6532258,57.7942396 58.6532258,58.4556452 C58.6532258,59.1170507 58.1170507,59.6532258 57.4556452,59.6532258 Z M66.2379032,59.6532258 C65.5764977,59.6532258 65.0403226,59.1170507 65.0403226,58.4556452 C65.0403226,57.7942396 65.5764977,57.2580645 66.2379032,57.2580645 C66.8993088,57.2580645 67.4354839,57.7942396 67.4354839,58.4556452 C67.4354839,59.1170507 66.8993088,59.6532258 66.2379032,59.6532258 Z M31.108871,68.4354839 C30.4474654,68.4354839 29.9112903,67.8993088 29.9112903,67.2379032 C29.9112903,66.5764977 30.4474654,66.0403226 31.108871,66.0403226 C31.7702765,66.0403226 32.3064516,66.5764977 32.3064516,67.2379032 C32.3064516,67.8993088 31.7702765,68.4354839 31.108871,68.4354839 Z M39.891129,68.4354839 C39.2297235,68.4354839 38.6935484,67.8993088 38.6935484,67.2379032 C38.6935484,66.5764977 39.2297235,66.0403226 39.891129,66.0403226 C40.5525346,66.0403226 41.0887097,66.5764977 41.0887097,67.2379032 C41.0887097,67.8993088 40.5525346,68.4354839 39.891129,68.4354839 Z M48.6733871,68.4354839 C48.0119816,68.4354839 47.4758065,67.8993088 47.4758065,67.2379032 C47.4758065,66.5764977 48.0119816,66.0403226 48.6733871,66.0403226 C49.3347926,66.0403226 49.8709677,66.5764977 49.8709677,67.2379032 C49.8709677,67.8993088 49.3347926,68.4354839 48.6733871,68.4354839 Z M57.4556452,68.4354839 C56.7942396,68.4354839 56.2580645,67.8993088 56.2580645,67.2379032 C56.2580645,66.5764977 56.7942396,66.0403226 57.4556452,66.0403226 C58.1170507,66.0403226 58.6532258,66.5764977 58.6532258,67.2379032 C58.6532258,67.8993088 58.1170507,68.4354839 57.4556452,68.4354839 Z M66.2379032,68.4354839 C65.5764977,68.4354839 65.0403226,67.8993088 65.0403226,67.2379032 C65.0403226,66.5764977 65.5764977,66.0403226 66.2379032,66.0403226 C66.8993088,66.0403226 67.4354839,66.5764977 67.4354839,67.2379032 C67.4354839,67.8993088 66.8993088,68.4354839 66.2379032,68.4354839 Z M31.108871,77.2177419 C30.4474654,77.2177419 29.9112903,76.6815668 29.9112903,76.0201613 C29.9112903,75.3587558 30.4474654,74.8225806 31.108871,74.8225806 C31.7702765,74.8225806 32.3064516,75.3587558 32.3064516,76.0201613 C32.3064516,76.6815668 31.7702765,77.2177419 31.108871,77.2177419 Z M39.891129,77.2177419 C39.2297235,77.2177419 38.6935484,76.6815668 38.6935484,76.0201613 C38.6935484,75.3587558 39.2297235,74.8225806 39.891129,74.8225806 C40.5525346,74.8225806 41.0887097,75.3587558 41.0887097,76.0201613 C41.0887097,76.6815668 40.5525346,77.2177419 39.891129,77.2177419 Z M48.6733871,77.2177419 C48.0119816,77.2177419 47.4758065,76.6815668 47.4758065,76.0201613 C47.4758065,75.3587558 48.0119816,74.8225806 48.6733871,74.8225806 C49.3347926,74.8225806 49.8709677,75.3587558 49.8709677,76.0201613 C49.8709677,76.6815668 49.3347926,77.2177419 48.6733871,77.2177419 Z M57.4556452,77.2177419 C56.7942396,77.2177419 56.2580645,76.6815668 56.2580645,76.0201613 C56.2580645,75.3587558 56.7942396,74.8225806 57.4556452,74.8225806 C58.1170507,74.8225806 58.6532258,75.3587558 58.6532258,76.0201613 C58.6532258,76.6815668 58.1170507,77.2177419 57.4556452,77.2177419 Z M66.2379032,77.2177419 C65.5764977,77.2177419 65.0403226,76.6815668 65.0403226,76.0201613 C65.0403226,75.3587558 65.5764977,74.8225806 66.2379032,74.8225806 C66.8993088,74.8225806 67.4354839,75.3587558 67.4354839,76.0201613 C67.4354839,76.6815668 66.8993088,77.2177419 66.2379032,77.2177419 Z M31.108871,86 C30.4474654,86 29.9112903,85.4638249 29.9112903,84.8024194 C29.9112903,84.1410138 30.4474654,83.6048387 31.108871,83.6048387 C31.7702765,83.6048387 32.3064516,84.1410138 32.3064516,84.8024194 C32.3064516,85.4638249 31.7702765,86 31.108871,86 Z M39.891129,86 C39.2297235,86 38.6935484,85.4638249 38.6935484,84.8024194 C38.6935484,84.1410138 39.2297235,83.6048387 39.891129,83.6048387 C40.5525346,83.6048387 41.0887097,84.1410138 41.0887097,84.8024194 C41.0887097,85.4638249 40.5525346,86 39.891129,86 Z M48.6733871,86 C48.0119816,86 47.4758065,85.4638249 47.4758065,84.8024194 C47.4758065,84.1410138 48.0119816,83.6048387 48.6733871,83.6048387 C49.3347926,83.6048387 49.8709677,84.1410138 49.8709677,84.8024194 C49.8709677,85.4638249 49.3347926,86 48.6733871,86 Z M57.4556452,86 C56.7942396,86 56.2580645,85.4638249 56.2580645,84.8024194 C56.2580645,84.1410138 56.7942396,83.6048387 57.4556452,83.6048387 C58.1170507,83.6048387 58.6532258,84.1410138 58.6532258,84.8024194 C58.6532258,85.4638249 58.1170507,86 57.4556452,86 Z M66.2379032,86 C65.5764977,86 65.0403226,85.4638249 65.0403226,84.8024194 C65.0403226,84.1410138 65.5764977,83.6048387 66.2379032,83.6048387 C66.8993088,83.6048387 67.4354839,84.1410138 67.4354839,84.8024194 C67.4354839,85.4638249 66.8993088,86 66.2379032,86 Z M75.0201613,33.3064516 C74.3587558,33.3064516 73.8225806,32.7702765 73.8225806,32.108871 C73.8225806,31.4474654 74.3587558,30.9112903 75.0201613,30.9112903 C75.6815668,30.9112903 76.2177419,31.4474654 76.2177419,32.108871 C76.2177419,32.7702765 75.6815668,33.3064516 75.0201613,33.3064516 Z M83.8024194,33.3064516 C83.1410138,33.3064516 82.6048387,32.7702765 82.6048387,32.108871 C82.6048387,31.4474654 83.1410138,30.9112903 83.8024194,30.9112903 C84.4638249,30.9112903 85,31.4474654 85,32.108871 C85,32.7702765 84.4638249,33.3064516 83.8024194,33.3064516 Z M75.0201613,42.0887097 C74.3587558,42.0887097 73.8225806,41.5525346 73.8225806,40.891129 C73.8225806,40.2297235 74.3587558,39.6935484 75.0201613,39.6935484 C75.6815668,39.6935484 76.2177419,40.2297235 76.2177419,40.891129 C76.2177419,41.5525346 75.6815668,42.0887097 75.0201613,42.0887097 Z M83.8024194,42.0887097 C83.1410138,42.0887097 82.6048387,41.5525346 82.6048387,40.891129 C82.6048387,40.2297235 83.1410138,39.6935484 83.8024194,39.6935484 C84.4638249,39.6935484 85,40.2297235 85,40.891129 C85,41.5525346 84.4638249,42.0887097 83.8024194,42.0887097 Z M75.0201613,50.8709677 C74.3587558,50.8709677 73.8225806,50.3347926 73.8225806,49.6733871 C73.8225806,49.0119816 74.3587558,48.4758065 75.0201613,48.4758065 C75.6815668,48.4758065 76.2177419,49.0119816 76.2177419,49.6733871 C76.2177419,50.3347926 75.6815668,50.8709677 75.0201613,50.8709677 Z M83.8024194,50.8709677 C83.1410138,50.8709677 82.6048387,50.3347926 82.6048387,49.6733871 C82.6048387,49.0119816 83.1410138,48.4758065 83.8024194,48.4758065 C84.4638249,48.4758065 85,49.0119816 85,49.6733871 C85,50.3347926 84.4638249,50.8709677 83.8024194,50.8709677 Z M75.0201613,59.6532258 C74.3587558,59.6532258 73.8225806,59.1170507 73.8225806,58.4556452 C73.8225806,57.7942396 74.3587558,57.2580645 75.0201613,57.2580645 C75.6815668,57.2580645 76.2177419,57.7942396 76.2177419,58.4556452 C76.2177419,59.1170507 75.6815668,59.6532258 75.0201613,59.6532258 Z M83.8024194,59.6532258 C83.1410138,59.6532258 82.6048387,59.1170507 82.6048387,58.4556452 C82.6048387,57.7942396 83.1410138,57.2580645 83.8024194,57.2580645 C84.4638249,57.2580645 85,57.7942396 85,58.4556452 C85,59.1170507 84.4638249,59.6532258 83.8024194,59.6532258 Z M75.0201613,68.4354839 C74.3587558,68.4354839 73.8225806,67.8993088 73.8225806,67.2379032 C73.8225806,66.5764977 74.3587558,66.0403226 75.0201613,66.0403226 C75.6815668,66.0403226 76.2177419,66.5764977 76.2177419,67.2379032 C76.2177419,67.8993088 75.6815668,68.4354839 75.0201613,68.4354839 Z M83.8024194,68.4354839 C83.1410138,68.4354839 82.6048387,67.8993088 82.6048387,67.2379032 C82.6048387,66.5764977 83.1410138,66.0403226 83.8024194,66.0403226 C84.4638249,66.0403226 85,66.5764977 85,67.2379032 C85,67.8993088 84.4638249,68.4354839 83.8024194,68.4354839 Z M75.0201613,77.2177419 C74.3587558,77.2177419 73.8225806,76.6815668 73.8225806,76.0201613 C73.8225806,75.3587558 74.3587558,74.8225806 75.0201613,74.8225806 C75.6815668,74.8225806 76.2177419,75.3587558 76.2177419,76.0201613 C76.2177419,76.6815668 75.6815668,77.2177419 75.0201613,77.2177419 Z M83.8024194,77.2177419 C83.1410138,77.2177419 82.6048387,76.6815668 82.6048387,76.0201613 C82.6048387,75.3587558 83.1410138,74.8225806 83.8024194,74.8225806 C84.4638249,74.8225806 85,75.3587558 85,76.0201613 C85,76.6815668 84.4638249,77.2177419 83.8024194,77.2177419 Z M75.0201613,86 C74.3587558,86 73.8225806,85.4638249 73.8225806,84.8024194 C73.8225806,84.1410138 74.3587558,83.6048387 75.0201613,83.6048387 C75.6815668,83.6048387 76.2177419,84.1410138 76.2177419,84.8024194 C76.2177419,85.4638249 75.6815668,86 75.0201613,86 Z M83.8024194,86 C83.1410138,86 82.6048387,85.4638249 82.6048387,84.8024194 C82.6048387,84.1410138 83.1410138,83.6048387 83.8024194,83.6048387 C84.4638249,83.6048387 85,84.1410138 85,84.8024194 C85,85.4638249 84.4638249,86 83.8024194,86 Z" id="Combined-Shape" fill="#000000" mask="url(#mask-2)"></path>
                    </g>
                </g>
            </g>
        </g>
    </g>
</svg>