<?xml version="1.0" encoding="UTF-8"?>
<svg width="123px" height="90px" viewBox="0 0 123 90" version="1.1" xmlns="http://www.w3.org/2000/svg" xmlns:xlink="http://www.w3.org/1999/xlink">
    <!-- Generator: Sketch 52.6 (67491) - http://www.bohemiancoding.com/sketch -->
    <title>Group 16</title>
    <desc>Created with Sketch.</desc>
    <g id="Page-1" stroke="none" stroke-width="1" fill="none" fill-rule="evenodd">
        <g id="Landing-page-1st-draft-Copy" transform="translate(-857.000000, -2006.000000)">
            <g id="Group-16" transform="translate(921.259760, 2052.649596) rotate(-32.000000) translate(-921.259760, -2052.649596) translate(851.259760, 1987.649596)">
                <path d="M20.6860793,91.9349746 C6.82304907,65.9370008 5.72842948,47.4800994 24.9879649,40.4876669 C42.5243344,34.1208529 50.6515688,17.3894377 74.5441628,15.6680254 C90.7615735,14.4995941 113.223358,13.6683921 122.23103,25.6434082 C131.238701,37.6184239 135.228886,90.9347512 112.686484,97.1475167 C90.1440812,103.360282 34.5491096,117.932948 20.6860793,91.9349746 Z" id="blob" fill="#BBFFE5" transform="translate(69.885233, 60.949322) scale(-1, 1) rotate(-16.000000) translate(-69.885233, -60.949322) "></path>
                <path d="M113.447106,99.1789918 C113.447551,99.177876 113.448004,99.1767699 113.448463,99.1756737 C113.525466,98.9941399 113.784401,98.8981565 114.039951,98.9582505 C114.062988,98.9656019 114.083694,98.9737527 114.102207,98.9825856 C114.514632,98.7390351 114.813977,98.3345155 115.201984,98.0607059 C115.409705,97.9141606 115.602567,97.9233461 115.809033,97.9038138 C115.924519,97.892939 115.943622,97.9539643 115.880621,98.0745369 C115.815208,98.1996494 115.802762,98.3537964 115.766968,98.4951683 C115.820321,98.6023322 115.999001,98.5925132 115.995239,98.7529951 C116.077343,98.6821508 116.129827,98.5501755 116.275222,98.609406 C116.447534,98.5662237 116.649369,98.4045805 116.729833,98.7293451 C116.742954,98.7514114 116.744884,98.768093 116.737551,98.7802347 C116.764855,98.93132 116.828339,99.0847279 116.700117,99.2259942 C116.683041,99.3009561 116.62824,99.3969285 116.654965,99.4475014 C116.836925,99.7925374 116.625442,100.026714 116.445026,100.259096 C116.086701,100.720165 115.729727,101.18419 115.34352,101.62013 C114.810278,102.221937 114.250697,102.798933 113.702308,103.386381 C113.55508,103.544223 113.41258,103.707028 113.258792,103.857796 C113.168873,103.946061 113.06535,104.067901 112.937129,103.903935 C112.82859,103.765308 112.751503,104.069801 112.645954,103.921883 C112.484351,104.042878 112.322748,104.163873 112.161241,104.284868 C112.123904,104.419694 112.011119,104.45992 111.901036,104.503525 C111.561525,104.695047 111.300162,105.013477 110.899001,105.112405 C110.716558,105.157383 110.58496,105.199826 110.480955,104.99595 C110.405219,104.847188 110.378591,104.967233 110.34791,105.033537 C110.313274,105.154004 110.263683,105.250504 110.114623,105.186417 C109.95987,105.253249 109.817273,105.188106 109.672747,105.143763 L109.67265,105.143763 C109.580416,105.126553 109.525809,105.061199 109.479884,104.984653 C109.250456,104.936298 109.193823,104.811396 109.311431,104.599286 C109.346839,104.53541 109.393825,104.448201 109.339507,104.387281 C109.267147,104.30609 109.192279,104.382424 109.147127,104.439015 C109.064154,104.543117 108.975007,104.52728 108.887018,104.468155 C108.782917,104.398156 108.810124,104.29701 108.842059,104.194914 C108.855566,104.151837 108.960535,104.107599 108.882869,104.07149 C108.474761,103.881235 108.815237,103.690557 108.873704,103.500513 C108.703225,103.226321 108.843409,103.05771 109.061742,102.915493 C109.163239,102.817515 109.208295,102.668752 109.337191,102.594213 C109.364206,102.578587 109.405113,102.539945 109.400675,102.52189 C109.260201,101.945951 109.762087,101.742814 110.015152,101.396195 C110.072847,101.317115 110.129288,101.237191 110.18621,101.157583 C110.161994,100.967539 110.335657,100.910209 110.418437,100.791959 C110.680764,100.499608 110.842174,100.107272 111.223172,99.9323255 C111.389502,99.7598075 111.512417,99.5486472 111.726216,99.416672 C111.892932,99.3136258 112.043826,99.2406699 112.232154,99.3303074 C112.252029,99.2538674 112.324871,99.157895 112.367032,99.1951648 C112.455793,99.2735053 112.374268,99.3625094 112.310688,99.4329313 C112.395204,99.4017852 112.47972,99.370639 112.564236,99.3395985 C112.673644,99.2044559 112.735101,99.0310932 112.878277,98.9229791 C112.89738,98.8506567 112.897959,98.7788622 113.015471,98.7914262 C113.127194,98.8034624 113.097575,98.8570971 113.084936,98.9197061 C113.166943,98.9983634 113.290437,99.0022698 113.36299,99.1135513 C113.386997,99.1503398 113.414922,99.1700935 113.447106,99.1789918 Z M122.298419,84.6572451 C122.351653,84.3893632 122.351653,84.3893632 122.467027,84.48803 C122.44242,84.5935501 122.417813,84.6989694 122.393111,84.8043887 C122.358643,84.952137 122.32427,85.0997845 122.289706,85.2473312 C122.230631,85.5004987 122.171556,85.7535655 122.112481,86.0067331 C121.955745,86.0736532 122.019894,86.3626996 121.771722,86.3375038 C121.796807,86.5393727 121.735147,86.6945789 121.531592,86.7733914 C121.534751,86.7957653 121.530443,86.8163251 121.518474,86.8351716 L121.518379,86.8351716 C121.518379,86.8352724 121.518379,86.8351716 121.518474,86.8352724 C121.471272,86.9252718 121.424261,87.0153721 121.37725,87.1054723 C121.323824,87.202325 121.389409,87.3493678 121.246557,87.4086284 C120.760456,87.9469118 120.423048,88.6047242 119.851255,89.0765915 C119.6072,89.2780573 119.29076,89.4308447 119.037417,89.4147194 C118.805234,89.3998035 118.620253,89.4824457 118.412677,89.4890974 C118.367485,89.4906092 118.261207,89.5130839 118.290314,89.4040364 C118.301612,89.3616066 118.183845,89.2410698 118.354463,89.2754369 C118.301899,89.1917868 118.284569,89.0848557 118.188536,89.0299289 C118.137408,89.0203544 118.086184,89.0108808 118.03496,89.0014072 C117.947353,89.0889879 117.859746,89.1765685 117.772138,89.2641492 C117.486912,89.3309685 117.1766,89.119626 117.176217,88.7957085 C117.17593,88.5204694 117.016514,88.302576 116.947194,88.0648283 C116.769873,87.4565004 116.74967,87.4828049 116.9178,86.7130223 C117.018046,86.2538537 117.1226,85.8260287 117.449093,85.4748998 C117.49371,85.3826831 117.543306,85.294397 117.638477,85.2423928 C117.64652,85.2073202 117.654563,85.1721468 117.662605,85.1369735 C117.667297,84.9898299 117.710574,84.859114 117.826522,84.7593386 C117.981821,84.4956895 118.137217,84.2322421 118.376389,84.0270473 C118.256324,84.3055115 118.178291,84.6087684 117.890289,84.7831234 C117.883491,84.801466 117.882916,84.8200101 117.888661,84.8387558 C117.910682,84.8873333 117.932704,84.9359109 117.954725,84.9844884 C118.334548,84.407101 118.777085,83.8620651 119.028321,83.2147342 C119.204302,82.7613102 119.595327,82.5995531 119.970363,82.3998007 C120.015651,82.3755119 120.061992,82.3541458 120.106513,82.3255234 C120.222557,82.2512461 120.353729,82.1316164 120.485283,82.1997459 C120.627848,82.2734184 120.475613,82.4366873 120.516305,82.5537975 C120.699466,82.5979406 120.762275,82.4467657 120.85917,82.3546497 C121.015235,82.206196 121.438431,82.173643 121.578507,82.3055683 C121.597656,82.3235077 121.609241,82.3663406 121.602252,82.3916372 C121.486687,82.8088799 121.854255,82.8969645 122.085768,83.0523723 C122.433899,83.2860887 122.483782,83.3974542 122.284057,83.7659179 C122.132587,84.0455915 122.101566,84.3556008 122.042107,84.6587569 C122.097161,84.768913 122.213684,84.5943564 122.268354,84.7064274 C122.280993,84.6916122 122.291142,84.6752853 122.298419,84.6572451 Z M100.746716,82.9047852 C100.359867,83.0967792 100.235817,83.0463949 100.071602,82.66292 C100.031438,82.6289542 99.9914614,82.5949884 99.9512972,82.5611252 C99.8094588,82.5902681 99.7737886,82.7247973 99.6972052,82.8216665 C99.6583518,82.870922 99.6912133,83.0137631 99.5534943,82.9583506 C99.4712,82.9252057 99.3529545,82.8501937 99.4001403,82.789753 C99.5637928,82.5801091 99.3445285,82.3249039 99.501721,82.1279844 C99.46474,82.1135156 99.4276654,82.0990468 99.3905908,82.0845779 C99.3315149,82.1079743 99.2871377,82.1417349 99.252591,82.2033043 C99.1219873,82.4359341 99.0320159,82.3939643 98.8714529,82.1934532 C98.663985,81.9343486 98.5332877,81.7119803 98.7759578,81.4152157 C98.7715575,81.2560588 98.7373852,81.0946443 98.8092875,80.9411312 C98.7129497,80.9351795 98.7430962,81.0363586 98.701715,81.0743264 C98.6565888,81.1158858 98.6077178,81.1880246 98.5404031,81.1479018 C98.5036093,81.1260447 98.4773013,81.0568817 98.4746799,81.007421 C98.4561426,80.6410829 98.4450951,80.2756684 98.6594911,79.950274 C98.7888777,79.7539702 98.8804407,79.522777 99.0379141,79.3562318 C99.4730724,78.8960004 99.474664,78.2348474 99.790547,77.7217689 C99.9293895,77.4962196 100.051474,77.2554832 100.147624,77.0078715 C100.211756,76.8421472 100.378966,76.8557951 100.482793,76.7366582 C100.723591,76.4599037 101.055764,76.267294 101.350769,76.0406159 C101.399172,75.8098332 101.532959,75.9581129 101.6366,75.9722739 C101.721609,75.8661693 101.808397,75.6169157 101.922523,75.7301008 C102.053782,75.8603202 102.281754,75.8523161 102.337927,76.0467729 C102.378934,76.188793 102.405055,76.2870989 102.58893,76.2519017 C102.756233,76.2198856 102.93627,76.2525174 103.00761,76.0295335 C103.039442,75.9303041 103.02699,75.7304087 103.205154,75.8209157 C103.325085,75.8818695 103.479094,75.9818172 103.371054,76.2024409 C103.318719,76.3093665 103.16059,76.450463 103.351767,76.5918675 C103.587509,76.7662115 103.629172,76.7574892 103.802935,76.4563121 C104.068917,76.8191612 104.117976,77.2780586 104.129491,77.6661512 C104.140164,78.0280768 104.047478,78.4508535 103.795352,78.8037488 C103.121081,79.747608 102.639767,80.8157348 102.03796,81.8071051 C101.892096,82.0474311 101.786677,82.3788798 101.395053,82.3273667 C101.349178,82.3213124 101.263607,82.410588 101.242167,82.4724653 C101.15669,82.7195639 100.944072,82.8067872 100.746716,82.9047852 Z M60.1037053,96.6499626 C60.2157638,96.618117 60.2241526,96.7275204 60.2525297,96.8068953 C60.4253815,97.2925164 60.2018859,97.739024 60.0063532,98.1567462 C59.6794986,98.8547668 59.2950614,99.5351911 58.7794059,100.153454 C58.6172214,100.347779 58.4243814,100.569933 58.2061676,100.611151 C57.9822578,100.65342 57.8095096,100.694638 57.6584067,100.837226 C57.62133,100.872227 57.5465553,100.832827 57.5426198,100.802129 C57.5215959,100.634485 57.3451193,100.685744 57.289815,100.708218 C57.0663194,100.798686 56.7531356,100.696168 56.6078324,100.978475 C56.5428965,101.10471 55.9977247,101.008982 55.9357921,100.869167 C55.8882553,100.762059 55.8889803,100.663653 56.0746743,100.622531 C56.2115886,100.592311 56.3084229,100.510928 56.2332339,100.344241 C56.1446849,100.147621 55.9868502,100.27003 55.9223286,100.303502 C55.6948975,100.421321 55.4278005,100.283132 55.2125902,100.410801 C55.2166293,100.448002 55.2399317,100.504808 55.2209791,100.518961 C55.1683675,100.558075 55.1092313,100.524795 55.0824077,100.482143 C55.0397385,100.414531 55.0348709,100.346727 55.1490007,100.322628 C55.1878379,100.27156 55.2280216,100.221162 55.2652018,100.169234 C55.2980323,100.123426 55.398802,100.099135 55.3307591,100.019952 C55.2657196,99.9444976 55.1932234,99.9551128 55.1180344,100.007041 C54.9782202,100.103917 54.9076917,100.016796 54.836024,99.9287183 C55.3056961,99.7219611 55.3973521,99.5919967 55.3574792,99.1859417 C55.2149723,99.2041118 55.1776885,99.3474648 55.0596231,99.3796929 C54.9702456,99.4041748 54.890189,99.579182 54.8153108,99.4608848 C54.747475,99.3535852 54.5370287,99.2196999 54.7277974,99.0625759 C54.8874963,98.9309858 54.9748025,98.8339189 54.9127664,98.5953162 C54.8479341,98.345907 55.1094384,98.099558 55.3185383,97.9179521 C55.9516378,97.3678748 56.4454408,96.7432041 56.8116504,96.036194 C56.8718223,95.920192 56.9360333,95.764885 57.1794136,95.8686461 C57.3680074,95.9490729 57.5135177,95.8313495 57.563333,95.6762338 C57.6135626,95.5198749 57.7363919,95.468329 57.889359,95.447003 C58.1356392,95.412671 58.3814014,95.4164963 58.6329634,95.3608382 C58.9911985,95.2816546 59.2865689,95.6453445 59.1606326,95.9462996 C59.1816565,95.9746068 59.2025769,96.0028183 59.2236008,96.0310299 C59.3593759,96.05752 59.4956689,96.1538218 59.607106,95.9716422 C59.6518465,95.8985791 59.8175522,95.8052419 59.8827988,95.9512725 C59.9211183,96.0370547 60.170609,96.136608 59.9198755,96.2800566 C59.8460329,96.3223261 59.7435025,96.4594629 59.8034672,96.5690576 C59.855561,96.6647856 59.9621305,96.6900325 60.1037053,96.6499626 Z M79.8680847,80.27736 C79.7114873,80.4838637 79.2160703,80.5802195 79.0135246,80.4428652 C78.9049374,80.3693703 79.0571166,80.2313548 78.9524566,80.144918 C78.6438763,80.2174683 78.5328346,80.628114 78.1290196,80.5373317 C77.9575971,80.5235396 77.9638806,80.4371028 78.0246541,80.3284663 C78.0929875,80.2354169 78.0002073,80.1375496 78.0350612,80.043461 C77.8678604,79.9091297 77.8009997,80.0943785 77.7071395,80.1431231 C77.5698836,80.2144453 77.4944813,80.261962 77.419668,80.0846484 C77.3040118,79.8106957 77.0277328,79.59569 77.0530633,79.2689305 C76.8084965,79.1988364 76.8164491,79.0210505 76.8295071,78.8409974 C76.9206183,78.13675 77.4952667,77.6278591 77.7435643,76.9893603 C77.8604969,76.6886736 78.0266177,76.4488232 78.330878,76.2819954 C78.498177,76.190363 78.4190438,75.9450336 78.6215895,75.8607695 C78.7148606,75.8218493 78.8123535,75.6452915 78.8745997,75.8878814 C78.9017956,75.9940617 79.0205936,76.0158834 79.07204,75.92973 C79.1850454,75.7401358 79.2584841,75.5815266 79.504229,75.8312959 C79.5463483,75.8741837 79.766861,75.8669098 79.9019568,75.7690425 C80.0360709,75.6717421 80.1962028,75.6178017 80.365269,75.7726323 C80.4756235,75.8736169 80.6578459,76.0517807 80.7393354,75.7304058 C80.7519024,75.6809998 80.8011889,75.6823223 80.8473336,75.6924302 C80.9120343,75.7065057 80.9453174,75.7448591 80.9295103,75.8023892 C80.8893547,75.947962 80.9807604,75.9362482 81.0965148,75.93946 C81.4403417,75.9491901 81.4987589,76.0251411 81.4103967,76.333952 C81.3720083,76.4679999 81.3143766,76.5975134 81.2641083,76.7329783 C81.4628249,76.7334507 81.3679829,76.5374328 81.4766684,76.4816975 C81.740773,76.767742 81.7504928,76.9772686 81.4868791,77.30724 C81.3799609,77.4410045 81.2695082,77.5391551 81.4092186,77.7237426 C81.5208494,77.8711103 81.3454015,78.0153606 81.277559,78.137978 C80.8664787,78.881618 80.3882432,79.591439 79.8680847,80.27736 Z M98.0294175,99.5158509 C98.3922049,99.4492606 98.5722871,99.6170682 98.5003551,99.9710326 C98.4617156,100.160741 98.3446874,100.312271 98.2357301,100.469029 C97.9637405,100.860482 97.5768413,101.18929 97.4908861,101.683045 C97.4713141,101.795804 97.3272484,101.862395 97.1785419,101.847597 L97.1028771,101.84 C97.0794714,101.833095 97.0559649,101.826189 97.0324584,101.819382 C96.9816117,102.064632 96.7642015,102.16062 96.5581916,102.268053 C96.4987695,102.29903 96.4304694,102.294196 96.4064585,102.249999 C96.2443341,101.951872 96.1277094,102.142172 96.0159273,102.280088 C95.7710761,102.582063 95.5650661,102.910477 95.2771364,103.183053 C95.2449537,103.213339 95.2257853,103.252011 95.1738288,103.233859 C95.0608361,103.100284 95.3299,103.02659 95.2116612,102.864406 C95.1226794,103.036061 94.9217137,102.944413 94.7965138,103.042473 C94.7851136,103.102158 94.7213534,103.102848 94.6932061,103.087853 C94.4707517,102.969076 94.2737206,102.974601 94.0862737,103.158784 C94.1914982,103.005972 94.2967227,102.853258 94.4018463,102.700544 C94.335463,102.621228 94.339902,102.555526 94.4458327,102.509652 C94.4923414,102.417018 94.53885,102.324285 94.5853586,102.23165 C94.4808403,102.172557 94.409211,102.177983 94.3398012,102.291137 C94.2749312,102.396991 94.1716236,102.483016 94.085164,102.577821 C94.0190834,102.774336 93.884501,102.931193 93.7391237,103.081737 C93.6865619,103.172793 93.634101,103.263849 93.5454219,103.417747 C93.4504878,103.165098 93.5696346,103.04859 93.7008878,102.935436 L93.7475982,102.759834 C93.6135202,102.593901 93.8523182,102.518432 93.8552439,102.385646 C93.8951949,102.139213 93.8665432,101.88252 94.0276587,101.65483 C94.0800188,101.580841 94.1150263,101.450324 93.9432168,101.412145 C93.7791756,101.455552 93.7367024,101.598894 93.6537738,101.70899 C93.5379563,101.862493 93.354444,101.923066 93.1817265,101.998337 C93.1130229,102.089097 93.0246464,102.221883 92.9092324,102.163777 C92.7829227,102.100344 92.8991438,101.966275 92.9199264,101.86348 C93.2649578,101.28735 93.6466109,100.73322 94.0981783,100.221511 C94.124207,100.099478 94.247591,100.044233 94.3173035,99.9520914 C94.6884645,99.4518256 94.8958868,98.8543873 95.353003,98.410156 C95.5859496,98.1835517 95.885683,98.0066681 96.1787579,97.8431026 C96.383759,97.7287646 96.6209429,97.7257063 96.8058676,97.9186702 C96.8384539,97.8686535 96.8255404,97.769212 96.904938,97.7751311 C97.0106669,97.7830233 97.0417399,97.8681603 97.0262034,97.9618799 C97.0419417,97.9776643 97.0614128,97.9860498 97.0848184,97.9870363 C97.0933938,97.9364276 97.1102418,97.8856217 97.1082241,97.8354077 C97.1062063,97.7848977 97.088753,97.7248185 97.1678479,97.730639 C97.2473464,97.7364594 97.2564261,97.7729608 97.2271691,97.8535597 C97.2031581,97.9199527 97.2550137,98.009529 97.273375,98.0888454 C97.292947,98.091805 97.3123172,98.0958498 97.3312838,98.101177 C97.4005928,98.0360665 97.4687919,97.9313964 97.5746217,97.9691802 C97.6841843,98.0083452 97.6302101,98.1341269 97.6336403,98.215219 C97.6383819,98.3242298 97.5905618,98.435115 97.5653402,98.5451123 C97.5663491,98.5654347 97.5695774,98.5853625 97.5752271,98.6050929 C97.6307146,98.6378455 97.6862021,98.6706967 97.7415887,98.7035479 C97.8047436,98.5966088 97.8677975,98.4896697 97.9309524,98.3828293 C98.335305,98.6055862 98.3463016,98.5559641 97.9903745,99.1497523 L97.947296,99.3419269 C97.9714078,99.4024008 97.7908212,99.5596526 98.0294175,99.5158509 Z M84.0944178,88.7771892 C84.0422744,89.1805033 84.2138201,89.5817154 84.0464337,89.9876093 C83.8771197,90.3980896 83.7118636,90.7727389 83.129663,90.8263421 C82.8810181,90.8491784 82.7915424,91.0716175 82.6427206,91.2130306 C82.5271732,91.3229124 82.3930611,91.4306922 82.2374424,91.4160731 C82.0436799,91.3978232 81.9737834,91.4667143 81.9497406,91.6382255 C81.8404829,91.5643658 81.9316832,91.3347606 81.690951,91.4443557 C81.5963015,91.4874485 81.5304629,91.4067093 81.5761137,91.303707 C81.5941712,91.2182858 81.5479116,91.17032 81.459349,91.1471015 C81.4117706,91.1992715 81.3691632,91.2609964 81.2495579,91.2177125 C81.3173241,91.1269406 81.3816411,91.0408505 81.4459581,90.9547605 C81.4446393,90.9377527 81.4453494,90.9207449 81.4477841,90.9038327 C81.2089794,91.0173454 80.9758557,90.8004482 80.7373554,90.8941822 C80.5473463,91.0344487 80.5618532,90.8890225 80.5453174,90.7866891 C80.5179269,90.7157914 80.4905364,90.6447982 80.4631459,90.5739005 C80.2772962,90.4381248 79.9717398,90.3663672 80.1106198,90.0573604 C80.1220833,90.0176118 80.1333438,89.9778633 80.1447058,89.9381147 C80.1733137,89.8228821 80.1521114,89.6913105 80.2686732,89.605125 C80.2753687,89.5989143 80.2831801,89.5931813 80.2923102,89.587735 C80.5308106,89.2890475 80.7357322,88.9722056 80.8803947,88.6304253 C80.9520158,88.4613984 81.1286339,88.3983358 81.2435726,88.275937 C81.3158024,88.1991153 81.4188719,88.1396835 81.4711168,88.0546445 C81.5506507,87.9250795 81.5567375,87.7322608 81.7435002,87.6949965 C81.9960001,87.6445464 82.2641228,87.5054265 82.5154054,87.6195125 C82.8141649,87.7552882 83.1483292,87.8031585 83.4381614,87.9505912 C83.5899251,88.0310438 83.7866296,88.0923866 83.6312138,88.3041241 C83.649677,88.31559 83.6677345,88.3360376 83.6869078,88.3369931 C84.0668244,88.3561985 84.1423004,88.4071263 84.0944178,88.7771892 Z M72.8764268,92.2358113 C72.6078574,92.5451564 72.4048236,93.0010231 71.8796623,93.0697234 C71.8504488,93.1025209 71.8213326,93.1353185 71.7922165,93.168019 C71.8197746,93.1980996 71.8773252,93.2419591 71.8700218,93.256029 C71.8328233,93.3269611 71.7554075,93.3065839 71.704576,93.2797054 C71.624531,93.2374955 71.6368981,93.1861644 71.721812,93.1530757 C71.7118794,93.0927205 71.6648457,93.0696263 71.6091453,93.0553623 C71.5794449,93.0694322 71.5497445,93.0834052 71.5200441,93.0974751 C71.5201415,93.088451 71.5194598,93.0804942 71.5181939,93.0735077 C71.5188756,93.0814645 71.5192651,93.0883539 71.5200441,93.0974751 C71.4495422,93.1725796 71.3803062,93.2486544 71.3081489,93.3223034 C71.2505009,93.3812032 71.1861338,93.485612 71.1016094,93.4370949 C71.0120214,93.3855697 71.1356918,93.2987241 71.1356918,93.2595223 C71.1355945,93.1043646 70.9155194,93.0868014 70.84307,92.9483335 C70.8215494,92.9073851 70.7362459,93.0057778 70.7076167,93.0718581 C70.6690549,93.1602563 70.6154968,93.2602986 70.4948451,93.1847089 C70.3991222,93.1246447 70.2342607,93.0639983 70.3776989,92.9032126 C70.4210323,92.8545985 70.4543357,92.7928847 70.3881184,92.7406803 C70.3283281,92.6934247 70.2539311,92.7042925 70.2156614,92.7640656 C70.1049422,92.9368835 69.9768897,92.8298548 69.8517586,92.7933699 C69.6386948,92.6818776 69.7878784,92.6210371 69.8899309,92.5535013 C69.9185601,92.4284242 70.0497287,92.3417727 70.0403804,92.2024315 C70.0292793,92.2002968 70.0273317,92.1933103 70.0293767,92.1841891 C70.0161332,92.1622594 70.0028898,92.1403296 69.9895489,92.1183999 C69.9016163,92.1345076 69.8586725,92.0285462 69.7322754,92.0765781 C69.5029494,92.1638119 69.3935936,92.047856 69.4463726,91.8170116 C69.3807396,91.7572385 69.3794737,91.6772823 69.369249,91.6002372 C69.461661,91.5215424 69.432058,91.3311613 69.6308072,91.3497919 C69.6852417,91.2912802 69.7231218,91.2150113 69.8161181,91.1975452 L69.8161181,91.1973511 C69.8285826,91.1498043 69.8408522,91.1020635 69.8532193,91.0544197 C70.0212943,90.4871577 70.5207477,90.102417 70.7819164,89.5811492 C70.8935119,89.3585527 71.2334597,89.4268648 71.4727182,89.3884392 C71.5757445,89.3718464 71.4939467,89.512449 71.5365984,89.5645563 C71.5760366,89.6125883 71.5156621,89.7004042 71.6034973,89.7184526 C71.6792577,89.7340751 71.7266809,89.6744961 71.7609581,89.6250087 C71.922314,89.3916414 72.051535,89.3828113 72.2543741,89.6126853 C72.371715,89.7457192 72.6103892,89.8549798 72.7121496,89.5430147 C72.7380522,89.4634467 72.8448763,89.4517055 72.8347489,89.509732 C72.7907339,89.7614388 73.1337977,89.7742473 73.1374981,89.9818035 C73.1659326,90.0309998 73.1942697,90.0802932 73.2227042,90.1295866 C73.3939926,90.1841198 73.2926218,90.2817362 73.269251,90.3709107 C73.2333184,90.5077289 73.0817003,90.6289247 73.2006967,90.7880608 C73.3144345,90.7591446 73.4434608,90.6706494 73.4101574,90.9076069 C73.34209,91.392778 73.1853109,91.8799868 72.8764268,92.2358113 Z M100.264725,69.7971917 C100.152818,70.4909868 99.7690295,71.0693106 99.1999895,71.568363 C99.1276173,71.6317608 99.0376381,71.603498 98.9552202,71.5917863 C98.8449336,71.5760095 98.7350791,71.5473594 98.6682158,71.6583783 C98.4841527,71.7889488 98.2356028,71.7839157 98.0314484,71.8723823 C97.9643691,71.9544607 97.8660725,72.0140837 97.8592673,71.8618321 C97.8510579,71.673284 97.7413114,71.8080165 97.6768246,71.8000797 C97.4091554,71.916422 97.1617937,71.9634622 97.0160771,71.6632178 C96.9012537,71.6986432 96.7555372,71.7830446 96.8004727,71.5664272 L96.8005808,71.5664272 C96.7551051,71.469443 96.7095214,71.3724588 96.6640457,71.2754746 C96.6245111,71.2506962 96.5850844,71.2259178 96.5454417,71.2010427 C96.4741497,71.2603753 96.4619436,71.4164985 96.3019687,71.3357752 C96.1131528,71.2403396 96.3209799,71.1760707 96.351657,71.0995093 C96.3700201,71.0540177 96.4154958,71.0163662 96.4487654,70.9752302 C96.4533022,70.9856836 96.4578389,70.9962337 96.4622677,71.0066871 C96.4609715,70.995169 96.4571908,70.9845221 96.4487654,70.9752302 C96.4483333,70.9553881 96.4511418,70.9358364 96.4574069,70.9166719 C96.3703442,70.8263662 96.1819604,70.7862949 96.2489317,70.6194279 C96.345716,70.2408799 96.6787362,69.9600903 96.8429239,69.6046752 C96.9283663,69.4198052 96.986048,69.2388067 97.0290393,69.0490004 C96.9772986,69.0319652 96.8855911,69.02006 96.8814864,68.9970238 C96.867336,68.9175587 96.9832396,68.9055567 97.0243945,68.8497085 C96.9939334,68.7655007 96.9691972,68.6820672 97.0643613,68.6128619 C96.9883164,68.4548028 97.1566088,68.461675 97.2473441,68.4120214 C97.3487732,68.5074569 97.1525041,68.5413336 97.1961435,68.6204116 C97.3813947,68.6855516 97.2559856,68.7900855 97.2426993,68.8802943 C97.4747225,68.7612419 97.4743984,68.5446245 97.5120968,68.3628518 C97.5922463,67.9762701 98.0287479,68.0531218 98.2925284,67.9188733 C98.4814523,67.8227602 98.6009204,68.020697 98.7010533,68.1489445 C98.9017512,68.4053428 99.1028811,68.4266368 99.3706583,68.2134071 C99.4537243,68.1472023 99.5042768,68.0194387 99.6504254,68.1432339 L99.6504254,68.1433307 C99.671597,68.1758523 99.6927686,68.208374 99.7138321,68.2409924 C99.7639526,68.4969067 99.5990088,68.7605644 99.7623323,69.0148333 C99.8476667,69.0027344 99.849287,68.9418532 99.8594407,68.8810687 C99.8733751,68.7977319 99.8369729,68.6578695 99.9993243,68.686326 C100.09222,68.7025868 100.207151,68.791247 100.191597,68.9161069 C100.159299,69.1763768 100.189976,69.4430349 100.080446,69.6954648 C100.142772,69.72818 100.300155,69.6389391 100.264725,69.7971917 Z M77.3161316,106.64313 C77.4786889,106.599469 77.5933675,106.620414 77.5643058,106.814959 C77.5317944,107.032637 77.4677123,107.238749 77.2871744,107.395156 C77.3482249,107.438713 77.3351576,107.502068 77.3055732,107.544061 C77.0319961,107.933152 77.0269783,108.43947 76.7284165,108.80251 C76.3200894,109.298928 76.0143144,109.845156 75.697563,110.389195 C75.5981469,110.559774 75.4868135,110.724309 75.3786162,110.895409 C75.2990624,110.83122 75.3457911,110.76203 75.329274,110.703468 L75.3040803,110.69805 C75.2110411,110.891136 75.0850722,111.032539 74.8360617,111.070364 C74.721383,111.087766 74.5721021,111.153934 74.5506718,111.291793 C74.5012251,111.610026 74.3435811,111.576265 74.1272911,111.428611 C74.1005292,111.410375 74.0385379,111.437572 73.9928546,111.44372 C73.8002948,111.499885 73.8607181,111.344728 73.8524595,111.271057 C73.8467099,111.260324 73.8412739,111.249487 73.8357334,111.23865 C73.8324927,111.236775 73.8290429,111.235212 73.8245478,111.234691 C73.627911,111.171232 73.7854504,111.417044 73.630629,111.360775 C73.5430258,111.328993 73.5592292,111.241672 73.5679059,111.188008 C73.5905907,111.047335 73.6203842,110.919792 73.3993899,110.92 C73.4423552,110.900931 73.4884567,110.895617 73.5346627,110.898014 C73.4959835,110.884155 73.4544817,110.88676 73.3993899,110.92 C73.3132503,111.06505 73.1964808,111.156122 73.0045483,111.126841 C72.7979803,111.095372 72.8355096,110.915103 72.7763408,110.797354 C72.5969529,110.440254 72.8576718,110.108579 72.8567309,109.760752 C72.7537605,109.67489 72.8228605,109.577565 72.8358232,109.483991 C73.1071005,108.759683 73.2905654,108.006614 73.7371536,107.341492 C73.9452897,107.031491 74.0651952,106.668555 74.2152079,106.325835 C74.2853532,106.165468 74.3652206,106.10055 74.5202511,106.24216 C74.6222806,106.039591 74.7244146,105.837127 74.8416022,105.604652 C74.9235604,105.764498 74.7680072,105.885477 74.8896899,105.990721 C75.025799,105.988011 75.0895674,106.069393 75.1329509,106.174221 C75.2279763,105.998744 75.3108753,105.831187 75.2689554,105.614447 C75.2394755,105.46252 75.257038,105.195242 75.4625605,105.218375 C75.6838684,105.243279 75.966854,104.764783 76.1283659,105.26933 C76.5338705,105.173672 76.5694135,105.563075 76.7888397,105.711355 C76.8804154,105.773147 76.978577,105.823685 77.0099385,105.944976 C77.0364913,106.04699 77.0789339,106.100341 77.1950761,105.977487 C77.358156,105.805137 77.4007032,105.938307 77.4618582,106.087316 C77.5559428,106.316665 77.3662055,106.459422 77.3161316,106.64313 Z M93.0062015,81.7496432 C92.9623898,81.8510924 92.9223757,81.9545427 92.8734695,82.0534908 C92.8402171,82.1207235 92.8719875,82.2582903 92.7552797,82.2379804 C92.6586716,82.2210722 92.6846066,82.109518 92.6896084,82.0261775 C92.6916462,81.9910605 92.6636733,81.9539424 92.6492238,81.9178249 C92.4221993,82.1737492 92.2921534,82.1705477 92.0310428,81.9287302 C91.8819162,81.7907631 91.7147276,81.6729059 91.5555974,81.5459442 C91.4243474,81.4759101 91.3617327,81.3695585 91.386371,81.2169843 C91.3887793,80.9286442 91.4166595,80.650409 91.6090422,80.4125935 C91.6566515,80.3536648 91.6803636,80.214097 91.6039478,80.189385 C91.3255162,80.0992412 91.4396306,79.9110498 91.5028936,79.7708817 C91.6572999,79.4281151 91.7155612,79.0392262 91.9930665,78.7516864 C92.0721684,78.6695465 92.1472875,78.5852055 92.2456556,78.6130191 C92.3692176,78.6480361 92.307344,78.7738972 92.2985446,78.8623402 C92.2925239,78.9230697 92.3371693,78.9843995 92.2874295,79.045129 C92.2314839,79.1134622 92.2678856,79.1786939 92.3354094,79.1880985 C92.3943191,79.1963025 92.4879632,79.2124103 92.5004676,79.0968542 C92.5167697,78.9456807 92.5795696,78.8130162 92.6764556,78.69726 C92.7297151,78.5543906 92.6766409,78.3546935 92.8856961,78.2954648 C92.9690588,78.2721534 93.0001809,78.3564944 93.0597389,78.3821069 C93.0962333,78.279557 93.0970669,78.1377881 93.288616,78.1879125 C93.2108107,78.3826071 93.142268,78.5769015 93.11411,78.7821012 C93.3516011,78.7735971 93.2911168,78.4533415 93.4929473,78.4074192 C93.4925768,78.4069189 93.4922989,78.4064187 93.492021,78.4059184 L93.4919284,78.4059184 L93.492021,78.4059184 C93.4347786,78.2748547 93.5268481,78.2826585 93.588166,78.3192763 C93.7131175,78.3938125 93.6532816,78.464747 93.562231,78.5221749 C93.6015041,78.5784022 93.4980417,78.7871036 93.7146921,78.6537388 C93.9927532,78.4826557 94.3283345,78.6504372 94.4069733,78.9914029 C94.4279992,79.0823471 94.4415225,79.1836964 94.4243869,79.27354 C94.3833539,79.4874439 94.3686265,79.6618287 94.573143,79.8288098 C94.6821629,79.917753 94.5655477,80.1030431 94.5104357,80.2357075 C94.4338346,80.4201972 94.3492678,80.6012852 94.2680354,80.7839739 C94.1971771,80.8760187 94.1991222,81.0126851 94.0905654,81.0816186 C94.0213744,81.2417964 93.8711362,81.35205 93.8390879,81.5398412 C93.8217669,81.6414906 93.7293269,81.6491943 93.6455011,81.586664 C93.6149347,81.6456926 93.5605637,81.6684037 93.5015614,81.6843114 C93.4766452,81.7364367 93.520457,81.8348846 93.455434,81.8428885 C93.3341876,81.8578958 93.3369663,81.7261317 93.29158,81.652596 C93.2774083,81.6591992 93.2624956,81.6624008 93.2469346,81.6622007 C93.1723713,81.6717053 93.0977153,81.6812099 93.0232446,81.6907145 C93.0260233,81.7128253 93.0202806,81.7325348 93.0062015,81.7496432 Z M112.590167,76.860743 C112.541007,76.7593178 112.54231,76.6678485 112.638489,76.5953575 C112.648731,76.5752384 112.658973,76.5550156 112.669215,76.5347927 C112.834759,75.8268906 113.147504,75.1770642 113.444981,74.5279638 C113.811914,73.7272442 114.095704,72.8787157 114.562169,72.1351385 C114.845865,71.6829772 115.08906,71.1789625 115.541373,70.8615162 L115.746767,70.9094287 C115.822835,70.9032063 115.875254,71.1523098 115.970875,70.9322441 C116.001786,70.8609976 116.03307,70.7677653 116.123756,70.8050997 C116.204107,70.8381821 116.179155,70.9331775 116.177199,71.0112687 C116.175524,71.083656 116.075713,71.1798958 116.220494,71.2269787 C116.352706,71.270017 116.38399,71.1827996 116.422722,71.0841745 C116.450282,71.0140688 116.486128,70.9425111 116.534636,70.8873391 C116.634168,70.7742988 116.752413,70.6706958 116.910881,70.7073043 C117.089739,70.7485795 117.051938,70.9186586 117.064787,71.0522328 C117.071397,71.120783 117.01004,71.2073781 117.126609,71.2407717 C117.227165,71.2694984 117.278094,71.1825922 117.296157,71.1288721 C117.368222,70.9144066 117.448387,71.0393732 117.552666,71.0948563 C117.733945,71.191511 117.832359,71.3455155 117.91541,71.5300097 C118.081233,71.8977538 118.133559,72.2948469 118.211117,72.6856138 C118.261395,72.9392805 118.139611,73.1637018 118.067361,73.386775 C117.750239,74.3672184 117.241224,75.252459 116.776062,76.1593744 C116.518901,76.6607964 116.269096,77.1661593 116.073385,77.6994193 C115.932701,78.0827194 115.646584,78.334623 115.318569,78.5398586 C115.271829,78.5525108 115.224996,78.5653705 115.178164,78.5781264 C115.173788,78.5810302 115.169132,78.5828969 115.163825,78.5819636 C115.048,78.6379652 114.880222,78.5135171 114.800895,78.6963521 C114.796798,78.7367977 114.805923,78.8011996 114.785998,78.8132296 C114.732834,78.8456898 114.677808,78.8053478 114.682742,78.7490351 C114.690749,78.6573583 114.723709,78.5679631 114.746241,78.4776346 C114.748569,78.4869682 114.750896,78.4963018 114.753131,78.5055317 C114.753224,78.4956796 114.751269,78.4862422 114.746241,78.4776346 L114.737489,78.3546384 C114.639168,78.3026813 114.698012,78.1250317 114.556769,78.1074016 C114.478094,78.328608 114.234154,78.4142698 114.15883,78.6449135 C114.137136,78.7110784 114.045985,78.7121155 113.961351,78.6888852 C113.85195,78.6589139 113.745622,78.6325724 113.628773,78.7464424 C113.521607,78.8509788 113.361184,78.8326227 113.239773,78.6967669 C113.161284,78.609031 113.070971,78.5293842 112.975536,78.4624934 C112.788112,78.3312007 112.751149,78.1606031 112.817161,77.9457228 C112.874608,77.7586358 112.855428,77.7757475 112.710833,77.6491215 C112.627503,77.576112 112.66158,77.4252187 112.671449,77.3063708 C112.55488,77.1757003 112.563073,77.0201402 112.590167,76.860743 Z M101.283146,89.184539 C101.271781,89.1911957 101.260208,89.1978525 101.248842,89.2045092 C101.263857,89.2037577 101.274284,89.195383 101.283146,89.184539 Z M106.93088,85.149582 C106.968625,85.2694035 107.202913,85.1189824 107.18133,85.3200807 C107.464728,85.6577497 107.291436,86.0179658 107.176742,86.3348057 C106.970397,86.9057831 106.688876,87.4514218 106.44072,88.0084415 C106.422369,88.0494557 106.420492,88.0973414 106.411108,88.142006 C106.354283,88.2740673 106.355534,88.4521891 106.141473,88.4592753 C106.124269,88.4728035 106.114885,88.4903044 106.113426,88.5117777 C106.096639,88.5259502 106.087984,88.5449541 106.080581,88.5647096 C106.091529,88.5471015 106.102582,88.5293859 106.113426,88.5117777 C106.123331,88.5912293 106.196839,88.6728282 106.104354,88.7485218 C106.079017,88.7152381 106.053681,88.6819543 106.028344,88.648778 C105.709495,89.2144944 105.459358,89.8155345 105.090252,90.3553755 C105.032697,90.4394438 104.982544,90.5332825 104.907785,90.6004942 C104.771925,90.722463 104.658899,90.9871225 104.469446,90.5994205 C104.337756,90.3302516 104.116189,90.3472156 103.938726,90.6012458 C103.779719,90.8288637 103.590057,90.9729501 103.30791,90.9505104 C103.093432,90.9333317 102.993544,91.0814981 102.856433,91.1815641 C102.92306,91.1944481 103.023573,91.2001385 103.000843,91.2862468 C102.927543,91.5622872 102.163891,92.0963304 101.854947,92.1010545 C101.84817,92.1011619 101.84108,92.0835537 101.813553,92.047049 C101.958485,91.9625512 102.102373,91.8786976 102.246366,91.794844 C102.182659,91.7762695 102.119056,91.7578024 102.055349,91.739228 C101.984864,91.7887241 101.921053,91.8550769 101.819705,91.8264099 C101.755372,92.0537057 101.591673,92.1427129 101.359157,92.1364856 C101.190453,92.2739153 101.019872,92.2393432 100.808731,92.1339088 C100.9497,92.0870968 101.058138,92.0511289 101.166576,92.015161 C101.209951,91.9575049 101.253326,91.8997415 101.296701,91.8419781 C101.296805,91.8418707 101.29691,91.8417634 101.297014,91.8415486 C101.296805,91.8417634 101.296701,91.8418707 101.296597,91.8419781 C101.20432,91.8328519 101.145201,91.7704717 101.081181,91.7160367 C101.009132,91.753293 100.935728,91.7882946 100.865556,91.8285572 C100.752427,91.8936216 100.687677,91.7859326 100.619382,91.7481394 C100.502185,91.6833971 100.653998,91.6579512 100.674748,91.6145749 C100.743043,91.4715622 100.618548,91.3391787 100.728237,91.1751221 C100.487067,91.2646661 100.324306,91.5055975 100.110767,91.2960172 C99.9814754,91.1688948 100.086264,91.0754855 100.223167,91.020621 C100.224209,90.9996845 100.23401,90.9841163 100.252987,90.9739164 C100.273319,90.8124365 100.442545,90.7619741 100.523977,90.6448367 C100.195849,90.4657487 100.150284,90.3973559 100.268731,90.2684082 L100.269357,90.2678714 C100.334732,90.0539965 100.542954,90.0303757 100.713118,89.9561852 C100.81457,89.8312101 100.916022,89.7063423 101.017578,89.5815819 C101.072839,89.4434007 101.134149,89.3086552 101.248842,89.2045092 C101.277933,89.1448132 101.30254,89.0825404 101.338304,89.0269243 C101.352171,89.0054509 101.391376,88.9992236 101.419111,88.9860175 C101.417442,89.0267096 101.415878,89.0674017 101.414419,89.1080937 C101.414523,89.1303187 101.419215,89.15147 101.428599,89.1717623 C101.496477,89.1386933 101.538288,89.0504377 101.635986,89.080071 C101.875905,88.9145111 101.864331,88.6173194 102.004779,88.4106381 C102.335827,87.9231922 102.559793,87.383888 102.862793,86.8846318 C103.09656,86.4995066 103.275483,86.0923711 103.632076,85.7689819 C103.842279,85.5784056 103.914327,85.2364419 104.02214,84.9531005 C104.070311,84.8261928 104.175517,84.7876481 104.263518,84.7181817 C104.306685,84.684039 104.399587,84.6515068 104.395937,84.7240868 C104.3877,84.8819162 104.517721,84.9525637 104.587893,84.9017791 C104.71927,84.8067594 104.921235,84.7512507 104.954288,84.5762426 C104.96826,84.5024815 105.0401,84.4728482 105.036242,84.3795463 C105.030924,84.2525312 105.164907,84.126053 105.30108,84.1605178 C105.486467,84.2075445 105.331109,84.3529193 105.321621,84.4453623 C105.312028,84.5398452 105.234766,84.629926 105.179505,84.7173227 C105.14249,84.7759451 105.013616,84.8234013 105.157817,84.8922235 C105.228093,84.9257219 105.317033,84.95557 105.366873,84.8460557 C105.395025,84.7844271 105.44695,84.7312804 105.466657,84.6681487 C105.54079,84.4322635 105.71794,84.3937188 105.896654,84.5070982 C106.081207,84.6241282 106.099558,84.5314705 106.148876,84.3998387 C106.188394,84.294297 106.121663,84.0900851 106.290471,84.1023249 C106.4891,84.1166047 106.331969,84.3430416 106.424246,84.452019 C106.54603,84.5193381 106.507243,84.2852782 106.636117,84.3522751 C106.639349,84.3736411 106.65207,84.4050997 106.647378,84.4337666 C106.594514,84.7538275 106.597121,84.7500696 106.849134,84.9637298 C106.896263,85.0037777 106.904605,85.0865576 106.93088,85.149582 Z M109.919401,92.7824356 C109.857671,92.756235 109.742033,92.8424491 109.731855,92.7228646 C109.728368,92.6823245 109.707163,92.5984117 109.809324,92.5903568 C109.800088,92.6737385 109.832225,92.7115346 109.930804,92.6761284 C109.992157,92.4874132 110.226637,92.3717234 110.214762,92.1521163 C110.176593,92.1408748 110.108832,92.107947 110.134184,92.0923683 C110.306085,91.9867692 110.338128,91.8012406 110.463096,91.6710342 C110.417293,91.5721623 110.466206,91.4761229 110.474877,91.3788443 C110.454237,91.3771625 110.433598,91.3761003 110.412864,91.3757462 C110.376674,91.4389464 110.351794,91.5529544 110.271686,91.5329499 C110.162928,91.5057756 110.211935,91.4014158 110.235967,91.3251153 C110.252649,91.1718064 110.364988,91.0616045 110.455179,90.927769 C110.538209,90.9797276 110.49872,91.0967452 110.606536,91.1148909 C110.658276,91.0129209 110.70455,90.9085611 110.762699,90.8095122 C110.897845,90.5792832 111.457844,90.5082937 111.669423,90.691875 C111.942731,90.9288312 112.184468,90.9254676 112.425827,90.6797484 C112.54514,90.743214 112.430351,90.8350932 112.461263,90.9083841 C112.51894,90.9583068 112.491515,91.0184089 112.486992,91.0758555 C112.54891,91.0964796 112.608095,90.8088926 112.672182,91.0746163 C112.643531,91.1657873 112.61507,91.2569584 112.586419,91.3481294 C112.585854,91.3842437 112.585288,91.4204466 112.584723,91.456561 C112.656066,91.4957733 112.667092,91.6348313 112.806857,91.5610093 C112.957082,91.5788895 112.999775,91.6308481 112.93616,91.7429088 C112.884325,91.8342569 112.811475,91.9163993 112.748048,92.0026135 L112.748048,92.002702 C112.787065,92.1470709 112.935594,92.2988751 112.711387,92.4255408 C112.460509,92.6750662 112.329415,92.9856673 112.167598,93.2786538 C112.084003,93.430281 112.015393,93.5089713 111.810129,93.4319628 C111.645673,93.370356 111.512412,93.4469219 111.408366,93.5686308 C111.34673,93.640771 111.321096,93.7492911 111.188211,93.7582312 L111.188117,93.7582312 C111.017064,93.8738325 110.875226,93.8762224 110.785034,93.677505 C110.734425,93.6463475 110.789087,93.5527865 110.69324,93.5509277 C110.253497,93.5425187 110.254062,93.5433154 110.302504,93.1180866 C110.304766,93.0982591 110.280168,93.0744484 110.26311,93.0560372 C110.260565,93.0532932 110.23069,93.0701997 110.213443,93.0780776 C110.206846,93.1762413 110.12523,93.239884 110.070663,93.3274259 C109.946355,93.2035041 110.034096,93.1070222 110.104214,93.009301 C109.983581,92.9710623 109.97312,92.8629848 109.919401,92.7824356 Z M79.45363,91.8691143 C79.9655064,91.6750687 79.7973046,91.3749871 80.2456812,91.0566143 C79.4230919,91.3004969 79.4003095,91.5624055 79.45363,91.8691143 Z" id="Combined-Shape" fill="#000000" transform="translate(88.558387, 89.715254) scale(-1, 1) rotate(-49.000000) translate(-88.558387, -89.715254) "></path>
            </g>
        </g>
    </g>
</svg>