<?xml version="1.0" encoding="UTF-8"?>
<svg width="169px" height="155px" viewBox="0 0 169 155" version="1.1" xmlns="http://www.w3.org/2000/svg" xmlns:xlink="http://www.w3.org/1999/xlink">
    <!-- Generator: Sketch 52.6 (67491) - http://www.bohemiancoding.com/sketch -->
    <title>Group 17</title>
    <desc>Created with Sketch.</desc>
    <g id="Page-1" stroke="none" stroke-width="1" fill="none" fill-rule="evenodd">
        <g id="Landing-page-1st-draft-Copy" transform="translate(-281.000000, -3398.000000)">
            <g id="Group-34" transform="translate(123.000000, 2929.000000)">
                <g id="Group-17" transform="translate(158.000000, 469.000000)">
                    <path d="M145.547958,32.6719868 C176.90809,67.033776 177.252687,129.319292 143.951534,143.340861 C127.23197,149.872625 106.073433,142.828913 85.6410014,138.669784 C64.869196,135.132414 44.7897163,133.906163 29.7161553,123.026206 C13.9711476,112.406745 8.95363629,91.464505 13.7385341,71.4470068 C18.0330124,51.1496253 25.6274632,31.0431267 36.7751324,17.0844056 C57.1300202,-11.0561461 112.618181,-3.45062044 145.547958,32.6719868 Z" id="Mask" fill="#D2D2F7"></path>
                    <path d="M45.1598916,146.982648 C44.4879463,146.510175 43.9866578,144.356827 45.0260604,142.866186 C46.0654629,141.375545 46.8755044,142.038714 48.4533999,142.259321 C49.3658412,142.386891 49.9373848,143.522043 49.9987348,144.3515 C50.0548088,145.109626 50.2260283,145.461663 49.7296777,146.173495 C47.847673,148.872539 45.8318369,147.455121 45.1598916,146.982648 Z M77.8640051,149.111588 C77.6934548,149.917326 75.915424,151.222093 74.1428806,150.843749 C72.3703373,150.465404 72.6617331,149.457503 72.2474263,147.912744 C72.0078472,147.019465 72.825082,146.047603 73.5614455,145.666793 C74.2344832,145.318733 74.4902819,145.022909 75.3367326,145.203582 C78.5462062,145.888635 78.0345554,148.305849 77.8640051,149.111588 Z M63.3622516,152.248882 C63.1917029,153.054613 62.045495,155.336359 60.2729517,154.958014 C58.5004083,154.57967 58.8387635,153.809757 58.2069438,152.832764 C57.6974533,152.04493 58.7845958,150.96764 59.5209582,150.586835 C60.1939951,150.238779 60.4497931,149.942959 61.2962437,150.123631 C63.5666994,150.608254 63.5328002,151.443152 63.3622516,152.248882 Z M66.9517109,144.055057 C66.5862495,145.781623 64.701037,145.379229 64.2518234,145.283346 C63.8026097,145.187462 63.0469063,144.863334 62.77899,143.765926 C62.6240635,143.131333 63.3987156,141.876379 63.8999023,141.599085 C64.357988,141.345638 64.5333989,141.132779 65.1045667,141.254693 C66.6366244,141.581707 67.3171724,142.328492 66.9517109,144.055057 Z M23.7901405,130.617327 C23.0145375,130.885508 20.9850614,130.027051 20.3950853,128.306457 C19.8051093,126.585862 20.8155152,126.317579 21.9207098,125.165356 C22.5598047,124.499066 23.8102746,124.701966 24.5145804,125.139667 C25.1583173,125.539728 25.5425725,125.60755 25.8243064,126.429193 C26.8925526,129.544605 24.5657435,130.349146 23.7901405,130.617327 Z M44.7282766,105.299613 C45.2771603,105.911765 45.283224,108.123161 43.9365393,109.340802 C42.5898546,110.558443 41.9491323,109.729289 40.461097,109.157899 C39.6006188,108.827484 39.2980118,107.592318 39.4240431,106.770261 C39.5392359,106.018899 39.4512651,105.637208 40.0943536,105.055742 C42.5327419,102.851008 44.179393,104.687462 44.7282766,105.299613 Z M38.7319151,118.925017 C39.2807988,119.537169 40.4453432,121.809533 39.0986585,123.027174 C37.7519738,124.244815 37.3305807,123.51739 36.1720999,123.456422 C35.2379174,123.407258 35.0090147,121.890841 35.135046,121.068784 C35.2502387,120.317422 35.162268,119.935731 35.8053565,119.354265 C37.5303286,117.794585 38.1830314,118.312866 38.7319151,118.925017 Z M34.2404623,111.192707 C35.4166416,112.50446 33.9843569,113.799498 33.6430681,114.108084 C33.3017794,114.416669 32.596457,114.84009 31.5548622,114.412707 C30.9525447,114.165566 30.396831,112.79859 30.4680219,112.228433 C30.5330906,111.707308 30.4647066,111.439688 30.8986497,111.047327 C32.0626261,109.994886 33.064283,109.880954 34.2404623,111.192707 Z M66.8225333,116.668275 C67.6427021,116.682651 69.2574017,118.186366 69.2257754,120.005825 C69.1941492,121.825284 68.1533028,121.73036 66.7223205,122.433513 C65.894834,122.840122 64.7888829,122.219981 64.2761301,121.56678 C63.807473,120.969752 63.4694908,120.774047 63.4845934,119.905192 C63.5418578,116.61077 66.0023644,116.653899 66.8225333,116.668275 Z M38.5240847,133.267871 C38.2167972,132.504121 38.9642852,130.424005 40.6444749,129.74232 C42.3246647,129.060635 42.6443426,130.059844 43.8480268,131.107845 C44.5440749,131.713868 44.4077436,132.978475 44.009326,133.707671 C43.6451716,134.374157 43.5978358,134.763043 42.7954872,135.088571 C39.7532345,136.322871 38.8313721,134.031621 38.5240847,133.267871 Z M48.7995395,122.523649 C48.492252,121.759899 48.1718894,119.224609 49.8520791,118.542924 C51.5322689,117.861238 51.6804929,118.689524 52.7483435,119.144699 C53.6094432,119.511745 53.3080603,121.015329 52.9096428,121.744524 C52.5454883,122.41101 52.4981526,122.799896 51.6958039,123.125424 C49.5436443,123.998597 49.106827,123.287399 48.7995395,122.523649 Z M50.6592249,131.275184 C50.0007518,129.638577 51.7877403,128.913561 52.2135488,128.740803 C52.6393574,128.568044 53.4463579,128.412404 54.2795731,129.171752 C54.7613919,129.610856 54.8180094,131.086255 54.5569205,131.597577 C54.3182847,132.064926 54.2913949,132.339893 53.7499862,132.559553 C52.2977522,133.148752 51.317698,132.911791 50.6592249,131.275184 Z M14.9001775,114.442795 C16.6256547,114.7796 16.257903,116.679446 16.170274,117.132146 C16.0826451,117.584847 15.7731075,118.349258 14.6851202,118.637409 C14.0559757,118.804036 12.792929,118.048158 12.5080874,117.549788 C12.2477416,117.094276 12.0327419,116.921872 12.1441606,116.34627 C12.4430218,114.80232 13.1747003,114.105991 14.9001775,114.442795 Z M0.616715868,110.655617 C1.64990857,109.22759 3.20915061,110.365193 3.58069114,110.636264 C3.95223167,110.907335 4.51131648,111.512101 4.31157636,112.624062 C4.19607371,113.267069 2.98008795,114.097127 2.40991616,114.145742 C1.88877798,114.190177 1.64231587,114.312988 1.16990817,113.968326 C-0.0972427824,113.043829 -0.416476836,112.083643 0.616715868,110.655617 Z" id="Combined-Shape" fill="#000000" fill-rule="nonzero"></path>
                </g>
            </g>
        </g>
    </g>
</svg>