<?xml version="1.0" encoding="UTF-8"?>
<svg width="34px" height="23px" viewBox="0 0 34 23" version="1.1" xmlns="http://www.w3.org/2000/svg" xmlns:xlink="http://www.w3.org/1999/xlink">
    <!-- Generator: Sketch 52.6 (67491) - http://www.bohemiancoding.com/sketch -->
    <title>002-close-envelope</title>
    <desc>Created with Sketch.</desc>
    <g id="Page-1" stroke="none" stroke-width="1" fill="none" fill-rule="evenodd">
        <g id="Landing-page-1st-draft-Copy" transform="translate(-1002.000000, -4943.000000)" fill="#FFFFFF">
            <g id="Group-24" transform="translate(0.000000, 4796.000000)">
                <g id="Group-7" transform="translate(759.000000, 63.000000)">
                    <g id="Group-28" transform="translate(19.000000, 58.000000)">
                        <g id="Group-13" transform="translate(204.000000, 0.000000)">
                            <g id="002-close-envelope" transform="translate(20.000000, 26.000000)">
                                <path d="M17,16 L12,13 L0,22 C0,22 0.387989898,23 1.03030303,23 L32.969697,23 C33.6090226,23 34,22.663208 34,22 L21,13 L17,16 Z" id="Fill-1"></path>
                                <path d="M34,1 C34,0 33.6090226,0 32.969697,0 L1.03030303,0 C0.39993991,0 0,0.624687239 0,1 L17,14 L34,1 Z" id="Fill-2"></path>
                                <polygon id="Fill-3" points="0 2 0 21 11 12"></polygon>
                                <polygon id="Fill-4" points="22 12 34 21 34 2"></polygon>
                            </g>
                        </g>
                    </g>
                </g>
            </g>
        </g>
    </g>
</svg>