<?xml version="1.0" encoding="UTF-8"?>
<svg width="29px" height="25px" viewBox="0 0 29 25" version="1.1" xmlns="http://www.w3.org/2000/svg" xmlns:xlink="http://www.w3.org/1999/xlink">
    <!-- Generator: Sketch 52.6 (67491) - http://www.bohemiancoding.com/sketch -->
    <title>Group</title>
    <desc>Created with Sketch.</desc>
    <g id="Page-1" stroke="none" stroke-width="1" fill="none" fill-rule="evenodd">
        <g id="Landing-page-1st-draft-Copy" transform="translate(-800.000000, -4941.000000)">
            <g id="Group-24" transform="translate(0.000000, 4796.000000)">
                <g id="Group-7" transform="translate(759.000000, 63.000000)">
                    <g id="Group-28" transform="translate(19.000000, 58.000000)">
                        <g id="Group-15">
                            <g id="Group" transform="translate(22.000000, 24.000000)">
                                <path d="M28.2784965,24.9500201 L19.0693734,20.5552192 L19.0000039,0.633006951 C18.9984083,0.16793509 19.4874898,-0.138517549 19.9097092,0.0630186194 L28.6403879,4.23071417 C28.8601973,4.33563064 29,4.55640023 29,4.79851517 L29,24.4996561 C28.999924,24.8678066 28.6126553,25.1095444 28.2784965,24.9500201" id="Fill-1" fill="#EDEDED"></path>
                                <path d="M19.6494586,21 L10,16.1838006 L19.2896084,0.306805756 C19.4537183,0.0263342238 19.7961351,-0.0791194071 20.0810287,0.0630635478 L28.6516722,4.34145709 C28.9793037,4.50502094 29.0992782,4.92645366 28.909864,5.24854158 L19.6494586,21" id="Fill-3" fill="#FFFFFF"></path>
                                <path d="M20,21 L10.1251841,16.3049598 L1.07397211,1.72987911 C0.8217947,1.32381232 1.2605834,0.843008399 1.69485549,1.04950322 L10.1251841,5.05828686 L20,21" id="Fill-4" fill="#EDEDED"></path>
                                <path d="M9.27874829,24.9501947 L0.285128361,20.6704929 C0.110815738,20.5875145 0,20.4130644 0,20.221703 L0,0.482837322 C0,0.127623574 0.374981012,-0.105753211 0.698541698,0.0482529189 L10,4.4744447 L10,24.5014048 C10,24.8682686 9.61279052,25.1091615 9.27874829,24.9501947" id="Fill-5" fill="#FFFFFF"></path>
                            </g>
                        </g>
                    </g>
                </g>
            </g>
        </g>
    </g>
</svg>