<?xml version="1.0" encoding="UTF-8"?>
<svg width="36px" height="33px" viewBox="0 0 36 33" version="1.1" xmlns="http://www.w3.org/2000/svg" xmlns:xlink="http://www.w3.org/1999/xlink">
    <!-- Generator: Sketch 52.6 (67491) - http://www.bohemiancoding.com/sketch -->
    <title>001-press</title>
    <desc>Created with Sketch.</desc>
    <g id="Page-1" stroke="none" stroke-width="1" fill="none" fill-rule="evenodd">
        <g id="Landing-page-1st-draft-Copy" transform="translate(-1102.000000, -4937.000000)" fill="#FFFFFF">
            <g id="Group-24" transform="translate(0.000000, 4796.000000)">
                <g id="Group-7" transform="translate(759.000000, 63.000000)">
                    <g id="Group-28" transform="translate(19.000000, 58.000000)">
                        <g id="Group-12" transform="translate(306.000000, 0.000000)">
                            <g id="001-press" transform="translate(18.000000, 20.000000)">
                                <path d="M35.6795585,17.2445609 C33.3720537,17.2445609 31.4943235,19.1671122 31.4943235,21.5304808 L31.4943235,28.7137283 C31.4943235,29.913135 30.5415019,30.8891427 29.3702716,30.8891427 C28.1990414,30.8891427 27.2463056,29.913135 27.2463056,28.7137283 L27.2463056,28.6529532 L29.8943493,28.653305 L30.4653208,11.0095282 C31.7197748,9.80809855 32.4303114,8.14219236 32.4299679,6.36555411 C32.4292808,2.85642972 29.640985,0.000703619108 26.2142969,0 L26.2129227,0 C24.5532576,0 22.9928769,0.66210558 21.8196713,1.86353521 C20.6457786,3.06566845 19.9996566,4.66358744 20.0000001,6.36388302 C20.0002578,8.14043331 20.7115674,9.80669131 21.966279,11.0084727 L22.543692,28.6518978 L25.1850366,28.6526014 L25.1850366,28.7137283 C25.1850366,31.0770969 27.0624232,33 29.3702716,33 C31.67812,33 33.5555926,31.0770969 33.5555926,28.7137283 L33.5555926,21.5304808 C33.5555926,20.3310741 34.5083283,19.3554183 35.6795585,19.3554183 L36,19.3554183 L36,17.2445609 L35.6795585,17.2445609 Z M23.2770744,3.35599929 C24.0611296,2.55308193 25.1037882,2.11085732 26.2129227,2.11085732 L26.2139534,2.11085732 C28.1487979,2.11156094 29.7789182,3.47341572 30.2391824,5.31012545 L22.1894114,5.30845436 C22.370889,4.57598687 22.7419174,3.90429448 23.2770744,3.35599929 Z M22.1917303,7.41931168 L30.2388389,7.42098277 C30.046282,8.19645898 29.6430462,8.90139738 29.0646885,9.45901552 L23.3669973,9.45796009 C22.7885536,8.90007809 22.3846308,8.19469994 22.1917303,7.41931168 Z M24.5371969,26.5413923 L24.0470443,11.5688174 L28.384985,11.569521 L27.9001573,26.5420959 L24.5371969,26.5413923 Z" id="Fill-1"></path>
                                <g id="Group-6">
                                    <polygon id="Fill-3" points="5.43793722 24.7635468 14.5147982 24.7635468 14.5147982 22.6608278 5.43793722 22.6608278"></polygon>
                                    <polygon id="Fill-2" points="5.43793722 19.9722387 14.5147982 19.9722387 14.5147982 17.8695196 5.43793722 17.8695196"></polygon>
                                    <path d="M14.1349776,13.6643444 L15.5563229,6.73816314 C15.8996413,5.06527492 15.4221525,3.29627492 14.2786547,2.00634441 C13.19713,0.785540785 11.6286996,0.0856858006 9.9761435,0.0856858006 C8.32331839,0.0856858006 6.75515695,0.785540785 5.67336323,2.00634441 C4.53022422,3.29627492 4.05273543,5.06527492 4.39605381,6.73816314 L5.81695067,13.6643444 L0,13.6643444 L0,28.9689849 L19.9523767,28.9689849 L19.9523767,13.6643444 L14.1349776,13.6643444 Z M7.3006278,3.3824864 C7.97327354,2.62375529 8.94860987,2.18840483 9.9761435,2.18840483 C11.0036771,2.18840483 11.9790135,2.62375529 12.6513004,3.3824864 C13.3625112,4.18467372 13.6592825,5.28465861 13.4459193,6.32506647 L11.9398206,13.6643444 L8.01219731,13.6643444 L6.5064574,6.32506647 C6.29273543,5.28465861 6.58986547,4.18467372 7.3006278,3.3824864 Z M2.15246637,26.8662659 L17.7999103,26.8662659 L17.7999103,15.7670634 L2.15246637,15.7670634 L2.15246637,26.8662659 Z" id="Fill-5"></path>
                                </g>
                            </g>
                        </g>
                    </g>
                </g>
            </g>
        </g>
    </g>
</svg>