<?xml version="1.0" encoding="UTF-8"?>
<svg width="33px" height="27px" viewBox="0 0 33 27" version="1.1" xmlns="http://www.w3.org/2000/svg" xmlns:xlink="http://www.w3.org/1999/xlink">
    <!-- Generator: Sketch 52.6 (67491) - http://www.bohemiancoding.com/sketch -->
    <title>Fill 1</title>
    <desc>Created with Sketch.</desc>
    <g id="Page-1" stroke="none" stroke-width="1" fill="none" fill-rule="evenodd">
        <g id="Landing-page-1st-draft-Copy" transform="translate(-899.000000, -4940.000000)" fill="#FFFFFF">
            <g id="Group-24" transform="translate(0.000000, 4796.000000)">
                <g id="Group-7" transform="translate(759.000000, 63.000000)">
                    <g id="Group-28" transform="translate(19.000000, 58.000000)">
                        <g id="Group-14" transform="translate(102.000000, 0.000000)">
                            <path d="M52.0625866,26.1776014 C50.8454346,26.7167571 49.539954,27.0823619 48.1680243,27.2456483 C49.5687216,26.4067966 50.6410228,25.0762625 51.1493174,23.4959368 C49.8353956,24.2725262 48.3848616,24.8367353 46.8395837,25.142509 C45.6019027,23.8222394 43.8416107,23 41.8893324,23 C38.1435376,23 35.1066002,26.037005 35.1066002,29.7806388 C35.1066002,30.3116909 35.1664313,30.8302501 35.2822445,31.3259168 C29.6461634,31.0429005 24.6485065,28.3427328 21.3036344,24.2395718 C20.7188288,25.2395489 20.3861784,26.4047032 20.3861784,27.6484618 C20.3861784,30.0017305 21.5845572,32.077993 23.4025869,33.2927139 C22.2912536,33.2557753 21.2458967,32.949799 20.3305341,32.4417745 L20.3305341,32.526389 C20.3305341,35.8113623 22.6692838,38.5529257 25.7703743,39.1767634 C25.202181,39.3297852 24.6031266,39.4143997 23.9832057,39.4143997 C23.5453443,39.4143997 23.1216641,39.3711808 22.7064926,39.2883221 C23.5701276,41.9845056 26.073987,43.9452251 29.0408288,43.9990462 C26.7207847,45.8170758 23.795136,46.8975481 20.6178046,46.8975481 C20.0702078,46.8975481 19.5309846,46.8645937 19,46.804695 C22.0018896,48.73219 25.5658949,49.8561513 29.3963717,49.8561513 C41.8729903,49.8561513 48.6929313,39.5217717 48.6929313,30.5595918 L48.6699712,29.6815055 C50.0026662,28.7310275 51.1553951,27.5369031 52.0625866,26.1776014 Z" id="Fill-1"></path>
                        </g>
                    </g>
                </g>
            </g>
        </g>
    </g>
</svg>