<?xml version="1.0" encoding="UTF-8"?>
<svg width="52px" height="52px" viewBox="0 0 52 52" version="1.1" xmlns="http://www.w3.org/2000/svg" xmlns:xlink="http://www.w3.org/1999/xlink">
    <!-- Generator: Sketch 52.6 (67491) - http://www.bohemiancoding.com/sketch -->
    <title>Combined Shape</title>
    <desc>Created with Sketch.</desc>
    <g id="Page-1" stroke="none" stroke-width="1" fill="none" fill-rule="evenodd">
        <g id="Landing-page-1st-draft-Copy" transform="translate(-143.000000, -4624.000000)" fill="#000000">
            <path d="M193,4644 C191.895431,4644 191,4643.10457 191,4642 C191,4640.89543 191.895431,4640 193,4640 C194.104569,4640 195,4640.89543 195,4642 C195,4643.10457 194.104569,4644 193,4644 Z M193,4660 C191.895431,4660 191,4659.10457 191,4658 C191,4656.89543 191.895431,4656 193,4656 C194.104569,4656 195,4656.89543 195,4658 C195,4659.10457 194.104569,4660 193,4660 Z M193,4676 C191.895431,4676 191,4675.10457 191,4674 C191,4672.89543 191.895431,4672 193,4672 C194.104569,4672 195,4672.89543 195,4674 C195,4675.10457 194.104569,4676 193,4676 Z M177,4628 C175.895431,4628 175,4627.10457 175,4626 C175,4624.89543 175.895431,4624 177,4624 C178.104569,4624 179,4624.89543 179,4626 C179,4627.10457 178.104569,4628 177,4628 Z M161,4628 C159.895431,4628 159,4627.10457 159,4626 C159,4624.89543 159.895431,4624 161,4624 C162.104569,4624 163,4624.89543 163,4626 C163,4627.10457 162.104569,4628 161,4628 Z M145,4628 C143.895431,4628 143,4627.10457 143,4626 C143,4624.89543 143.895431,4624 145,4624 C146.104569,4624 147,4624.89543 147,4626 C147,4627.10457 146.104569,4628 145,4628 Z M177,4644 C175.895431,4644 175,4643.10457 175,4642 C175,4640.89543 175.895431,4640 177,4640 C178.104569,4640 179,4640.89543 179,4642 C179,4643.10457 178.104569,4644 177,4644 Z M161,4644 C159.895431,4644 159,4643.10457 159,4642 C159,4640.89543 159.895431,4640 161,4640 C162.104569,4640 163,4640.89543 163,4642 C163,4643.10457 162.104569,4644 161,4644 Z M145,4644 C143.895431,4644 143,4643.10457 143,4642 C143,4640.89543 143.895431,4640 145,4640 C146.104569,4640 147,4640.89543 147,4642 C147,4643.10457 146.104569,4644 145,4644 Z M177,4660 C175.895431,4660 175,4659.10457 175,4658 C175,4656.89543 175.895431,4656 177,4656 C178.104569,4656 179,4656.89543 179,4658 C179,4659.10457 178.104569,4660 177,4660 Z M161,4660 C159.895431,4660 159,4659.10457 159,4658 C159,4656.89543 159.895431,4656 161,4656 C162.104569,4656 163,4656.89543 163,4658 C163,4659.10457 162.104569,4660 161,4660 Z M145,4660 C143.895431,4660 143,4659.10457 143,4658 C143,4656.89543 143.895431,4656 145,4656 C146.104569,4656 147,4656.89543 147,4658 C147,4659.10457 146.104569,4660 145,4660 Z M177,4676 C175.895431,4676 175,4675.10457 175,4674 C175,4672.89543 175.895431,4672 177,4672 C178.104569,4672 179,4672.89543 179,4674 C179,4675.10457 178.104569,4676 177,4676 Z M161,4676 C159.895431,4676 159,4675.10457 159,4674 C159,4672.89543 159.895431,4672 161,4672 C162.104569,4672 163,4672.89543 163,4674 C163,4675.10457 162.104569,4676 161,4676 Z" id="Combined-Shape"></path>
        </g>
    </g>
</svg>