<?xml version="1.0" encoding="UTF-8"?>
<svg width="72px" height="50px" viewBox="0 0 72 50" version="1.1" xmlns="http://www.w3.org/2000/svg" xmlns:xlink="http://www.w3.org/1999/xlink">
    <!-- Generator: Sketch 52.6 (67491) - http://www.bohemiancoding.com/sketch -->
    <title>Combined Shape</title>
    <desc>Created with Sketch.</desc>
    <g id="Page-1" stroke="none" stroke-width="1" fill="none" fill-rule="evenodd">
        <g id="Landing-page-1st-draft-Copy" transform="translate(-1770.000000, -3935.000000)" fill="#000000">
            <path d="M1830,3949 C1828.89543,3949 1828,3948.10457 1828,3947 C1828,3945.89543 1828.89543,3945 1830,3945 C1831.10457,3945 1832,3945.89543 1832,3947 C1832,3948.10457 1831.10457,3949 1830,3949 Z M1814,3949 C1812.89543,3949 1812,3948.10457 1812,3947 C1812,3945.89543 1812.89543,3945 1814,3945 C1815.10457,3945 1816,3945.89543 1816,3947 C1816,3948.10457 1815.10457,3949 1814,3949 Z M1798,3949 C1796.89543,3949 1796,3948.10457 1796,3947 C1796,3945.89543 1796.89543,3945 1798,3945 C1799.10457,3945 1800,3945.89543 1800,3947 C1800,3948.10457 1799.10457,3949 1798,3949 Z M1782,3949 C1780.89543,3949 1780,3948.10457 1780,3947 C1780,3945.89543 1780.89543,3945 1782,3945 C1783.10457,3945 1784,3945.89543 1784,3947 C1784,3948.10457 1783.10457,3949 1782,3949 Z M1830,3965 C1828.89543,3965 1828,3964.10457 1828,3963 C1828,3961.89543 1828.89543,3961 1830,3961 C1831.10457,3961 1832,3961.89543 1832,3963 C1832,3964.10457 1831.10457,3965 1830,3965 Z M1814,3965 C1812.89543,3965 1812,3964.10457 1812,3963 C1812,3961.89543 1812.89543,3961 1814,3961 C1815.10457,3961 1816,3961.89543 1816,3963 C1816,3964.10457 1815.10457,3965 1814,3965 Z M1798,3965 C1796.89543,3965 1796,3964.10457 1796,3963 C1796,3961.89543 1796.89543,3961 1798,3961 C1799.10457,3961 1800,3961.89543 1800,3963 C1800,3964.10457 1799.10457,3965 1798,3965 Z M1782,3965 C1780.89543,3965 1780,3964.10457 1780,3963 C1780,3961.89543 1780.89543,3961 1782,3961 C1783.10457,3961 1784,3961.89543 1784,3963 C1784,3964.10457 1783.10457,3965 1782,3965 Z M1798,3981 C1796.89543,3981 1796,3980.10457 1796,3979 C1796,3977.89543 1796.89543,3977 1798,3977 C1799.10457,3977 1800,3977.89543 1800,3979 C1800,3980.10457 1799.10457,3981 1798,3981 Z M1782,3981 C1780.89543,3981 1780,3980.10457 1780,3979 C1780,3977.89543 1780.89543,3977 1782,3977 C1783.10457,3977 1784,3977.89543 1784,3979 C1784,3980.10457 1783.10457,3981 1782,3981 Z M1798,3997 C1796.89543,3997 1796,3996.10457 1796,3995 C1796,3993.89543 1796.89543,3993 1798,3993 C1799.10457,3993 1800,3993.89543 1800,3995 C1800,3996.10457 1799.10457,3997 1798,3997 Z M1782,3997 C1780.89543,3997 1780,3996.10457 1780,3995 C1780,3993.89543 1780.89543,3993 1782,3993 C1783.10457,3993 1784,3993.89543 1784,3995 C1784,3996.10457 1783.10457,3997 1782,3997 Z" id="Combined-Shape" transform="translate(1806.000000, 3971.000000) rotate(-315.000000) translate(-1806.000000, -3971.000000) "></path>
        </g>
    </g>
</svg>