<?xml version="1.0" encoding="UTF-8"?>
<svg width="40px" height="40px" viewBox="0 0 40 40" version="1.1" xmlns="http://www.w3.org/2000/svg" xmlns:xlink="http://www.w3.org/1999/xlink">
    <!-- Generator: Sketch 52.6 (67491) - http://www.bohemiancoding.com/sketch -->
    <title>Combined Shape</title>
    <desc>Created with Sketch.</desc>
    <g id="Page-1" stroke="none" stroke-width="1" fill="none" fill-rule="evenodd">
        <g id="Landing-page-1st-draft-Copy" transform="translate(-130.000000, -3895.000000)" fill="#000000">
            <path d="M156,3923 C154.895431,3923 154,3922.10457 154,3921 C154,3919.89543 154.895431,3919 156,3919 C157.104569,3919 158,3919.89543 158,3921 C158,3922.10457 157.104569,3923 156,3923 Z M156,3899 C154.895431,3899 154,3898.10457 154,3897 C154,3895.89543 154.895431,3895 156,3895 C157.104569,3895 158,3895.89543 158,3897 C158,3898.10457 157.104569,3899 156,3899 Z M144,3899 C142.895431,3899 142,3898.10457 142,3897 C142,3895.89543 142.895431,3895 144,3895 C145.104569,3895 146,3895.89543 146,3897 C146,3898.10457 145.104569,3899 144,3899 Z M132,3899 C130.895431,3899 130,3898.10457 130,3897 C130,3895.89543 130.895431,3895 132,3895 C133.104569,3895 134,3895.89543 134,3897 C134,3898.10457 133.104569,3899 132,3899 Z M156,3911 C154.895431,3911 154,3910.10457 154,3909 C154,3907.89543 154.895431,3907 156,3907 C157.104569,3907 158,3907.89543 158,3909 C158,3910.10457 157.104569,3911 156,3911 Z M168,3923 C166.895431,3923 166,3922.10457 166,3921 C166,3919.89543 166.895431,3919 168,3919 C169.104569,3919 170,3919.89543 170,3921 C170,3922.10457 169.104569,3923 168,3923 Z M168,3899 C166.895431,3899 166,3898.10457 166,3897 C166,3895.89543 166.895431,3895 168,3895 C169.104569,3895 170,3895.89543 170,3897 C170,3898.10457 169.104569,3899 168,3899 Z M168,3911 C166.895431,3911 166,3910.10457 166,3909 C166,3907.89543 166.895431,3907 168,3907 C169.104569,3907 170,3907.89543 170,3909 C170,3910.10457 169.104569,3911 168,3911 Z M144,3911 C142.895431,3911 142,3910.10457 142,3909 C142,3907.89543 142.895431,3907 144,3907 C145.104569,3907 146,3907.89543 146,3909 C146,3910.10457 145.104569,3911 144,3911 Z M132,3911 C130.895431,3911 130,3910.10457 130,3909 C130,3907.89543 130.895431,3907 132,3907 C133.104569,3907 134,3907.89543 134,3909 C134,3910.10457 133.104569,3911 132,3911 Z M144,3923 C142.895431,3923 142,3922.10457 142,3921 C142,3919.89543 142.895431,3919 144,3919 C145.104569,3919 146,3919.89543 146,3921 C146,3922.10457 145.104569,3923 144,3923 Z M132,3923 C130.895431,3923 130,3922.10457 130,3921 C130,3919.89543 130.895431,3919 132,3919 C133.104569,3919 134,3919.89543 134,3921 C134,3922.10457 133.104569,3923 132,3923 Z M156,3935 C154.895431,3935 154,3934.10457 154,3933 C154,3931.89543 154.895431,3931 156,3931 C157.104569,3931 158,3931.89543 158,3933 C158,3934.10457 157.104569,3935 156,3935 Z M168,3935 C166.895431,3935 166,3934.10457 166,3933 C166,3931.89543 166.895431,3931 168,3931 C169.104569,3931 170,3931.89543 170,3933 C170,3934.10457 169.104569,3935 168,3935 Z M144,3935 C142.895431,3935 142,3934.10457 142,3933 C142,3931.89543 142.895431,3931 144,3931 C145.104569,3931 146,3931.89543 146,3933 C146,3934.10457 145.104569,3935 144,3935 Z M132,3935 C130.895431,3935 130,3934.10457 130,3933 C130,3931.89543 130.895431,3931 132,3931 C133.104569,3931 134,3931.89543 134,3933 C134,3934.10457 133.104569,3935 132,3935 Z" id="Combined-Shape"></path>
        </g>
    </g>
</svg>