<?xml version="1.0" encoding="UTF-8"?>
<svg width="190px" height="193px" viewBox="0 0 190 193" version="1.1" xmlns="http://www.w3.org/2000/svg" xmlns:xlink="http://www.w3.org/1999/xlink">
    <!-- Generator: Sketch 52.6 (67491) - http://www.bohemiancoding.com/sketch -->
    <title>Group 8</title>
    <desc>Created with Sketch.</desc>
    <g id="Page-1" stroke="none" stroke-width="1" fill="none" fill-rule="evenodd">
        <g id="Landing-page-1st-draft-Copy" transform="translate(-1730.000000, -4665.000000)">
            <g id="Group-8" transform="translate(1814.500000, 4758.500000) scale(-1, 1) translate(-1814.500000, -4758.500000) translate(1689.000000, 4648.000000)">
                <g id="5ccc8aa73871f96977c81ca6_values-decoration" transform="translate(0.500000, 0.000000)">
                    <path d="M180.321448,75.871728 C184.886159,83.0258909 176.482594,95.0796162 178.047905,104.606385 C178.735552,108.791528 184.379013,111.663285 186.828271,115.473441 C198.573499,133.744751 202.456558,157.402672 187.124533,174.881066 C174.510858,189.260558 143.491758,224.905387 89.3284335,210.757137 C35.8110213,196.777609 85.7844315,85.8832383 58.9779732,52.0323277 C32.1715149,18.1814167 105.692074,-41.0931125 180.321448,75.871728 Z" id="blob" fill="#FFEB4F" fill-rule="nonzero" opacity="0.494884673" transform="translate(125.266332, 110.333774) scale(-1, 1) rotate(-116.000000) translate(-125.266332, -110.333774) "></path>
                    <path d="M157.402445,166.036694 C128.216368,64.5995335 18.8154297,157.469454 41.8246555,162.12692 C64.8338813,166.784385 117.546513,134.936725 87.8013728,92.9249678" id="liner" stroke="#08242A" stroke-width="3" stroke-linecap="round" transform="translate(98.035912, 129.480831) rotate(-164.000000) translate(-98.035912, -129.480831) "></path>
                </g>
                <path d="M85.0809186,59.1398509 C84.417588,58.6766424 83.9227263,56.5655165 84.9488032,55.1041041 C85.97488,53.6426916 86.7745364,54.2928565 88.3322025,54.5091387 C89.2329458,54.634207 89.7971619,55.7471008 89.8577253,56.5602945 C89.9130804,57.3035553 90.0821049,57.6486888 89.5921177,58.3465637 C87.7342412,60.992685 85.7442493,59.6030595 85.0809186,59.1398509 Z M117.365755,61.2270167 C117.197393,62.0169486 115.44216,63.2961174 113.692342,62.9251915 C111.942524,62.5542656 112.230182,61.5661362 111.821184,60.0516803 C111.584674,59.175924 112.39143,58.2231276 113.118352,57.8497899 C113.78276,57.5085585 114.035278,57.2185385 114.870877,57.3956685 C118.039204,58.0672893 117.534117,60.4370849 117.365755,61.2270167 Z M103.049915,64.3028259 C102.881553,65.0927577 101.75004,67.3297636 100.000222,66.9588377 C98.2504031,66.5879118 98.5844204,65.8330954 97.9607009,64.8752584 C97.4577424,64.1028722 98.5309471,63.0467057 99.257869,62.673368 C99.9222772,62.3321366 100.174796,62.0421166 101.010394,62.2192465 C103.251742,62.6943666 103.218277,63.512894 103.049915,64.3028259 Z M106.593356,56.269664 C106.23258,57.9623751 104.371537,57.5678718 103.928082,57.4738684 C103.484628,57.3798651 102.738613,57.0620924 102.474131,55.9862015 C102.321191,55.3640519 103.085912,54.1337047 103.580673,53.8618481 C104.032886,53.6133705 104.206048,53.4046854 104.769893,53.5242091 C106.282309,53.8448105 106.954132,54.5769528 106.593356,56.269664 Z M63.9851387,43.0954186 C63.2194793,43.3583408 61.2160221,42.516717 60.6336099,40.8298597 C60.0511976,39.1430024 61.0486497,38.8799799 62.139675,37.7503493 C62.7705764,37.0971238 64.0050146,37.2960448 64.7002909,37.7251642 C65.3357748,38.1173802 65.7151036,38.1838721 65.9932256,38.9894047 C67.0477763,42.0437301 64.7507981,42.8324965 63.9851387,43.0954186 Z M84.6548372,18.2741309 C85.1966839,18.8742793 85.2026699,21.0423147 83.8732504,22.2360806 C82.5438309,23.4298466 81.9113229,22.6169501 80.442365,22.0567636 C79.5929185,21.7328275 79.2941912,20.5218805 79.4186066,19.7159421 C79.5323227,18.9793127 79.4454797,18.6051059 80.0803234,18.0350414 C82.4874503,15.873537 84.1129905,17.6739824 84.6548372,18.2741309 Z M78.7353521,31.6323701 C79.2771988,32.2325185 80.4268132,34.4603263 79.0973937,35.6540922 C77.7679742,36.8478581 77.3519835,36.134696 76.208355,36.0749236 C75.2861492,36.026724 75.0601812,34.5400406 75.1845967,33.7341021 C75.2983126,32.9974727 75.2114697,32.6232659 75.8463134,32.0532015 C77.5491706,30.5241034 78.1935054,31.0322216 78.7353521,31.6323701 Z M74.301482,24.0516732 C75.4625821,25.3377056 74.04866,26.6073514 73.7117467,26.9098862 C73.3748335,27.2124209 72.6785537,27.6275395 71.6503127,27.208536 C71.0557172,26.9662411 70.5071281,25.6260683 70.5774063,25.0670911 C70.6416407,24.5561848 70.5741335,24.2938118 71.0025132,23.9091439 C72.1515668,22.8773394 73.1403819,22.7656408 74.301482,24.0516732 Z M106.465834,29.4198771 C107.275488,29.4339713 108.869486,30.9082019 108.838265,32.6919854 C108.807045,34.4757688 107.779543,34.3827063 106.366906,35.072072 C105.550028,35.4707078 104.458256,34.8627264 103.952077,34.222333 C103.489429,33.637012 103.155779,33.4451441 103.170688,32.5933259 C103.227219,29.3635003 105.65618,29.4057829 106.465834,29.4198771 Z M78.5301861,45.693991 C78.2268383,44.9452164 78.9647431,42.9058877 80.6233919,42.2375689 C82.2820408,41.5692501 82.5976203,42.5488662 83.7858726,43.576319 C84.472997,44.1704586 84.3384135,45.41027 83.9451039,46.1251673 C83.5856181,46.7785849 83.5388892,47.1598457 82.7468271,47.478991 C79.7435777,48.6890893 78.833534,46.4427656 78.5301861,45.693991 Z M88.6739044,35.1604404 C88.3705565,34.4116658 88.0543011,31.9260871 89.7129499,31.2577683 C91.3715988,30.5894495 91.5179225,31.4014937 92.5720827,31.8477438 C93.4221427,32.2075935 93.1246236,33.6816948 92.731314,34.3965921 C92.3718282,35.0500097 92.3250993,35.4312705 91.5330372,35.7504158 C89.4084693,36.6064673 88.9772523,35.909215 88.6739044,35.1604404 Z M90.5097477,43.7403766 C89.8597165,42.1358596 91.6237949,41.42506 92.0441444,41.2556888 C92.4644939,41.0863175 93.2611482,40.933729 94.0836811,41.6781882 C94.5593228,42.1086826 94.6152145,43.5551524 94.3574728,44.0564478 C94.1218964,44.5146329 94.0953513,44.7842089 93.5608838,44.9995617 C92.1272682,45.5772079 91.1597788,45.3448935 90.5097477,43.7403766 Z M55.2091496,27.2380347 C56.9125053,27.5682349 56.5494683,29.4308293 56.4629628,29.8746534 C56.3764574,30.3184776 56.0708881,31.0679005 54.9968495,31.3504007 C54.3757709,31.5137607 53.128917,30.7727042 52.8477273,30.2841055 C52.5907193,29.8375253 52.378476,29.6685015 52.4884663,29.1041863 C52.7834959,27.5905097 53.5057939,26.9078346 55.2091496,27.2380347 Z M41.1088093,23.5251144 C42.1287559,22.1250884 43.6680077,23.240385 44.0347848,23.506141 C44.401562,23.771897 44.9534791,24.364805 44.7562997,25.4549624 C44.6422779,26.085362 43.4418817,26.8991444 42.8790198,26.9468064 C42.3645629,26.9903696 42.1212605,27.1107727 41.6549093,26.7728683 C40.4040039,25.866499 40.0888626,24.9251404 41.1088093,23.5251144 Z" id="Combined-Shape" fill="#000000" fill-rule="nonzero"></path>
            </g>
        </g>
    </g>
</svg>